<?xml version="1.0" encoding="UTF-8" standalone="no"?>
<svg
   xmlns:dc="http://purl.org/dc/elements/1.1/"
   xmlns:cc="http://creativecommons.org/ns#"
   xmlns:rdf="http://www.w3.org/1999/02/22-rdf-syntax-ns#"
   xmlns:svg="http://www.w3.org/2000/svg"
   xmlns="http://www.w3.org/2000/svg"
   xmlns:sodipodi="http://sodipodi.sourceforge.net/DTD/sodipodi-0.dtd"
   xmlns:inkscape="http://www.inkscape.org/namespaces/inkscape"
   width="741.81659pt"
   height="1084.1014pt"
   viewBox="0 0 741.81659 1084.1014"
   version="1.2"
   id="svg5"
   sodipodi:docname="Schemata_Vereinzelung.svg"
   inkscape:version="0.92.4 (5da689c313, 2019-01-14)">
  <metadata
     id="metadata11">
    <rdf:RDF>
      <cc:Work
         rdf:about="">
        <dc:format>image/svg+xml</dc:format>
        <dc:type
           rdf:resource="http://purl.org/dc/dcmitype/StillImage" />
        <dc:title></dc:title>
      </cc:Work>
    </rdf:RDF>
  </metadata>
  <defs
     id="defs9" />
  <sodipodi:namedview
     pagecolor="#ffffff"
     bordercolor="#666666"
     borderopacity="1"
     objecttolerance="10"
     gridtolerance="10"
     guidetolerance="10"
     inkscape:pageopacity="0"
     inkscape:pageshadow="2"
     inkscape:window-width="1920"
     inkscape:window-height="1137"
     id="namedview7"
     showgrid="false"
     inkscape:zoom="0.5959596"
     inkscape:cx="459.97429"
     inkscape:cy="720.26031"
     inkscape:window-x="-8"
     inkscape:window-y="-8"
     inkscape:window-maximized="1"
     inkscape:current-layer="layer1"
     fit-margin-top="0"
     fit-margin-left="0"
     fit-margin-right="0"
     fit-margin-bottom="0" />
  <g
     inkscape:groupmode="layer"
     id="layer1"
     inkscape:label="Layer 1"
     style="display:inline"
     transform="translate(399.93954,591.70553)">
    <rect
       style="fill:#000000;fill-opacity:1;stroke:#000000;stroke-width:0.72086984;stroke-miterlimit:10;stroke-dasharray:none;stroke-dashoffset:0;stroke-opacity:1"
       id="rect1024"
       width="741.0957"
       height="1083.3806"
       x="-399.5791"
       y="-591.34509" />
  </g>
  <g
     id="surface96"
     style="fill:#ffffff;fill-opacity:1"
     transform="matrix(2.5045582,0,0,2.5045582,-114.40114,2.3762777)">
    <path
       style="fill:#ffffff;fill-opacity:1;fill-rule:nonzero;stroke:none"
       d="m 135.02734,324.41016 -0.48828,-0.1211 -0.64062,0.53516 -2.51172,-0.84375 -0.33594,0.20312 -1.80469,-0.8164 -1.89062,-1.25391 -0.9375,-0.75 -0.42578,-0.62891 -0.75391,-1.70312 -0.0391,-3.1875 1.80859,-4.02344 0.44922,-0.28125 1.44531,-1.92969 0.82813,-0.52734 0.48437,-0.78516 4.17188,-2.25781 10.57812,-0.78906 5.67969,-0.59766 0.49219,-0.52734 v -0.33594 l -0.73438,-0.73437 -8.25,-0.043 -0.83984,0.33594 -0.53906,0.5664 -0.83985,-0.26953 h -3.48437 l -0.95313,0.30078 -0.64453,-0.2539 -4.05859,0.82421 -1.85156,0.9336 -0.28125,0.45312 -1.33594,1.16407 -0.76953,1.38671 -0.5,0.51563 -1.57031,2.52344 -1.35547,3.58984 -0.74219,2.64063 v 0.67187 l 1.13281,2.73438 1.13281,1.15234 0.80079,1.10156 1.70312,1.08594 0.51953,0.5 2.51172,1.24609 2.89062,0.91407 3.6875,0.59375 0.65235,-0.0352 1.48437,-0.51953 0.39063,-0.34375 h 0.64844 l 0.30078,0.21875 0.34765,0.008 5.9375,-0.51953 0.26563,-0.0977 0.86328,-1.38281 -0.004,-0.66016 -1.04687,-0.73828 -3.1836,-0.043 -6.66015,0.94532 H 135.5 m 8.39453,-142.13672 V 74.007813 l -0.58594,-19.023438 0.21094,-0.242187 3.0625,-1.753907 0.33203,0.203125 1.42188,-0.601562 5.20703,-0.886719 h 1.9414 l 2.26954,0.53125 4.89453,1.539063 2.09375,1.136718 7.5039,2.710938 3.82422,1.722656 5.36328,1.46875 1.08985,0.04297 0.66406,28.039062 0.48437,0.164063 0.51954,-0.02734 0.54687,-0.742187 0.0391,-0.335938 0.0312,-26.800781 2.96875,-1.203125 0.75782,0.105469 0.0508,10.148437 -0.0469,0.644531 -0.26562,0.625 -0.0391,18.902344 -4.17968,2.199219 -2.8086,0.828125 -0.85547,1.191406 -0.043,0.648438 0.16406,0.796875 0.92578,0.585937 h 1.29297 l 0.83594,-0.617187 0.35156,-0.535157 0.49219,-1.167968 -0.25,-0.644532 0.15625,-0.480468 3.58984,-1.882813 0.67187,96.48437 0.16016,0.125 h 0.96484 l 0.42188,-0.42188 0.043,-0.32421 0.0391,-96.874999 1.23047,-0.746093 34.85547,-17.429688 0.79687,-0.476562 0.11328,-0.488282 -0.0977,-0.09766 -0.66016,-0.0078 -3.0039,1.703125 -27.88282,13.945312 -5.02734,2.679688 -0.95313,-30.234375 0.0586,-0.433594 0.49219,-0.839844 0.0391,-1.597656 -0.0977,-0.414063 -0.875,-1.375 -0.8789,-0.691406 -3.36719,-0.652344 -3.79688,-0.464843 -0.32422,0.21875 -0.95703,0.04297 -0.94922,-0.300781 -3.78515,0.898438 -1.92188,0.03516 -6.58984,-0.925781 -1.63281,-0.609375 -0.96875,-0.03906 -0.625,0.265625 -0.98047,0.0039 -5.66797,-1.816406 -4.13672,-0.03906 -4.25391,0.628906 -3.90234,1.507812 -0.50391,0.488282 -1.38281,0.765625 -1.48047,1.511718 -0.043,14.902344 0.62891,6.304688 0.57813,111.542969 0.20703,0.17188 h 0.96875 l 0.41797,-0.42188 m -1.39063,19.80078 52.625,-0.004 1.81641,-0.86719 0.51562,-0.54688 0.043,-1.27343 -0.26562,-0.625 -0.043,-0.95704 0.58593,-1.57031 0.043,-0.65234 -0.004,-10.45703 -0.30078,-0.75 -48.35157,-0.67578 -0.75,-0.61719 0.11328,-0.28516 0.32422,-0.0469 1.58594,0.3125 30.74219,-0.004 0.46875,-0.15234 0.27734,-0.3125 v -0.96485 l -0.41797,-0.42187 -0.32812,-0.043 -30.42578,-0.004 -0.64453,0.0469 -0.625,0.26562 -1.0586,-0.14453 -0.004,-0.65234 0.22265,-0.30078 0.0469,-0.64063 0.0195,-27.09765 2.57812,-1.17969 1.9336,-1.92969 1.01953,-1.65625 1.20703,-2.44531 0.96484,-2.53906 1.11328,-4.96875 -0.008,-0.98047 -0.21484,-0.32032 0.58203,-1.39453 0.13672,-0.0156 15.55859,0.0469 0.14063,0.42578 -0.30078,0.94922 0.0352,4.45703 1.19141,4.79688 0.89453,2.05469 0.71875,1.04297 0.58594,0.57812 0.61718,0.32422 1.39454,0.55078 3.71875,0.90625 -0.0195,0.82813 -0.22265,0.30078 -0.0469,0.64062 0.008,29.16016 0.15234,0.46875 0.30859,0.27734 h 0.96875 l 0.41797,-0.42187 0.043,-30.11328 -0.57422,-1.26172 0.53125,-0.63672 v -0.64844 l -0.28125,-0.47266 -0.99609,-0.35546 -3.38281,-0.73829 -1.0625,-0.38671 -0.66797,-0.36329 -0.38282,-0.70703 -0.83203,-2.01172 -1.17968,-4.44531 -0.0391,-5.08984 0.26563,-0.62891 0.043,-0.64062 -0.15235,-0.46875 -0.30859,-0.27735 -17.125,-0.0469 -0.64063,0.0469 -0.30859,0.20703 -0.63672,-0.24218 -0.57422,0.26172 -1.09375,7.1914 -1.18359,3.61328 -1.03125,2.30469 -1.25391,1.89063 -1.30078,1.29687 -0.83984,0.48828 -0.33594,-0.20312 -2.125,1.13281 -0.19531,0.23047 0.58594,29.48047 -0.0273,0.5039 -0.64062,0.51563 0.19922,0.40234 -0.10157,0.16797 0.32422,-0.0625 0.50781,1.31641 -0.0977,0.11718 -17.44531,0.004 -0.875,-0.84375 -1.72266,-2.33594 -0.8125,-0.83203 -0.45312,-0.7539 -1.13282,-1.14844 -0.53515,-0.84375 -1.05078,-1.0586 -0.45313,-0.7539 -1.13281,-1.14453 -1.71875,-2.33985 -2.71485,-3.05078 -0.45703,-0.7539 -1.1289,-1.14844 -0.45313,-0.75391 -1.13281,-1.14453 -1.71875,-2.33984 -0.81641,-0.83203 -0.45312,-0.75391 -1.31641,-1.49219 -0.625,0.11719 0.10547,0.79687 3.10547,3.42969 0.53516,0.84375 1.04687,1.0586 0.45313,0.7539 1.13281,1.14844 0.45312,0.75391 2.71485,3.05078 0.45312,0.7539 1.13281,1.14453 0.53516,0.84375 1.05078,1.0586 0.45313,0.7539 1.1289,1.14844 0.53907,0.84375 1.04687,1.0586 0.45313,0.7539 1.13281,1.14844 0.45312,0.75391 1.64063,1.69531 -4.57813,0.76953 -0.92578,-0.89453 -0.84375,-0.0117 -0.53906,0.69531 -1.09375,0.79297 -0.63281,0.95313 -0.4961,0.85546 0.52735,1.5586 0.36718,0.64844 1.22657,1.26562 v 0.33594 l -0.21094,0.24219 -1.24219,0.64062 -2.6875,1.08984 -0.65625,0.65235 -0.49609,0.83594 0.0547,0.42968 0.7539,1.38282 1.96485,1.49218 -0.0156,0.52344 -0.53906,0.61719 -0.043,0.95703 0.15625,0.47266 0.71484,0.71484 1.49219,0.50391 0.32813,-0.19922 0.30859,0.20703 0.52734,0.0781 0.58594,0.75391 0.48047,0.16016 m 12.65234,111.52343 1.94531,0.008 1.16016,-0.49219 0.71484,-0.41016 0.8086,-0.80859 0.5822,-0.9258 v -0.98438 l -0.48828,-1.17578 -0.64453,-1.24219 -0.64844,-0.64843 -1.48438,-0.51954 -2.57031,0.004 -1.10156,0.75781 -0.89453,1.25 -0.004,1.60938 0.83203,2.12109 0.41797,0.60156 m 12.81641,-181.66015 -0.008,0.2539 0.22265,-0.15625 0.50391,2.52735 0.53515,0.49609 0.64063,0.043 0.41406,-0.0937 0.66406,-0.49219 -0.0156,-0.52734 -0.20703,-0.30859 0.1914,-0.31641 -0.0937,-0.14844 -0.30859,-0.27734 -0.64453,0.20703 -0.10547,-0.0898 0.10547,-0.47657 0.30859,-0.27734 0.32422,-0.0352 23.77735,0.61719 h 7.91796 l 1.16407,-0.53125 0.375,-0.42187 0.66406,0.63671 0.85156,-0.0273 0.54688,-0.74219 0.0391,-0.33593 v -28.52344 l -0.54688,-4.03516 -0.70703,-0.26172 -4.22656,-0.85937 -0.6875,-0.38281 -0.57422,-0.58594 -0.92578,-2.128907 -0.66016,-2.226563 -0.8164,-4.714844 0.21094,-0.652343 -0.20704,-0.308594 -0.0391,-1.59375 0.21485,-0.535156 6.26562,-0.566407 0.16406,-0.484375 -0.043,-0.640625 -0.41796,-0.421875 -0.64454,-0.04687 H 151.0271 l -0.64062,0.04687 -0.62891,0.265625 -0.74219,-0.144531 -0.043,-1.589844 0.26562,-0.628906 0.0469,-0.640625 0.0195,-25.832031 2.57422,-1.175781 1.79687,-1.828125 v -1.285157 l -0.42187,-0.417968 -0.32422,-0.04297 -0.79688,0.160156 -0.53906,0.847656 -0.66797,0.664063 -3.61328,1.730469 -0.19922,0.230468 -0.043,5.078125 0.6211,24.742188 -0.66016,0.679687 0.19922,0.402344 -0.10156,0.167969 0.33203,-0.06641 0.51172,0.996093 -0.004,1.296875 -0.20703,0.308594 0.40625,0.425781 1.27344,0.04297 0.42578,-0.144531 0.004,-0.96875 -0.20703,-0.308594 0.19141,-0.316406 -0.40235,-0.425781 -0.64453,0.203125 -0.10937,-0.417969 0.41797,-0.421875 0.95703,-0.04297 6.17969,0.664063 -0.043,0.765625 -0.26172,0.625 0.26562,0.972656 -1.15234,5.035156 -0.64453,1.90625 -1.23828,2.449225 -1.26953,1.90234 -0.98829,0.98438 -2.03515,0.78515 -1.25781,0.625 -0.19922,0.23047 -0.0469,19.02343 0.0469,0.64453 0.26562,0.625 0.004,9.19141 -0.0352,0.52734 -0.50781,0.48828 0.16406,0.25391 m -4.21094,76.21094 -0.43359,0.48046 -0.0469,0.64454 0.004,36.1289 0.57031,9.76563 0.21094,0.17187 0.64063,0.043 0.46875,-0.15233 0.27734,-0.3086 0.0469,-0.64453 -0.004,-8.87109 -0.64844,-37.28906 -0.57031,-1.22657 -0.61719,0.16015 0.2461,0.63672 m 7.75,-105.97656 1.1914,-0.58593 1.61719,-1.61719 1.26953,-1.90234 0.96094,-1.89063 1.27734,-3.476565 0.37891,-1.421875 0.71484,-5.726562 0.21485,-0.175782 10.78125,-0.04297 5.13281,0.570312 -0.21485,0.539063 0.0352,5.40625 1.17969,4.449219 0.90625,2.08593 0.71875,1.04297 0.88672,0.58203 1.53515,0.61329 3.69532,0.80859 0.17968,0.23828 -0.5625,23.78906 -0.27734,6.36328 -0.52734,-0.48437 -0.64454,-0.0469 h -29.15625 l -0.64453,0.0469 -0.625,0.26562 -1.59375,-0.0469 -0.14453,-0.42578 -0.004,-1.90235 0.3164,-1.58203 0.004,-24.74609 m -15.07422,171.96875 h 52.94531 l 0.64063,-0.0469 0.30078,-0.22265 0.98047,-0.043 0.72265,1.04687 0.83203,0.47657 0.52735,-0.28516 0.54687,-0.75 0.0391,-0.96484 -0.61719,-4.75782 0.25781,-0.625 0.043,-0.96093 -0.26563,-0.625 -0.0469,-0.95704 0.004,-3.80468 0.58593,-1.25 v -0.97657 l -0.42187,-0.42187 -0.32813,-0.043 -6.77343,-0.004 -0.66797,-30.26953 v -1.58203 l 0.25,-0.63672 -0.27735,-0.51562 -0.76172,-0.53516 -0.33593,0.20703 -2.21875,-0.48828 -2.78125,-0.99609 -1.23828,-2.5 -0.88672,-3.45703 -0.58594,-5.00391 0.21094,-0.65625 -0.20313,-0.30859 v -0.33203 l 0.53516,-0.61719 0.043,-0.64063 -0.15235,-0.47265 -0.30859,-0.27344 -18.70703,-0.043 -0.47266,0.15234 -0.38672,0.38282 -0.84375,6.72656 -1.24609,3.96875 -0.85547,1.74609 -1.65234,2.60938 -0.66797,0.66406 -2.89844,1.33203 -0.91406,0.62891 -0.043,7.29687 0.62109,22.52344 -0.66015,0.67969 0.20703,0.36328 h -18.08985 l -2.46093,-2.42969 -0.53516,-0.84375 -1.68359,-1.6914 -0.45313,-0.75391 -2.08203,-2.09766 -0.53515,-0.84375 -1.6836,-1.6914 -0.45312,-0.75391 -2.08203,-2.09766 -0.53516,-0.84375 -1.68359,-1.6914 -0.45313,-0.75781 -2.08203,-2.09766 -0.53516,-0.84375 -1.68359,-1.69141 -0.53516,-0.84375 -1.10937,-1.0664 -0.42969,0.0977 -0.004,0.33594 0.67579,0.72266 0.45312,0.7539 2.08203,2.09766 0.53516,0.84375 2,2.01172 0.53515,0.84375 2,2.00781 0.53516,0.84375 2,2.00781 0.53516,0.84375 2,2.00782 0.53906,0.84375 1.99609,2.01171 0.53907,0.84375 1.67968,1.69141 0.53907,0.84375 1.17578,1.17969 -7.01953,0.83594 -0.63672,-0.53125 -0.34375,-0.004 -1.80078,0.82812 -0.9375,0.6211 -0.84766,1.17969 v 0.98828 l 0.5,0.83593 1.31641,1.36719 -1.8125,1.89063 -0.004,1.29297 0.86328,1.55078 -0.11328,0.48437 -0.74219,1.11719 0.49219,0.85156 0.98437,0.98438 2.10157,1.1289 0.48437,-0.11328 0.27735,-0.30859 v -0.96485 l -0.19141,-0.22265 -1.42578,-0.48828 -1.09766,-0.9336 0.4961,-0.55859 0.0469,-0.96094 -0.043,-0.64844 -0.54687,-0.91796 0.004,-0.97657 1.37891,-1.10547 0.15625,-0.78906 -0.043,-0.64844 -1.53125,-2.1875 0.14844,-0.48437 0.72265,-0.71875 1.16797,-0.5 0.26172,0.17187 0.6875,-0.53515 0.74219,0.25781 8.40234,0.625 1.89453,1.90234 1.42969,1.80079 -0.20703,0.30859 -0.0391,0.95703 0.52734,1.16406 1.04297,0.55078 0.78516,0.6211 0.64843,0.043 0.65235,-0.043 0.87109,-0.53906 0.49219,-0.82422 -0.30469,-1.17188 -0.84375,-0.66797 -1.16406,-0.51172 -0.66016,0.004 -0.30859,0.20313 -0.3086,-0.20313 -0.52734,-0.0781 -2.26562,-2.44532 -0.79688,-1.17187 0.41016,-0.15235 h 16.16406 l 0.42578,0.14454 -0.20312,0.64453 0.26171,0.3164 0.78516,0.15625 0.79297,-0.0195 0.76953,-1.24219 39.96484,0.0469 0.10547,0.75 -0.26172,0.625 0.29688,0.95312 -0.30078,0.94922 v 1.89844 l 0.26562,0.62891 0.0391,0.64062 -0.26563,0.62891 -0.0391,0.95703 0.26562,0.625 0.0391,0.64062 -0.64063,2.36719 -0.78906,-0.0351 -0.30078,-0.22266 -0.64063,-0.0469 -66.24218,0.004 -0.46875,0.15234 -0.27735,0.3125 v 0.96485 l 0.42188,0.42187 m 19.34765,-81.08593 -0.74219,-0.73438 -1.46484,-0.8125 h -0.98828 l -0.91406,0.54297 -0.48828,-0.11328 -4.60157,-5.55469 -0.008,-0.25781 0.32813,-0.0469 15.21093,-0.004 0.64063,0.0469 0.30859,0.20703 0.3086,-0.20312 0.64453,0.20312 0.3164,-0.1914 0.31641,0.1914 0.30859,-0.20703 0.64453,-0.0469 45.00391,0.004 0.41406,0.15235 -0.20703,0.3125 -0.004,0.66015 0.58593,1.88282 -0.5625,8.41406 -0.41406,3.76953 -0.44531,-0.23438 -0.33203,0.20313 -70.82422,-0.57422 -3.25781,-0.58203 -0.16407,-0.22266 0.84375,-1.25 -0.004,-0.97656 -1.0625,-1.03516 0.0977,0.41407 -0.42968,0.10937 -0.83594,-0.49609 -0.51172,-0.56641 0.42188,-0.10937 0.625,0.51953 v -0.24219 l -1.0586,-1.10937 0.11328,-0.48829 1.96094,-1.17187 -0.16016,-0.25391 0.0859,-0.10156 0.97656,0.21875 0.83594,-0.5 1.16016,-1.19141 0.043,-0.64062 -0.15235,-0.47266 -1.91797,-1.97656 -0.41406,0.24219 -0.004,-0.66406 0.8164,-1.46875 0.88281,-0.82813 0.31641,0.19141 0.63672,-0.25 h 4.11719 l 0.95312,0.30859 1.78516,0.0352 1.63281,1.80859 1.72266,2.33984 1.9414,1.99219 -0.26172,0.96094 0.043,1.27344 1.67578,1.05859 H 139 l 1.46875,-0.81641 0.21094,-0.24218 0.043,-0.64063 -0.15235,-0.46875 M 148.5,91.214844 l -0.008,-0.1875 m 0.9375,46.906246 0.42578,0.0977 -0.42188,0.10547 m -0.77343,95.9375 2.59765,-1.35156 1.35547,-1.34766 0.88281,-1.21094 1.33985,-2.29687 1.21093,-3.07813 0.69141,-2.33203 0.73438,-3.58984 -0.26172,-0.64844 0.043,-1.27344 0.42187,-0.42187 15.86328,0.004 0.10156,0.4336 -0.26171,0.6289 0.0352,5.40625 1.17969,4.12891 1.22266,2.72266 0.98828,0.98437 0.61718,0.32422 1.39454,0.55078 3.71875,0.91016 -0.67188,30.45312 -0.40234,-0.58594 -0.64063,-0.0469 h -30.42578 l -0.64453,0.0469 -0.30078,0.22266 -0.96485,-0.004 -0.14453,-0.42578 -0.008,-0.94922 0.31641,-1.58593 m -0.625,-121.69922 0.14843,-0.42578 0.10938,0.0898 0.0469,0.95703 -0.15234,0.41406 m -0.008,49.89063 0.32422,0.25781 0.008,0.25781 -0.42969,-0.0977 m 29.89844,-131.421876 -1.57031,-0.53125 -2.78907,-1.234375 -1.09765,-0.632813 0.71094,-0.05469 0.625,0.261719 3.3164,-0.574219 1.10156,-0.324219 1.29688,0.0039 0.30859,0.207032 0.3086,-0.207032 0.96484,0.0039 -0.16016,1.058593 0.16407,0.480469 2.02343,0.929688 -0.0156,0.511718 -0.49609,1.019532 -2.90235,-0.570313 -0.5039,-0.265625 m -31.40235,208.257811 0.008,0.1875 m 36.61329,-208.320311 0.0391,-1.605469 0.22265,-0.300781 -0.21875,-0.632812 0.10157,-0.433594 1.92578,-0.0078 0.83594,0.5 0.84375,0.875 v 0.652344 l -0.28516,0.480469 -1.71094,0.894531 -1.60937,-0.0078 M 183.36328,93.75 l -0.008,-0.1875 m -39.625,-39.929687 0.008,0.1875 m -0.64062,0.128906 0.008,0.1875 m -0.64453,0.128906 0.0117,0.1875 m -0.32813,0.128906 0.008,0.1875 m 7.06641,35.714844 -0.1875,0.0078 m 15.20312,212.972655 -0.0195,0.85157 0.74219,0.54687 0.33594,0.0391 h 7.60156 l 0.62891,-0.26562 0.64062,-0.043 0.95313,0.30859 h 1.26562 l 0.96094,-0.26172 0.625,0.26172 h 3.80078 l 0.41406,-0.0937 0.69141,-0.67968 -0.043,-0.65625 -0.42578,-0.14454 -17.43359,-0.004 m 5.6914,-248.117192 0.42969,0.101563 -0.42188,0.105469 m -33.28515,259.00781 0.65234,0.0391 0.62891,0.59375 0.125,0.98828 -0.84766,0.66797 -1.17969,0.50781 -1.0625,-0.73438 v -0.96875 l 0.8125,-1.00781 0.25,0.16016 m 34.24219,10.20703 -9.21094,0.0469 -0.41796,0.42188 v 0.33203 l 0.41796,0.42188 0.32422,0.0391 h 21.23438 l 0.46875,-0.15235 0.27344,-0.30859 -0.10547,-0.47656 -0.3086,-0.27735 -0.32812,-0.043 m -3.32031,-106.03125 -0.59375,0.63281 v 2.23437 l 1.0664,0.73438 1.79688,-0.8086 0.35156,-0.35156 0.81641,-1.78125 0.0781,-0.85547 1.24219,-0.75 1.71484,-0.74609 0.44531,0.10547 -0.53515,35.80859 0.26172,0.65235 0.004,3.16796 -0.0469,0.64063 -0.26563,0.625 v 1.58594 l 0.25,0.63281 -0.20312,0.30859 v 0.33594 l 0.21875,0.29688 0.082,1.16015 0.74219,0.54688 h 0.35156 l 0.74219,-0.54688 0.0312,-0.51562 -0.004,-3.16797 -0.26172,-0.62891 0.25781,-0.95703 -0.58203,-2.83203 0.11328,-0.49219 0.42969,-0.47265 0.0469,-0.64063 v -34.54687 l -0.0469,-0.64454 -0.22265,-0.30078 -0.0117,-0.84765 4.63672,-2.27344 38.51171,-17.54688 1.81641,-0.90234 0.59375,-0.62109 -0.44531,-0.11328 -1.80469,0.80078 -42.85937,19.71484 -0.57032,-0.79297 -0.52734,-1.3789 -0.33203,0.15625 -0.16797,-0.10157 0.15625,1.04688 -0.26563,0.625 -0.0781,1.16406 -1.23438,0.74609 -2.35937,1.06641 -0.97656,-0.004 -0.62891,-0.26562 -0.64062,0.043 m 3.18359,-111.99609 -0.008,-0.19141 m -47.94922,166.5039 0.1875,-0.008 m 85.91406,-140.08984 -2.58203,2.63281 -0.53906,0.84375 -1.9961,2.00781 -0.45312,0.75391 -2.08203,2.09766 -0.45703,0.75781 -2.14063,2.10937 -7.62891,0.0547 -0.62109,0.38281 -0.63281,-0.34765 -0.15235,0.11718 -0.27734,0.3086 -0.0391,0.32422 -0.004,4.7539 0.61719,1.40235 12.53906,-0.0273 0.13672,-0.22656 -12.02734,-0.71094 0.0508,-5.19922 0.74219,-0.15234 6.66406,0.0547 -0.008,0.25781 -1.125,1.28906 -1.53516,0.88672 0.0117,1.16797 0.42187,0.41797 0.32422,0.0391 0.57031,-0.2539 0.78125,-2.03516 1.25,-1.56641 4.52344,-0.55468 -3.38281,-0.58985 1.26172,-1.26953 0.53515,-0.84375 3.58204,-3.59375 0.53906,-0.84375 2.63281,-2.64453 0.45313,-0.75391 2.71484,-2.73047 0.45312,-0.7539 2.71875,-2.73438 0.4961,-0.83593 -0.008,-0.34375 -0.42969,-0.0977 -0.14453,0.10938 -2.63282,2.63281 -0.53515,0.84375 -2.38672,2.39062 m -12.02734,193.01953 -6.03516,0.004 -7.54688,0.57031 -0.16796,0.21094 v 0.33203 l 0.18359,0.21875 2.14453,0.5625 h 13.30859 l 0.41407,-0.0977 0.66406,-0.49218 v -0.71875 l -0.74219,-0.54688 m 7.15625,-161.84765 3.44922,-3.4961 0.53906,-0.84375 2.78516,-2.79687 0.10547,-0.79688 -0.625,-0.11328 -0.58594,0.75 -3.26562,3.27344 -0.53516,0.84765 -3.26953,3.27344 -0.53516,0.84375 -2.86719,2.8711 -0.53515,0.84375 -2.95313,2.96093 -0.53515,0.84375 -1.19141,1.16016 -5.71094,0.043 -0.96093,-0.25781 0.16796,1.05468 -0.008,3.16797 -0.30469,0.95313 0.15235,0.78515 0.30859,0.27735 0.32813,0.0391 8.8789,-0.043 0.13672,-0.22656 -8.85547,-0.71094 0.0469,-4.25 0.42578,-0.14844 4.44531,0.0469 0.0977,0.43359 -0.91016,1.10156 -1.23828,0.63282 0.0273,0.48437 0.42188,0.42188 1.10937,0.0312 0.62891,-1.71875 1.1875,-1.1836 3.25391,-0.55078 -2.11328,-0.58594 0.6289,-0.64062 0.45313,-0.75391 3.58203,-3.59375 0.53515,-0.84375 3.10547,-3.11718 m -9.20703,141.68359 3.19141,-0.0469 0.41797,-0.41796 v -0.96875 l -0.41797,-0.41797 -0.32813,-0.043 H 197.6205 l -0.41406,0.0937 -0.69141,0.67578 0.0273,0.53516 0.74219,0.54687 0.33593,0.0391 m 16.6836,-70.53125 -0.20313,0.48438 -0.88281,0.89453 -1.72266,2.33984 -0.8125,0.83203 -1.41797,2.03516 -6.8789,0.55078 -0.17188,0.80078 0.004,3.80469 0.25,0.63281 -0.20313,0.3086 0.0977,0.43359 10.15234,0.0508 0.74219,-0.14844 -0.0977,-0.43359 -0.32813,-0.0469 -9.03125,-0.0234 -0.59375,-1.38672 -0.0352,-3.1875 0.14454,-0.42969 0.32812,-0.043 4.75781,0.0469 -0.008,0.25781 -0.47266,0.48047 -1.01171,0.70312 -0.84375,0.875 v 0.64844 l 0.7539,0.73047 1.17188,-0.5 0.51562,-0.54687 v -0.64844 l -0.22265,-0.30078 0.004,-0.33594 1.1211,-1.16016 4.52734,-0.55468 -3.69922,-0.58985 0.94141,-0.95312 1.72265,-2.33985 0.8125,-0.82812 0.45313,-0.75391 3.35156,-4 0.45313,-0.75781 0.8125,-0.82813 0.45312,-0.7539 0.81641,-0.83203 1.72265,-2.33985 0.8125,-0.82812 0.45313,-0.75391 0.8164,-0.83203 1.12891,-1.47656 0.0391,-0.32813 -0.14062,-0.42187 -0.52735,-0.0195 -1.3164,1.49218 -1.40235,2.02344 -0.8164,0.82813 -1.71875,2.33984 -0.81641,0.83203 -0.45312,0.75391 -0.8125,0.82812 -0.45703,0.75391 -0.8125,0.83203 -0.45313,0.75391 m -97.97265,-33.48438 0.10156,-0.42578 0.10547,0.41797 m 6.71093,-111.58594 -0.0508,37.42188 -0.35547,-0.10547 -1.40625,-2.33984 -0.49609,-0.51563 -1.26953,-1.90234 -2.03125,-3.59375 -0.89063,-0.53125 -0.75781,0.53906 -0.0312,0.51953 0.043,0.64844 0.74609,1.39844 2.15235,3.4375 3.62109,6.77343 0.5586,0.52735 h 0.33593 l 2.45703,-2.74219 0.45313,-0.75391 2.08203,-2.10156 0.76953,-1.38281 0.5,-0.51563 1.71875,-2.65625 1.3125,-1.35937 0.043,-0.64063 -0.0937,-0.41406 -0.6875,-0.96484 -0.64063,-0.043 -0.46875,0.15234 -0.73046,0.73047 -1.08985,1.70703 -3.63281,4.91016 L 125.5,73.5 l -0.78125,-0.21875 -0.0937,0.08984 0.20703,0.3125 0.043,0.957031 -0.625,4.757813 m -6.60547,120.757816 0.20703,-0.0117 -0.10547,0.42188 m 0.54297,-1.98829 0.41407,-0.11328 0.0898,0.10547 -0.42188,0.10547 m -0.21484,0.20313 -0.1875,0.008 m 81.67187,47.85937 -0.33984,-0.65625 -0.5625,-1.8789 0.55078,-1.82032 0.65625,-0.70703 -0.0977,-0.43359 -0.32813,-0.0391 -0.46875,0.14843 -0.41406,0.41797 -0.81641,1.78125 -0.0391,0.64844 0.58984,2.25 0.58203,1.14063 0.24219,0.20703 h 0.33594 l 0.30469,-0.27344 m -2.52344,-9.48828 -0.64453,0.30469 -0.88281,0.89062 -0.38672,0.70313 -0.51563,1.07031 -0.55078,1.91406 -0.0352,0.96484 1.5,4.67188 0.9375,1.57031 0.5586,0.52735 h 0.33594 l 0.40234,-0.42579 -0.73047,-1.12109 -1.21484,-2.46094 -0.83985,-2.76172 0.0391,-0.96484 0.82812,-2.42969 1.60938,-2.30078 m 3.4414,-60.96094 -0.78906,-4.71093 -0.65234,0.99218 v 2.88672 l 0.89062,2.01563 0.60156,-0.125 m -6.13672,75.57812 0.32032,0.26172 0.15234,-0.0977 0.27344,-0.3086 v -0.33203 l -1.625,-1.67578 -1.57422,-2.53125 -0.23438,-0.63672 -0.59375,-3.6875 -0.0352,-1.91797 1.16015,-3.40234 0.96094,-1.88672 0.63672,-0.95313 1.58203,-1.43359 -0.375,-0.35937 -0.47656,0.10937 -0.68359,0.5 -1.63282,1.82031 -1.28515,2.83594 -0.83985,2.76953 0.0391,1.91797 0.78906,4.28906 1.61328,2.88282 m -74.32812,-53.77344 0.41796,-0.11328 0.0898,0.10547 -0.42578,0.10546 m 79.45703,-19.73437 -0.0898,-0.99219 -0.58984,-2.20312 0.0391,-1.60157 0.59375,-3.6875 0.26953,-0.71093 -0.10547,-0.44141 -0.33203,-0.004 -0.77734,1.23438 -0.60156,3.92578 -0.0352,1.28516 0.53516,2.55078 0.5625,1.70312 0.63281,0.92969 0.47656,-0.10937 0.26563,-0.32422 m 0.86328,-36.85938 -0.48047,0.0977 -0.39844,0.39844 -0.55469,1.82421 0.0352,1.91797 0.52344,1.8086 0.53515,0.5 0.48047,-0.10547 0.25782,-0.32031 -0.32813,-0.39454 -0.55469,-1.82421 0.0391,-1.91797 0.54687,-1.54688 m -4.43359,36.10938 -0.6875,-1.88672 -0.53516,-2.86328 0.625,-5.4375 0.53516,-1.76172 0.6914,-1.34375 -0.10547,-0.4375 -0.47656,0.10547 -0.41406,0.41406 -0.60938,1.19922 -0.60546,2.48828 -0.59375,4.77344 0.0391,0.96875 1.05859,3.91797 1.34375,2.30468 0.24219,0.20703 h 0.33203 l 0.41016,-0.4375 m 0.375,-37.375 0.043,-0.66406 0.82812,-1.80078 0.34766,-0.39453 -0.004,-0.33594 -0.74609,-0.10156 -0.63282,0.92578 -0.52734,1.33984 -0.56641,2.60157 0.86329,4.69922 0.62109,1.22265 0.875,0.84375 0.33203,-0.004 0.10547,-0.75 -0.75,-1.11719 -0.48438,-1.21875 -0.58203,-3.33985 m 0.17188,8.12891 -1.25391,-1.59375 -1.34375,-2.30469 -0.77734,-2.35156 0.0352,-4.13672 1.0625,-2.96875 0.47266,-0.80469 1.21094,-1.27734 -0.40235,-0.42578 -0.34375,-0.004 -0.82421,0.48828 -0.67579,0.99219 -1.44921,4 -0.0391,4.13672 0.5625,1.88672 1.25782,2.78516 0.9375,1.2539 0.875,0.84375 0.47656,-0.10937 m -48.10156,-65.285163 0.1875,-0.0078 m -31.56641,109.355473 0.1875,-0.008 m 1.37891,5.07813 0.43359,-0.11328 0.0937,0.11328 -0.47656,0.69531 m 0.90625,-12.74219 0.20703,-0.0117 -0.10156,0.42187 m -0.72657,12.58984 0.42579,-0.12109 0.99609,0.5 -1.02344,0.043 m 0.53906,-14.05469 0.21094,-0.0156 -0.10547,0.42578 m 0.22266,-0.72266 0.1875,-0.0117 m -0.82031,11.10157 0.1875,-0.008 m 0.1289,-4.74218 0.41407,-0.11329 0.0898,0.10547 -0.42188,0.10157 m -0.39843,5.60937 0.1875,-0.008 m 0.44531,-9.5 0.1875,-0.0117 m 0.11719,-3.16016 0.42968,-0.11328 0.0859,0.10547 -0.41015,0.41406 m -0.0937,3.08203 0.1875,-0.008 m -0.1875,3.17969 0.41796,-0.11719 0.0898,0.10547 -0.42578,0.10547 m -2.84766,-80.06641 0.008,0.1875 m 3.06641,76.92578 0.25,-0.004 0.26562,0.32031 -0.42187,0.10156 m 0.23437,-4.53515 0.1875,-0.008 m 61.30078,42.16407 0.1875,-0.008 m -61.17578,-37.40625 -0.1875,0.008 m 26.94532,-56.41407 0.1875,-0.008 m -0.73829,127.00781 0.008,0.1875 m 61.16406,-59.77343 0.008,0.1875 m 4.23438,141.26562 -4.02735,4.10938 0.10157,0.75 0.64843,0.004 0.15235,-0.11718 0.54297,-0.84766 3.58593,-3.59375 0.53516,-0.84375 3.58203,-3.58984 0.53906,-0.84766 3.89844,-3.91016 0.53906,-0.84375 3.58203,-3.59375 0.53516,-0.84375 3.90234,-3.91015 0.53516,-0.84375 1.89453,-1.89844 17.35938,-0.56641 0.16797,-0.80078 -0.21485,-0.53515 -15.21094,-0.51563 3.07422,-3.07812 0.53907,-0.84375 3.21484,-3.39454 0.52734,0.0156 0.625,0.26562 1.60157,-0.0391 1.18359,-0.85156 0.81641,-1.46484 0.0391,-1.28516 -0.53906,-1.17188 -0.41407,-0.41406 -0.46875,-0.15234 -0.64062,0.0391 -0.39844,0.35156 -1.71094,0.77735 -0.58593,0.57812 -1.21094,1.56641 v 0.96875 l 0.52344,0.625 -0.0977,0.15234 -4.91797,4.92578 -0.53516,0.84766 -1.58203,1.58203 -7.65625,0.81641 v 0.78125 l 0.26953,0.19531 4.97266,0.62109 -0.94141,0.95313 -0.53515,0.84375 -3.90235,3.91015 -0.53515,0.84375 -4.21875,4.22657 -0.53516,0.84375 -3.90234,3.91015 -0.53516,0.84375 -3.96875,3.97657 m -110.3164,-74.48047 0.16797,-0.80078 -0.25,-0.56641 -1.1875,-0.60938 -5.70313,-2.14062 -0.671875,0.6875 0.05469,0.24609 0.734375,0.73047 2.964843,1.40235 0.210937,0.24218 v 0.33594 l -0.429687,0.42578 -0.78125,-1.0625 -0.480468,-0.16015 H 84.785156 l -0.953125,0.30468 -1.597656,-0.0391 1.378906,-1.3125 0.84375,-0.53516 0.699219,-1.02343 -0.363281,-0.52344 -0.640625,-0.043 -1.171875,0.53906 -2.179688,1.52344 -3.851562,1.66016 -0.199219,0.22656 -0.04687,0.64062 0.02344,0.49219 1.820312,1.02735 4.882813,2.05078 1.269531,0.63281 1.34375,1.30078 0.640625,0.0391 0.472656,-0.15234 0.273438,-0.30859 0.04297,-0.95704 -0.152343,-0.47265 -0.414063,-0.41406 -1.65625,-1.01954 -1.820312,-0.89453 -2.042969,-0.75781 -0.414063,-0.39062 0.316407,-0.28516 0.980468,-0.004 0.660157,0.21875 13.976562,0.72266 -2.214844,0.84375 -0.507812,0.53906 0.109375,0.79688 0.625,0.59375 0.640625,0.0391 5.304687,-2.13281 m 21.23047,-77.56641 0.1875,-0.008 m 0.0703,-0.94141 0.14844,-0.42187 0.10938,0.0898 0.0469,0.64063 -0.15625,0.41406 m 67.28906,81.03515 -0.1914,0.008 M 88.125,192.22656 l -0.589844,0.57031 -1.382812,0.76954 -0.835938,0.8164 -1.382812,0.76953 -1.445313,1.11328 -1.503906,0.5586 -1.699219,1.10547 v 0.96484 l 0.1875,0.21875 4.03125,1.13281 1.578125,0.66016 0.660157,-0.008 0.320312,-0.21485 1.78125,0.60547 0.539063,0.57813 0.847656,-0.0156 0.738281,-0.73828 v -0.96484 l -0.84375,-0.57032 -1.0625,-0.38671 -3.691406,-0.75782 -1.304688,-0.59765 0.757813,-0.64063 0.960937,0.26172 h 13.941407 l 1.570317,-0.58594 0.34375,0.008 0.40234,0.42187 -0.18359,0.23828 -2.042974,0.76953 -2.742187,1.32032 0.0078,1.16796 0.421875,0.42188 0.324219,0.0391 1.277344,-0.0391 1.03125,-0.6875 1.574223,-0.63672 2.70312,-0.91016 2.21485,-0.5039 0.5,-0.53516 -0.0508,-0.42187 -0.48438,-0.79688 -3.29687,-1.09375 -1.44141,-0.8125 -2.363284,-0.77344 -1.972657,-1.29296 -0.792968,0.10937 -0.277344,0.30859 v 0.65235 l 2.027344,1.6875 -11.113282,-0.004 0.105469,-0.35547 2.546875,-1.96093 0.01563,-0.52735 -0.753906,-0.53515 m 33.582033,4.76562 0.0117,0.1875 m -41.222649,75.23438 0.429687,0.10156 -0.40625,0.42578 -0.332031,-0.004 0.0078,-0.2539 m 209.746093,30.1914 -2.46484,0.81641 -15.21094,-0.58203 -5.38672,-0.008 -0.96875,0.0469 -0.74219,0.54688 v 0.71875 l 0.74219,0.54687 0.33594,0.0391 h 7.60547 l 0.625,-0.26562 0.64453,-0.0469 10.78125,0.0508 0.0508,0.20313 -0.60547,0.93359 -0.51953,1.48828 0.004,1.9375 1.3125,1.98438 2.05079,3.93359 1.10156,1.4336 0.83594,2.4375 0.0391,1.28515 -0.53125,1.5 -1.35547,2.41797 -23.61328,0.67188 -0.16406,0.48437 0.15234,0.78516 0.30859,0.27734 0.32813,0.043 22.20312,0.008 0.79688,1.30469 0.7539,0.54688 1.6211,0.004 1.80469,-0.52344 0.13671,-0.14843 -0.75781,-0.47266 0.17188,-0.23437 -0.10157,-0.42969 -0.65234,0.21094 -1.00391,-0.5 0.17579,-0.23047 0.043,-0.64063 -0.26562,-0.96875 1.49609,-3.13281 v -2.57422 l -1.14843,-3.0625 -1.75391,-2.40625 -1.40234,-2.65234 -0.9961,-1.35938 -0.043,-0.32812 0.0391,-2.23438 0.61718,-1.13281 0.84766,-0.66797 3.53516,-0.89062 -0.12891,-0.55469 -0.32031,0.1875 -0.17969,-0.29297 m -61.13672,-0.125 -0.59375,0.63281 v 0.33594 l 0.73438,0.73437 0.32421,0.043 h 20.60157 l 0.63672,-0.3164 0.15234,-0.47266 -0.043,-0.64062 -0.42187,-0.41797 -0.32422,-0.043 -20.28516,-0.004 m 62.03125,23.92188 0.1875,0.008"
       id="path2"
       inkscape:connector-curvature="0" />
  </g>
  <flowRoot
     xml:space="preserve"
     id="flowRoot818"
     style="font-style:normal;font-variant:normal;font-weight:normal;font-stretch:normal;font-size:13.33333302px;line-height:1.25;font-family:'Freestyle Script';-inkscape-font-specification:'Freestyle Script, Normal';font-variant-ligatures:normal;font-variant-caps:normal;font-variant-numeric:normal;font-feature-settings:normal;text-align:start;letter-spacing:0px;word-spacing:0px;writing-mode:lr-tb;text-anchor:start;fill:#ffffff;fill-opacity:1;stroke:none"
     transform="matrix(1.8784187,0,0,1.8784187,-122.20175,15.748748)"><flowRegion
       id="flowRegion820"
       style="font-style:normal;font-variant:normal;font-weight:normal;font-stretch:normal;font-size:13.33333302px;font-family:'Freestyle Script';-inkscape-font-specification:'Freestyle Script, Normal';font-variant-ligatures:normal;font-variant-caps:normal;font-variant-numeric:normal;font-feature-settings:normal;text-align:start;writing-mode:lr-tb;text-anchor:start;fill:#ffffff;fill-opacity:1"><rect
         id="rect822"
         width="146.5329"
         height="53.392555"
         x="310.27008"
         y="77.133018"
         style="font-style:normal;font-variant:normal;font-weight:normal;font-stretch:normal;font-size:13.33333302px;font-family:'Freestyle Script';-inkscape-font-specification:'Freestyle Script, Normal';font-variant-ligatures:normal;font-variant-caps:normal;font-variant-numeric:normal;font-feature-settings:normal;text-align:start;writing-mode:lr-tb;text-anchor:start;fill:#ffffff;fill-opacity:1" /></flowRegion><flowPara
       id="flowPara824"
       style="font-style:normal;font-variant:normal;font-weight:normal;font-stretch:normal;font-size:20px;font-family:'Freestyle Script';-inkscape-font-specification:'Freestyle Script, Normal';font-variant-ligatures:normal;font-variant-caps:normal;font-variant-numeric:normal;font-feature-settings:normal;text-align:start;writing-mode:lr-tb;text-anchor:start;fill:#ffffff;fill-opacity:1">Flaschen Speicher</flowPara></flowRoot>  <flowRoot
     xml:space="preserve"
     id="flowRoot818-4"
     style="font-style:normal;font-variant:normal;font-weight:normal;font-stretch:normal;font-size:13.33333302px;line-height:1.25;font-family:'Freestyle Script';-inkscape-font-specification:'Freestyle Script, Normal';font-variant-ligatures:normal;font-variant-caps:normal;font-variant-numeric:normal;font-feature-settings:normal;text-align:start;letter-spacing:0px;word-spacing:0px;writing-mode:lr-tb;text-anchor:start;fill:#ffffff;fill-opacity:1;stroke:none"
     transform="matrix(1.8784187,0,0,1.8784187,-114.79159,152.6515)"><flowRegion
       id="flowRegion820-1"
       style="font-style:normal;font-variant:normal;font-weight:normal;font-stretch:normal;font-size:13.33333302px;font-family:'Freestyle Script';-inkscape-font-specification:'Freestyle Script, Normal';font-variant-ligatures:normal;font-variant-caps:normal;font-variant-numeric:normal;font-feature-settings:normal;text-align:start;writing-mode:lr-tb;text-anchor:start;fill:#ffffff;fill-opacity:1"><rect
         id="rect822-4"
         width="146.5329"
         height="53.392555"
         x="310.27008"
         y="77.133018"
         style="font-style:normal;font-variant:normal;font-weight:normal;font-stretch:normal;font-size:13.33333302px;font-family:'Freestyle Script';-inkscape-font-specification:'Freestyle Script, Normal';font-variant-ligatures:normal;font-variant-caps:normal;font-variant-numeric:normal;font-feature-settings:normal;text-align:start;writing-mode:lr-tb;text-anchor:start;fill:#ffffff;fill-opacity:1" /></flowRegion><flowPara
       style="font-style:normal;font-variant:normal;font-weight:normal;font-stretch:normal;font-size:20px;font-family:'Freestyle Script';-inkscape-font-specification:'Freestyle Script, Normal';font-variant-ligatures:normal;font-variant-caps:normal;font-variant-numeric:normal;font-feature-settings:normal;text-align:start;writing-mode:lr-tb;text-anchor:start;fill:#ffffff;fill-opacity:1"
       id="flowPara850">Sensor Flaschenkopf</flowPara></flowRoot>  <flowRoot
     xml:space="preserve"
     id="flowRoot818-4-0"
     style="font-style:normal;font-variant:normal;font-weight:normal;font-stretch:normal;font-size:13.33333302px;line-height:1.25;font-family:'Freestyle Script';-inkscape-font-specification:'Freestyle Script, Normal';font-variant-ligatures:normal;font-variant-caps:normal;font-variant-numeric:normal;font-feature-settings:normal;text-align:start;letter-spacing:0px;word-spacing:0px;writing-mode:lr-tb;text-anchor:start;fill:#ffffff;fill-opacity:1;stroke:none"
     transform="matrix(1.8784187,0,0,1.8784187,-117.31866,218.39951)"><flowRegion
       id="flowRegion820-1-4"
       style="font-style:normal;font-variant:normal;font-weight:normal;font-stretch:normal;font-size:13.33333302px;font-family:'Freestyle Script';-inkscape-font-specification:'Freestyle Script, Normal';font-variant-ligatures:normal;font-variant-caps:normal;font-variant-numeric:normal;font-feature-settings:normal;text-align:start;writing-mode:lr-tb;text-anchor:start;fill:#ffffff;fill-opacity:1"><rect
         id="rect822-4-9"
         width="146.5329"
         height="53.392555"
         x="310.27008"
         y="77.133018"
         style="font-style:normal;font-variant:normal;font-weight:normal;font-stretch:normal;font-size:13.33333302px;font-family:'Freestyle Script';-inkscape-font-specification:'Freestyle Script, Normal';font-variant-ligatures:normal;font-variant-caps:normal;font-variant-numeric:normal;font-feature-settings:normal;text-align:start;writing-mode:lr-tb;text-anchor:start;fill:#ffffff;fill-opacity:1" /></flowRegion><flowPara
       style="font-style:normal;font-variant:normal;font-weight:normal;font-stretch:normal;font-size:20px;font-family:'Freestyle Script';-inkscape-font-specification:'Freestyle Script, Normal';font-variant-ligatures:normal;font-variant-caps:normal;font-variant-numeric:normal;font-feature-settings:normal;text-align:start;writing-mode:lr-tb;text-anchor:start;fill:#ffffff;fill-opacity:1"
       id="flowPara850-2">Sensor Flasche in Speicher</flowPara></flowRoot>  <flowRoot
     xml:space="preserve"
     id="flowRoot818-4-0-7"
     style="font-style:normal;font-variant:normal;font-weight:normal;font-stretch:normal;font-size:13.33333302px;line-height:1.25;font-family:'Freestyle Script';-inkscape-font-specification:'Freestyle Script, Normal';font-variant-ligatures:normal;font-variant-caps:normal;font-variant-numeric:normal;font-feature-settings:normal;text-align:start;letter-spacing:0px;word-spacing:0px;writing-mode:lr-tb;text-anchor:start;fill:#ffffff;fill-opacity:1;stroke:none"
     transform="matrix(1.8784187,0,0,1.8784187,-96.375452,324.26495)"><flowRegion
       id="flowRegion820-1-4-2"
       style="font-style:normal;font-variant:normal;font-weight:normal;font-stretch:normal;font-size:13.33333302px;font-family:'Freestyle Script';-inkscape-font-specification:'Freestyle Script, Normal';font-variant-ligatures:normal;font-variant-caps:normal;font-variant-numeric:normal;font-feature-settings:normal;text-align:start;writing-mode:lr-tb;text-anchor:start;fill:#ffffff;fill-opacity:1"><rect
         id="rect822-4-9-0"
         width="146.5329"
         height="53.392555"
         x="310.27008"
         y="77.133018"
         style="font-style:normal;font-variant:normal;font-weight:normal;font-stretch:normal;font-size:13.33333302px;font-family:'Freestyle Script';-inkscape-font-specification:'Freestyle Script, Normal';font-variant-ligatures:normal;font-variant-caps:normal;font-variant-numeric:normal;font-feature-settings:normal;text-align:start;writing-mode:lr-tb;text-anchor:start;fill:#ffffff;fill-opacity:1" /></flowRegion><flowPara
       style="font-style:normal;font-variant:normal;font-weight:normal;font-stretch:normal;font-size:20px;font-family:'Freestyle Script';-inkscape-font-specification:'Freestyle Script, Normal';font-variant-ligatures:normal;font-variant-caps:normal;font-variant-numeric:normal;font-feature-settings:normal;text-align:start;writing-mode:lr-tb;text-anchor:start;fill:#ffffff;fill-opacity:1"
       id="flowPara850-2-4">Kammer</flowPara></flowRoot>  <flowRoot
     xml:space="preserve"
     id="flowRoot818-4-0-5"
     style="font-style:normal;font-variant:normal;font-weight:normal;font-stretch:normal;font-size:13.33333302px;line-height:1.25;font-family:'Freestyle Script';-inkscape-font-specification:'Freestyle Script, Normal';font-variant-ligatures:normal;font-variant-caps:normal;font-variant-numeric:normal;font-feature-settings:normal;text-align:start;letter-spacing:0px;word-spacing:0px;writing-mode:lr-tb;text-anchor:start;fill:#ffffff;fill-opacity:1;stroke:none"
     transform="matrix(1.8784187,0,0,1.8784187,-118.66291,392.24171)"><flowRegion
       id="flowRegion820-1-4-4"
       style="font-style:normal;font-variant:normal;font-weight:normal;font-stretch:normal;font-size:13.33333302px;font-family:'Freestyle Script';-inkscape-font-specification:'Freestyle Script, Normal';font-variant-ligatures:normal;font-variant-caps:normal;font-variant-numeric:normal;font-feature-settings:normal;text-align:start;writing-mode:lr-tb;text-anchor:start;fill:#ffffff;fill-opacity:1"><rect
         id="rect822-4-9-4"
         width="146.5329"
         height="53.392555"
         x="310.27008"
         y="77.133018"
         style="font-style:normal;font-variant:normal;font-weight:normal;font-stretch:normal;font-size:13.33333302px;font-family:'Freestyle Script';-inkscape-font-specification:'Freestyle Script, Normal';font-variant-ligatures:normal;font-variant-caps:normal;font-variant-numeric:normal;font-feature-settings:normal;text-align:start;writing-mode:lr-tb;text-anchor:start;fill:#ffffff;fill-opacity:1" /></flowRegion><flowPara
       style="font-style:normal;font-variant:normal;font-weight:normal;font-stretch:normal;font-size:20px;font-family:'Freestyle Script';-inkscape-font-specification:'Freestyle Script, Normal';font-variant-ligatures:normal;font-variant-caps:normal;font-variant-numeric:normal;font-feature-settings:normal;text-align:start;writing-mode:lr-tb;text-anchor:start;fill:#ffffff;fill-opacity:1"
       id="flowPara850-2-5">Sensor Flasche in Kammer</flowPara></flowRoot>  <flowRoot
     xml:space="preserve"
     id="flowRoot818-4-0-5-6"
     style="font-style:normal;font-variant:normal;font-weight:normal;font-stretch:normal;font-size:13.33333302px;line-height:1.25;font-family:'Freestyle Script';-inkscape-font-specification:'Freestyle Script, Normal';font-variant-ligatures:normal;font-variant-caps:normal;font-variant-numeric:normal;font-feature-settings:normal;text-align:start;letter-spacing:0px;word-spacing:0px;writing-mode:lr-tb;text-anchor:start;fill:#ffffff;fill-opacity:1;stroke:none"
     transform="matrix(1.8784187,0,0,1.8784187,-575.90428,61.456445)"><flowRegion
       id="flowRegion820-1-4-4-9"
       style="font-style:normal;font-variant:normal;font-weight:normal;font-stretch:normal;font-size:13.33333302px;font-family:'Freestyle Script';-inkscape-font-specification:'Freestyle Script, Normal';font-variant-ligatures:normal;font-variant-caps:normal;font-variant-numeric:normal;font-feature-settings:normal;text-align:start;writing-mode:lr-tb;text-anchor:start;fill:#ffffff;fill-opacity:1"><rect
         id="rect822-4-9-4-4"
         width="146.5329"
         height="53.392555"
         x="310.27008"
         y="77.133018"
         style="font-style:normal;font-variant:normal;font-weight:normal;font-stretch:normal;font-size:13.33333302px;font-family:'Freestyle Script';-inkscape-font-specification:'Freestyle Script, Normal';font-variant-ligatures:normal;font-variant-caps:normal;font-variant-numeric:normal;font-feature-settings:normal;text-align:start;writing-mode:lr-tb;text-anchor:start;fill:#ffffff;fill-opacity:1" /></flowRegion><flowPara
       style="font-style:normal;font-variant:normal;font-weight:normal;font-stretch:normal;font-size:20px;font-family:'Freestyle Script';-inkscape-font-specification:'Freestyle Script, Normal';font-variant-ligatures:normal;font-variant-caps:normal;font-variant-numeric:normal;font-feature-settings:normal;text-align:start;writing-mode:lr-tb;text-anchor:start;fill:#ffffff;fill-opacity:1"
       id="flowPara850-2-5-9">Flaschentransport</flowPara><flowPara
       style="font-style:normal;font-variant:normal;font-weight:normal;font-stretch:normal;font-size:20px;font-family:'Freestyle Script';-inkscape-font-specification:'Freestyle Script, Normal';font-variant-ligatures:normal;font-variant-caps:normal;font-variant-numeric:normal;font-feature-settings:normal;text-align:start;writing-mode:lr-tb;text-anchor:start;fill:#ffffff;fill-opacity:1"
       id="flowPara1022">im Speicher</flowPara></flowRoot>  <flowRoot
     xml:space="preserve"
     id="flowRoot818-4-0-5-6-7"
     style="font-style:normal;font-variant:normal;font-weight:normal;font-stretch:normal;font-size:13.33333302px;line-height:1.25;font-family:'Freestyle Script';-inkscape-font-specification:'Freestyle Script, Normal';font-variant-ligatures:normal;font-variant-caps:normal;font-variant-numeric:normal;font-feature-settings:normal;text-align:start;letter-spacing:0px;word-spacing:0px;writing-mode:lr-tb;text-anchor:start;fill:#ffffff;fill-opacity:1;stroke:none"
     transform="matrix(1.8784187,0,0,1.8784187,-525.70132,422.17396)"><flowRegion
       id="flowRegion820-1-4-4-9-5"
       style="font-style:normal;font-variant:normal;font-weight:normal;font-stretch:normal;font-size:13.33333302px;font-family:'Freestyle Script';-inkscape-font-specification:'Freestyle Script, Normal';font-variant-ligatures:normal;font-variant-caps:normal;font-variant-numeric:normal;font-feature-settings:normal;text-align:start;writing-mode:lr-tb;text-anchor:start;fill:#ffffff;fill-opacity:1"><rect
         id="rect822-4-9-4-4-9"
         width="146.5329"
         height="53.392555"
         x="310.27008"
         y="77.133018"
         style="font-style:normal;font-variant:normal;font-weight:normal;font-stretch:normal;font-size:13.33333302px;font-family:'Freestyle Script';-inkscape-font-specification:'Freestyle Script, Normal';font-variant-ligatures:normal;font-variant-caps:normal;font-variant-numeric:normal;font-feature-settings:normal;text-align:start;writing-mode:lr-tb;text-anchor:start;fill:#ffffff;fill-opacity:1" /></flowRegion><flowPara
       style="font-style:normal;font-variant:normal;font-weight:normal;font-stretch:normal;font-size:20px;font-family:'Freestyle Script';-inkscape-font-specification:'Freestyle Script, Normal';font-variant-ligatures:normal;font-variant-caps:normal;font-variant-numeric:normal;font-feature-settings:normal;text-align:start;writing-mode:lr-tb;text-anchor:start;fill:#ffffff;fill-opacity:1"
       id="flowPara850-2-5-9-5">Schleuse unten</flowPara></flowRoot>  <flowRoot
     xml:space="preserve"
     id="flowRoot818-4-0-5-6-7-4"
     style="font-style:normal;font-variant:normal;font-weight:normal;font-stretch:normal;font-size:13.33333302px;line-height:1.25;font-family:'Freestyle Script';-inkscape-font-specification:'Freestyle Script, Normal';font-variant-ligatures:normal;font-variant-caps:normal;font-variant-numeric:normal;font-feature-settings:normal;text-align:start;letter-spacing:0px;word-spacing:0px;writing-mode:lr-tb;text-anchor:start;fill:#ffffff;fill-opacity:1;stroke:none"
     transform="matrix(1.8784187,0,0,1.8784187,-308.63712,744.22774)"><flowRegion
       id="flowRegion820-1-4-4-9-5-6"
       style="font-style:normal;font-variant:normal;font-weight:normal;font-stretch:normal;font-size:13.33333302px;font-family:'Freestyle Script';-inkscape-font-specification:'Freestyle Script, Normal';font-variant-ligatures:normal;font-variant-caps:normal;font-variant-numeric:normal;font-feature-settings:normal;text-align:start;writing-mode:lr-tb;text-anchor:start;fill:#ffffff;fill-opacity:1"><rect
         id="rect822-4-9-4-4-9-8"
         width="174.41568"
         height="56.952061"
         x="310.27008"
         y="77.133018"
         style="font-style:normal;font-variant:normal;font-weight:normal;font-stretch:normal;font-size:13.33333302px;font-family:'Freestyle Script';-inkscape-font-specification:'Freestyle Script, Normal';font-variant-ligatures:normal;font-variant-caps:normal;font-variant-numeric:normal;font-feature-settings:normal;text-align:start;writing-mode:lr-tb;text-anchor:start;fill:#ffffff;fill-opacity:1" /></flowRegion><flowPara
       style="font-style:normal;font-variant:normal;font-weight:normal;font-stretch:normal;font-size:20px;font-family:'Freestyle Script';-inkscape-font-specification:'Freestyle Script, Normal';font-variant-ligatures:normal;font-variant-caps:normal;font-variant-numeric:normal;font-feature-settings:normal;text-align:start;writing-mode:lr-tb;text-anchor:start;fill:#ffffff;fill-opacity:1"
       id="flowPara850-2-5-9-5-5">Transportsystem (indirekte Komponenten der Vereinzelung)</flowPara></flowRoot>  <flowRoot
     xml:space="preserve"
     id="flowRoot818-4-0-5-6-9"
     style="font-style:normal;font-variant:normal;font-weight:normal;font-stretch:normal;font-size:13.33333302px;line-height:1.25;font-family:'Freestyle Script';-inkscape-font-specification:'Freestyle Script, Normal';font-variant-ligatures:normal;font-variant-caps:normal;font-variant-numeric:normal;font-feature-settings:normal;text-align:start;letter-spacing:0px;word-spacing:0px;writing-mode:lr-tb;text-anchor:start;fill:#ffffff;fill-opacity:1;stroke:none"
     transform="matrix(1.8784187,0,0,1.8784187,-545.76002,229.38741)"><flowRegion
       id="flowRegion820-1-4-4-9-3"
       style="font-style:normal;font-variant:normal;font-weight:normal;font-stretch:normal;font-size:13.33333302px;font-family:'Freestyle Script';-inkscape-font-specification:'Freestyle Script, Normal';font-variant-ligatures:normal;font-variant-caps:normal;font-variant-numeric:normal;font-feature-settings:normal;text-align:start;writing-mode:lr-tb;text-anchor:start;fill:#ffffff;fill-opacity:1"><rect
         id="rect822-4-9-4-4-93"
         width="146.5329"
         height="53.392555"
         x="310.27008"
         y="77.133018"
         style="font-style:normal;font-variant:normal;font-weight:normal;font-stretch:normal;font-size:13.33333302px;font-family:'Freestyle Script';-inkscape-font-specification:'Freestyle Script, Normal';font-variant-ligatures:normal;font-variant-caps:normal;font-variant-numeric:normal;font-feature-settings:normal;text-align:start;writing-mode:lr-tb;text-anchor:start;fill:#ffffff;fill-opacity:1" /></flowRegion><flowPara
       style="font-style:normal;font-variant:normal;font-weight:normal;font-stretch:normal;font-size:20px;font-family:'Freestyle Script';-inkscape-font-specification:'Freestyle Script, Normal';font-variant-ligatures:normal;font-variant-caps:normal;font-variant-numeric:normal;font-feature-settings:normal;text-align:start;writing-mode:lr-tb;text-anchor:start;fill:#ffffff;fill-opacity:1"
       id="flowPara850-2-5-9-9">Schleuse oben</flowPara></flowRoot>  <g
     inkscape:groupmode="layer"
     id="layer2"
     inkscape:label="Layer 2"
     transform="translate(399.93954,591.70553)" />
</svg>
