<svg version="1.1" xmlns="http://www.w3.org/2000/svg" viewBox="0 0 3337.6666666666656 2010.666666666666" width="3337.6666666666656" height="2010.666666666666">
  <!-- svg-source:excalidraw -->
  
  <defs>
    <style class="style-fonts">
      @font-face {
        font-family: "Virgil";
        src: url("https://excalidraw.com/Virgil.woff2");
      }
      @font-face {
        font-family: "Cascadia";
        src: url("https://excalidraw.com/Cascadia.woff2");
      }
      @font-face {
        font-family: "Assistant";
        src: url("https://excalidraw.com/Assistant-Regular.woff2");
      }
    </style>
    
  </defs>
  <g stroke-linecap="round" transform="translate(43.09523809523762 751.595238095238) rotate(0 273 161.5)"><path d="M32 0 C148.16 1.03, 265.72 2.91, 514 0 M32 0 C202.25 2.92, 371.71 3.32, 514 0 M514 0 C535.91 -3.09, 548.69 9.56, 546 32 M514 0 C533.83 1.57, 548.79 10.99, 546 32 M546 32 C549.64 134.57, 549.29 233.85, 546 291 M546 32 C546.77 117.05, 547.9 202.2, 546 291 M546 291 C542.7 315.98, 535.22 320.08, 514 323 M546 291 C547.45 311.22, 532.74 322.23, 514 323 M514 323 C377.94 322.88, 246.21 322.29, 32 323 M514 323 C414.56 324.13, 315.32 323.08, 32 323 M32 323 C8.92 323.27, -2.61 315.95, 0 291 M32 323 C13.98 327.58, -1.01 315.38, 0 291 M0 291 C0.33 212.15, -1.03 126.4, 0 32 M0 291 C0.06 206.96, -2.73 125.59, 0 32 M0 32 C3.34 9.52, 11.11 -3.09, 32 0 M0 32 C-4.54 9.3, 13.43 -1.24, 32 0" stroke="#1e1e1e" stroke-width="4" fill="none"></path></g><g transform="translate(193.76190476190413 840.2619047619047) rotate(0 124.78599548339844 83.10203260863182)"><text x="0" y="116.47580890425834" font-family="Virgil, Segoe UI Emoji" font-size="132.9632521738109px" fill="#1e1e1e" text-anchor="start" style="white-space: pre;" direction="ltr" dominant-baseline="alphabetic">SPS</text></g><g stroke-linecap="round" transform="translate(529.9999999999993 10) rotate(0 273 161.5)"><path d="M32 0 C145.54 -1.75, 262.16 -0.38, 514 0 M32 0 C140.92 0.85, 250.63 1.79, 514 0 M514 0 C534.91 -3.64, 546.73 13.47, 546 32 M514 0 C534.6 -4.32, 549 11.04, 546 32 M546 32 C548.93 104.33, 550.09 177.36, 546 291 M546 32 C548.64 134.17, 549.2 234.9, 546 291 M546 291 C548.83 314.94, 538 323.91, 514 323 M546 291 C542.22 313.27, 536.72 325.09, 514 323 M514 323 C330.5 320.61, 145.39 319.36, 32 323 M514 323 C407.15 321.53, 299.88 321.19, 32 323 M32 323 C13.96 325.28, -0.5 309.44, 0 291 M32 323 C6.68 321.38, 0.09 311.99, 0 291 M0 291 C4.95 187.79, 4.02 83.19, 0 32 M0 291 C-0.94 235.02, -2.75 178.89, 0 32 M0 32 C0.02 8.2, 10.1 -2.13, 32 0 M0 32 C-4.31 8.65, 12.99 -1.47, 32 0" stroke="#1e1e1e" stroke-width="4" fill="none"></path></g><g transform="translate(705.3133486793147 95.70406521726352) rotate(0 100.04663667224713 71.66666666666669)"><text x="0" y="50.224000000000025" font-family="Virgil, Segoe UI Emoji" font-size="57.33333333333336px" fill="#1e1e1e" text-anchor="start" style="white-space: pre;" direction="ltr" dominant-baseline="alphabetic">MQTT-</text><text x="0" y="121.89066666666673" font-family="Virgil, Segoe UI Emoji" font-size="57.33333333333336px" fill="#1e1e1e" text-anchor="start" style="white-space: pre;" direction="ltr" dominant-baseline="alphabetic">Broker</text></g><g stroke-linecap="round" transform="translate(1327.4999999999998 739.1666666666664) rotate(0 273.0000000000001 161.5)"><path d="M32 0 C214.73 2.62, 395.1 -0.28, 514 0 M32 0 C198.02 0.06, 363.43 0.27, 514 0 M514 0 C535.8 1.2, 548.38 9.31, 546 32 M514 0 C539.82 0.88, 550.44 8.22, 546 32 M546 32 C541.82 110.99, 541.01 190.63, 546 291 M546 32 C542.55 97.41, 540.87 165.52, 546 291 M546 291 C543.46 312.36, 539.05 319.11, 514 323 M546 291 C545.85 307.76, 534.9 318.62, 514 323 M514 323 C408.17 325.45, 299.89 323.97, 32 323 M514 323 C394.41 319.69, 273.5 319.73, 32 323 M32 323 C11.65 323.6, -1.21 310.18, 0 291 M32 323 C12.88 324.47, 3.8 311.24, 0 291 M0 291 C-3.71 204.03, -2.03 122.03, 0 32 M0 291 C3.82 205.43, 1.52 119.47, 0 32 M0 32 C-2.41 13.39, 9.71 -3.8, 32 0 M0 32 C2.87 9.88, 6.56 -2.83, 32 0" stroke="#1e1e1e" stroke-width="4" fill="none"></path></g><g transform="translate(1435.313348679315 844.0373985505968) rotate(0 198.87774658203125 71.66666666666674)"><text x="0" y="50.224000000000025" font-family="Virgil, Segoe UI Emoji" font-size="57.33333333333336px" fill="#1e1e1e" text-anchor="start" style="white-space: pre;" direction="ltr" dominant-baseline="alphabetic">Python-Script </text><text x="0" y="121.89066666666673" font-family="Virgil, Segoe UI Emoji" font-size="57.33333333333336px" fill="#1e1e1e" text-anchor="start" style="white-space: pre;" direction="ltr" dominant-baseline="alphabetic">for ELT</text></g><g stroke-linecap="round" transform="translate(1342.9999999999995 1463.166666666666) rotate(0 292.5 268.7499999999999)"><path d="M32 0 C191.75 -0.46, 348.25 -1.56, 553 0 M32 0 C174.15 -0.14, 316.92 -1.07, 553 0 M553 0 C572.55 -3.92, 583.23 7.32, 585 32 M553 0 C570.3 -3.63, 582.24 13.35, 585 32 M585 32 C583.22 136.92, 585.44 243.04, 585 505.5 M585 32 C583.13 214.77, 583.14 397.39, 585 505.5 M585 505.5 C584.44 528.04, 574.68 540.72, 553 537.5 M585 505.5 C584.31 525.45, 571.21 535.75, 553 537.5 M553 537.5 C416.34 537.32, 277.27 537.62, 32 537.5 M553 537.5 C346.59 535.03, 138.27 535.61, 32 537.5 M32 537.5 C13.5 539.57, 2.05 528.81, 0 505.5 M32 537.5 C13.15 540.78, -4.21 524.17, 0 505.5 M0 505.5 C1.46 377.36, 4.02 250.4, 0 32 M0 505.5 C-3.52 379.85, -3.5 256.26, 0 32 M0 32 C3.33 10.1, 13.06 2.99, 32 0 M0 32 C-4.47 13.24, 13.51 2.62, 32 0" stroke="#1e1e1e" stroke-width="4" fill="none"></path></g><g stroke-linecap="round" transform="translate(1342.9999999999995 1358.1666666666665) rotate(0 291.25 119.99999999999977)"><path d="M152.84 13.57 C171.16 7.41, 198.22 7.4, 222.78 5.24 C247.34 3.08, 274.66 0.38, 300.2 0.59 C325.75 0.8, 352.36 3.54, 376.07 6.47 C399.78 9.4, 421.44 12.73, 442.47 18.19 C463.5 23.64, 484.55 31.75, 502.27 39.2 C519.98 46.65, 536.59 54.04, 548.75 62.89 C560.91 71.74, 569.59 82.46, 575.21 92.32 C580.83 102.17, 582.95 111.77, 582.46 122.04 C581.97 132.3, 579.56 143.76, 572.27 153.93 C564.98 164.09, 552.53 174.45, 538.73 183.02 C524.94 191.58, 507.79 198.54, 489.5 205.31 C471.2 212.08, 450.66 218.61, 428.96 223.62 C407.27 228.63, 383.55 232.91, 359.34 235.36 C335.13 237.8, 309.1 238.47, 283.7 238.31 C258.3 238.14, 231.1 236.87, 206.95 234.37 C182.79 231.86, 160.16 228.62, 138.78 223.26 C117.4 217.89, 96 210.15, 78.67 202.18 C61.34 194.21, 46.39 184.79, 34.82 175.44 C23.25 166.08, 14.91 155.74, 9.24 146.05 C3.57 136.36, 0.61 127.59, 0.82 117.3 C1.04 107.01, 3.22 94.6, 10.54 84.31 C17.86 74.02, 31.09 64.2, 44.74 55.56 C58.39 46.91, 73.08 39.52, 92.47 32.44 C111.86 25.36, 147.66 16.06, 161.08 13.09 C174.5 10.12, 170.84 13, 172.98 14.62 M366.98 5.07 C391.69 5.65, 418.42 9.45, 440.59 15.01 C462.75 20.57, 483.04 30.48, 500 38.41 C516.95 46.35, 530.31 53.81, 542.31 62.61 C554.3 71.42, 565.26 81.79, 571.96 91.26 C578.65 100.73, 582.61 109.02, 582.49 119.42 C582.36 129.83, 577.49 143.39, 571.2 153.7 C564.91 164.01, 557.02 172.22, 544.74 181.3 C532.47 190.39, 515.8 201.39, 497.57 208.2 C479.33 215.02, 457.39 217.4, 435.34 222.21 C413.29 227.03, 389.6 234.52, 365.25 237.07 C340.91 239.63, 314.76 237.82, 289.27 237.52 C263.79 237.22, 236.96 237.18, 212.34 235.28 C187.72 233.37, 163.22 231.37, 141.55 226.09 C119.89 220.82, 99.65 211.91, 82.35 203.64 C65.04 195.37, 49.7 185.09, 37.71 176.45 C25.72 167.82, 16.3 161.79, 10.41 151.8 C4.52 141.82, 2.27 127.36, 2.36 116.55 C2.46 105.74, 4.59 96.46, 10.97 86.96 C17.36 77.46, 27.92 67.9, 40.67 59.57 C53.42 51.23, 69.13 44.45, 87.46 36.96 C105.78 29.47, 128.95 20.65, 150.6 14.63 C172.25 8.61, 193.66 3.7, 217.37 0.85 C241.08 -2.01, 267.95 -2.7, 292.86 -2.5 C317.77 -2.3, 354.62 0.21, 366.83 2.04 C379.03 3.87, 367.34 6.29, 366.1 8.47" stroke="none" stroke-width="0" fill="#ffffff"></path><path d="M424.62 14.19 C447.96 16.87, 468.57 23.36, 486.96 30.14 C505.35 36.93, 521.43 45.89, 534.98 54.9 C548.53 63.91, 560.34 74.26, 568.24 84.22 C576.15 94.19, 581.34 104.81, 582.42 114.69 C583.5 124.58, 579.9 133.57, 574.71 143.54 C569.53 153.5, 562.32 164.81, 551.29 174.48 C540.25 184.14, 525.7 194.14, 508.51 201.53 C491.32 208.93, 469.16 213.69, 448.17 218.87 C427.18 224.05, 406.33 229.32, 382.57 232.6 C358.82 235.88, 331.09 237.64, 305.62 238.55 C280.14 239.46, 253.86 239.87, 229.74 238.04 C205.63 236.21, 183.28 232.16, 160.94 227.57 C138.59 222.98, 114.51 217.31, 95.67 210.51 C76.83 203.7, 61.5 195.78, 47.89 186.74 C34.28 177.7, 21.99 166.58, 14.02 156.25 C6.06 145.91, 1.29 134.91, 0.09 124.71 C-1.11 114.51, 1.35 105.01, 6.83 95.06 C12.31 85.1, 21.35 74.41, 32.97 64.99 C44.59 55.58, 59.66 46.11, 76.57 38.56 C93.48 31.01, 113.92 24.83, 134.43 19.69 C154.94 14.56, 175.85 11.18, 199.62 7.76 C223.4 4.34, 251.48 -0.03, 277.07 -0.82 C302.66 -1.6, 319.55 -2.06, 353.16 3.05 C386.77 8.16, 450.96 21.95, 478.73 29.84 C506.49 37.74, 523.08 49.05, 519.75 50.41 M338.36 4.38 C363.32 4.74, 390.51 9.4, 413.2 13.5 C435.89 17.61, 455.31 22.56, 474.52 29.02 C493.73 35.47, 513.45 43.8, 528.46 52.22 C543.47 60.65, 556.05 70.32, 564.57 79.54 C573.1 88.76, 577 97.29, 579.61 107.55 C582.23 117.81, 583.74 130.95, 580.25 141.1 C576.76 151.25, 568.87 159.74, 558.68 168.44 C548.49 177.13, 535.68 185.36, 519.1 193.29 C502.53 201.22, 479.65 209.95, 459.22 216.01 C438.79 222.06, 419.79 226.13, 396.52 229.61 C373.25 233.1, 344.96 235.1, 319.6 236.92 C294.24 238.73, 269.1 241.7, 244.36 240.51 C219.62 239.33, 194.39 234.4, 171.18 229.82 C147.98 225.24, 124.47 219.32, 105.14 213.01 C85.8 206.7, 69.63 200.11, 55.15 191.96 C40.67 183.82, 26.97 173.89, 18.26 164.15 C9.55 154.4, 5.73 144.14, 2.88 133.47 C0.04 122.8, -2.42 110.48, 1.18 100.15 C4.79 89.82, 14.05 80.57, 24.53 71.51 C35 62.46, 48.08 53.9, 64.02 45.84 C79.96 37.78, 99.58 29.61, 120.16 23.16 C140.73 16.72, 164.11 11.36, 187.5 7.16 C210.89 2.96, 235.7 -0.86, 260.51 -2.02 C285.32 -3.19, 323.94 -0.68, 336.36 0.15 C348.79 0.97, 335.3 0.65, 335.06 2.91" stroke="#1e1e1e" stroke-width="4" fill="none"></path></g><g transform="translate(1476.7040481567374 1723.9999999999995) rotate(0 141.71974182128906 35.83333333333326)"><text x="0" y="50.224000000000025" font-family="Virgil, Segoe UI Emoji" font-size="57.33333333333336px" fill="#1e1e1e" text-anchor="start" style="white-space: pre;" direction="ltr" dominant-baseline="alphabetic">Database</text></g><g stroke-linecap="round" transform="translate(2598.3333333333326 1145.8333333333326) rotate(0 364.6666666666665 201.5)"><path d="M32 0 C206.37 5.05, 383.58 3.09, 697.33 0 M32 0 C200.79 -3.95, 370.02 -4.11, 697.33 0 M697.33 0 C721 1.54, 725.96 13.71, 729.33 32 M697.33 0 C716.58 0.38, 727.7 8.92, 729.33 32 M729.33 32 C732.49 109.53, 732.73 193.39, 729.33 371 M729.33 32 C728.74 154.19, 728.42 277.27, 729.33 371 M729.33 371 C731.01 392.85, 719.82 401.74, 697.33 403 M729.33 371 C726.01 396.35, 717.46 401.81, 697.33 403 M697.33 403 C543.72 403.03, 389.61 400.23, 32 403 M697.33 403 C507.44 401.75, 318.73 403.09, 32 403 M32 403 C14.36 405.74, -3.45 395.06, 0 371 M32 403 C12.05 400.92, 1.48 394.71, 0 371 M0 371 C2.91 246.85, 0.96 120.95, 0 32 M0 371 C-5.75 288.31, -3.92 201.83, 0 32 M0 32 C-3.38 7.48, 9.57 1.18, 32 0 M0 32 C2.95 8.44, 8.15 3.12, 32 0" stroke="#1e1e1e" stroke-width="4" fill="none"></path></g><g transform="translate(2739.4800153459814 1280.7040652172636) rotate(0 245.8596954345703 71.66666666666674)"><text x="0" y="50.224000000000025" font-family="Virgil, Segoe UI Emoji" font-size="57.33333333333336px" fill="#1e1e1e" text-anchor="start" style="white-space: pre;" direction="ltr" dominant-baseline="alphabetic">Python-Notebooks</text><text x="0" y="121.89066666666673" font-family="Virgil, Segoe UI Emoji" font-size="57.33333333333336px" fill="#1e1e1e" text-anchor="start" style="white-space: pre;" direction="ltr" dominant-baseline="alphabetic">for Data Science</text></g><g stroke-linecap="round"><g transform="translate(324.6666666666665 733.9999999999992) rotate(0 210 -186.66666666666663)"><path d="M-2.6 2.26 C67.19 -59.92, 349.58 -310.62, 420.15 -372.97 M1.19 1.02 C70.48 -60.66, 348.29 -306.22, 417.99 -369.15" stroke="#1e1e1e" stroke-width="4" fill="none"></path></g><g transform="translate(324.6666666666665 733.9999999999992) rotate(0 210 -186.66666666666663)"><path d="M407.77 -347.02 C410.56 -354.2, 415.53 -361.13, 418.96 -367.24 M406.73 -348.04 C409.17 -354.1, 413.78 -361.56, 417.26 -369.25" stroke="#1e1e1e" stroke-width="4" fill="none"></path></g><g transform="translate(324.6666666666665 733.9999999999992) rotate(0 210 -186.66666666666663)"><path d="M396.39 -359.78 C403.19 -362.36, 412.16 -364.81, 418.96 -367.24 M395.34 -360.8 C401.36 -362.81, 409.66 -366.14, 417.26 -369.25" stroke="#1e1e1e" stroke-width="4" fill="none"></path></g></g><mask></mask><g stroke-linecap="round"><g transform="translate(1099.2248241912566 169.35520285057476) rotate(0 236.66666666666652 254.9999999999999)"><path d="M1.13 -2 C79.59 83.62, 394.2 426.65, 472.77 511.78 M-1.7 3.08 C76.16 88.09, 391.55 423.04, 470.23 507.73" stroke="#1e1e1e" stroke-width="4" fill="none"></path></g><g transform="translate(1099.2248241912566 169.35520285057476) rotate(0 236.66666666666652 254.9999999999999)"><path d="M446.5 496.02 C457.41 499.98, 463.58 503.25, 469.75 506.87 M447.73 496.44 C453.81 499.44, 462.15 502.88, 469.47 508.12" stroke="#1e1e1e" stroke-width="4" fill="none"></path></g><g transform="translate(1099.2248241912566 169.35520285057476) rotate(0 236.66666666666652 254.9999999999999)"><path d="M458.99 484.34 C465.18 492.7, 466.7 500.31, 469.75 506.87 M460.22 484.75 C462.68 491.32, 467.3 498.24, 469.47 508.12" stroke="#1e1e1e" stroke-width="4" fill="none"></path></g></g><mask></mask><g stroke-linecap="round"><g transform="translate(1611.3333333333326 1087.3333333333321) rotate(0 8.333333333333258 111.66666666666674)"><path d="M2.11 -1.36 C5.02 35.81, 14.49 187.36, 17.33 224.99 M-0.18 4.08 C2.42 40.26, 12.3 184.98, 15.46 220.88" stroke="#1e1e1e" stroke-width="4" fill="none"></path></g><g transform="translate(1611.3333333333326 1087.3333333333321) rotate(0 8.333333333333258 111.66666666666674)"><path d="M4.17 198.59 C9.54 206.58, 12.19 211.87, 13.72 221.43 M4.95 197.49 C8.69 206.21, 12.07 214.36, 15.55 221.72" stroke="#1e1e1e" stroke-width="4" fill="none"></path></g><g transform="translate(1611.3333333333326 1087.3333333333321) rotate(0 8.333333333333258 111.66666666666674)"><path d="M21.22 197.28 C21.55 205.79, 19.15 211.47, 13.72 221.43 M22 196.18 C19.85 205.37, 17.36 213.96, 15.55 221.72" stroke="#1e1e1e" stroke-width="4" fill="none"></path></g></g><mask></mask><g stroke-linecap="round"><g transform="translate(1954.6666666666656 1437.3333333333321) rotate(0 295 -45)"><path d="M-1.77 -1.16 C96.4 -15.56, 489.24 -73.56, 587.88 -88.82 M2.46 -4.26 C101.62 -19.29, 495.49 -78.72, 593.13 -93.19" stroke="#1e1e1e" stroke-width="4" fill="none"></path></g><g transform="translate(1954.6666666666656 1437.3333333333321) rotate(0 295 -45)"><path d="M570.33 -82.77 C577.77 -84.16, 580.65 -85.36, 591.21 -93.98 M570.85 -81.59 C577.99 -84.97, 583.82 -87.83, 593.98 -92.26" stroke="#1e1e1e" stroke-width="4" fill="none"></path></g><g transform="translate(1954.6666666666656 1437.3333333333321) rotate(0 295 -45)"><path d="M567.8 -99.69 C575.75 -96.69, 579.28 -93.53, 591.21 -93.98 M568.32 -98.5 C576.33 -96.76, 582.93 -94.49, 593.98 -92.26" stroke="#1e1e1e" stroke-width="4" fill="none"></path></g></g><mask></mask><g stroke-linecap="round" transform="translate(10 1435.8333333333321) rotate(0 364.6666666666665 201.5)"><path d="M32 0 C278.21 3.5, 523.02 3.69, 697.33 0 M32 0 C184.73 4.98, 337.74 5.19, 697.33 0 M697.33 0 C717.79 -1.82, 732.57 11.64, 729.33 32 M697.33 0 C719.06 -1.51, 729.6 11.33, 729.33 32 M729.33 32 C734.3 105.7, 729.12 180.9, 729.33 371 M729.33 32 C727.68 141.31, 729.11 250.1, 729.33 371 M729.33 371 C728.58 391.57, 721.43 405.67, 697.33 403 M729.33 371 C732.31 394.22, 720.26 406, 697.33 403 M697.33 403 C517.58 405.08, 342.31 404.64, 32 403 M697.33 403 C545.33 405.58, 393.8 405.57, 32 403 M32 403 C6.94 403.65, -1.24 396.22, 0 371 M32 403 C13.36 401.28, -4.45 388.38, 0 371 M0 371 C-2.46 275.16, -1.44 184.98, 0 32 M0 371 C1.14 260.63, 3.17 151.21, 0 32 M0 32 C-2.67 11.8, 14.34 -0.43, 32 0 M0 32 C-0.91 6.77, 7.39 -2.01, 32 0" stroke="#1e1e1e" stroke-width="4" fill="none"></path></g><g transform="translate(167.8133486793156 1604.0373985505967) rotate(0 199.9383544921875 35.83333333333326)"><text x="0" y="50.224000000000025" font-family="Virgil, Segoe UI Emoji" font-size="57.33333333333336px" fill="#1e1e1e" text-anchor="start" style="white-space: pre;" direction="ltr" dominant-baseline="alphabetic">Visualisierung</text></g><g stroke-linecap="round"><g transform="translate(1298.9895250309874 1581.176104153058) rotate(0 -259.9999999999998 36.666666666666515)"><path d="M-0.3 -0.55 C-87.49 10.91, -435.55 59.33, -522.37 71.34 M-3.9 -3.32 C-90.32 9.65, -430.63 61.06, -517.26 73.89" stroke="#1e1e1e" stroke-width="4" fill="none"></path></g><g transform="translate(1298.9895250309874 1581.176104153058) rotate(0 -259.9999999999998 36.666666666666515)"><path d="M-495.69 60.26 C-503.82 64.98, -510.91 67.8, -518.7 73.12 M-495.42 62.83 C-500.93 65.32, -504.82 67.1, -517.64 74.67" stroke="#1e1e1e" stroke-width="4" fill="none"></path></g><g transform="translate(1298.9895250309874 1581.176104153058) rotate(0 -259.9999999999998 36.666666666666515)"><path d="M-493.16 77.17 C-502.27 76.33, -510.2 73.6, -518.7 73.12 M-492.89 79.74 C-499.09 78.24, -503.57 76.03, -517.64 74.67" stroke="#1e1e1e" stroke-width="4" fill="none"></path></g></g><mask></mask></svg>