<?xml version="1.0" encoding="UTF-8" standalone="no"?>
<!-- Created with Inkscape (http://www.inkscape.org/) -->

<svg
   xmlns:dc="http://purl.org/dc/elements/1.1/"
   xmlns:cc="http://creativecommons.org/ns#"
   xmlns:rdf="http://www.w3.org/1999/02/22-rdf-syntax-ns#"
   xmlns:svg="http://www.w3.org/2000/svg"
   xmlns="http://www.w3.org/2000/svg"
   xmlns:sodipodi="http://sodipodi.sourceforge.net/DTD/sodipodi-0.dtd"
   xmlns:inkscape="http://www.inkscape.org/namespaces/inkscape"
   version="1.1"
   id="svg2"
   xml:space="preserve"
   width="593.33331"
   height="792"
   viewBox="0 0 593.33331 792"
   sodipodi:docname="Prellfilter.svg"
   inkscape:version="0.92.4 (5da689c313, 2019-01-14)"><metadata
     id="metadata8"><rdf:RDF><cc:Work
         rdf:about=""><dc:format>image/svg+xml</dc:format><dc:type
           rdf:resource="http://purl.org/dc/dcmitype/StillImage" /><dc:title></dc:title></cc:Work></rdf:RDF></metadata><defs
     id="defs6" /><sodipodi:namedview
     pagecolor="#ffffff"
     bordercolor="#666666"
     borderopacity="1"
     objecttolerance="10"
     gridtolerance="10"
     guidetolerance="10"
     inkscape:pageopacity="0"
     inkscape:pageshadow="2"
     inkscape:window-width="1920"
     inkscape:window-height="1137"
     id="namedview4"
     showgrid="false"
     inkscape:zoom="1.6856283"
     inkscape:cx="232.84371"
     inkscape:cy="558.992"
     inkscape:window-x="-8"
     inkscape:window-y="-8"
     inkscape:window-maximized="1"
     inkscape:current-layer="g44" /><g
     id="g10"
     inkscape:groupmode="layer"
     inkscape:label="Prellfilter"
     transform="matrix(1.3333333,0,0,-1.3333333,0,792)"><g
       id="g12"
       transform="matrix(0.31718062,0,0,-0.31718062,0,594)"><g
         id="g14"><g
           id="g16" /></g><g
         id="g18"><g
           id="g20" /></g><g
         id="g22"
         transform="matrix(3.1527784,0,0,-3.1527784,0,1872.7502)"><g
           id="g24"
           transform="translate(-35.237282,-56.631346)"><g
             id="g26"><path
               d="m 72.95475,547.58044 v 0 l -0.09786,-1.30084 -0.525932,-1.54889 -1.437417,-3.27343 -1.380745,-3.63868 -0.690635,-1.32818 -0.03855,-0.64984 0.15252,-0.47046 0.309456,-0.276 0.3264,-0.0423 1.274941,0.0421 0.626755,0.26526 1.067306,0.005 0.66494,-152.91675 0.49398,-0.1206 0.419663,0.41705 0.04678,0.64218 0.0019,151.52811 4.529312,0.70569 0.172805,0.21203 0.005,0.34223 -2.885231,5.14025 -2.097908,4.96625 -0.07501,0.85297 -0.754585,0.53638 m -0.04623,-165.97944 v 0 l 0.113808,-0.11688 4.364304,-0.56436 230.448623,-0.002 0.77588,-3.7843 0.58154,-0.9342 0.51883,-0.0288 4.5863,2.05252 2.37821,1.37283 0.3349,-0.20453 2.72692,1.23572 0.54651,0.75089 -0.19348,0.56521 -2.35855,0.77155 -4.29456,1.79504 -4.04458,1.47644 -0.64017,-0.0423 -0.42001,-0.42001 -0.0472,-2.97833"
               style="fill:#000000;fill-opacity:1;fill-rule:nonzero;stroke:none"
               id="path28"
               inkscape:connector-curvature="0" /></g></g><g
           id="g30"
           transform="translate(-35.237282,-56.631346)"><g
             id="g32"><path
               d="m 104.94559,508.27454 v 0 l 0.74476,-8.30747 8.28243,-112.14657 0.6952,-6.26069 0.21946,-0.18389 0.54447,0.17318 0.67711,5.57086 8.26926,55.58698 9.06668,62.55814 5.68094,-120.41446 0.28598,-2.04578 0.58817,-0.43817 -0.17424,-0.24082 0.004,-0.33285 0.34373,0.0996 0.29115,0.81759 0.73745,4.65833 0.93194,7.48846 12.38019,106.89054 0.70189,4.72732 0.86665,-8.06628 9.51209,-110.88898 0.73392,-5.63913 0.22204,-0.18759 h 0.33199 l 0.2178,0.18118 0.6104,2.62967 0.68541,4.44858 14.34707,122.7377 0.79334,4.96341 1.41298,-0.0364 0.30043,-0.2232 0.64215,-0.0466 h 116.32123 l 0.64224,0.0468 0.41702,0.41962 3e-5,0.33435 -0.41705,0.41962 -0.64224,0.0468 H 195.084 l -0.64212,-0.0466 -0.62671,-0.26526 -9.5075,-0.005 -0.64223,0.0468 -0.61684,0.5368 -0.47815,-0.10766 -0.57626,-0.63453 0.20656,-0.30883 0.006,-0.97895 -3.26735,-27.28622 -9.86473,-85.79669 -1.36573,-10.80545 0.006,-0.97895 0.22,-0.29947 0.006,-0.345 -0.53555,-1.23816 0.21605,-0.31945 0.0423,-1.59095 -0.3762,-1.57754 -0.72856,6.18344 -10.16146,113.82922 -0.73042,5.15409 0.21024,0.65365 -0.20279,0.33023 0.57898,4.10923 -0.0427,1.59094 -0.41965,0.41705 -0.55892,-0.19275 -0.71418,-4.22821 -14.15317,-124.31723 -0.74605,12.16513 -4.12082,87.75693 -0.66231,12.55603 -0.44311,5.69443 3e-5,5.38391 0.58832,2.8349 0.0364,0.96948 -0.31848,0.63587 -0.47683,0.1073 -0.23232,-0.20069 -0.26736,-0.74963 -0.44062,-2.52179 -17.94059,-124.82074 -0.74784,7.16302 -8.25656,107.80713 -0.73959,6.54575 0.20193,0.32974 -0.18976,0.31702 0.20656,0.30865 0.0419,0.64032 -0.5834,1.25171 0.85933,4.47296 -0.49778,0.68225 -0.40928,-0.23535 -1.07638,-4.62683 -17.493149,-94.67309 -6.022851,-32.32987 -0.709358,-3.20996 0.25956,-0.64734 -0.04176,-0.64096 -0.220062,-0.30008 0.106216,-0.42038 0.541321,0.76792 0.372986,1.31475 0.959648,4.72165 22.216829,118.95999 0.71243,3.39252 m 230.56769,0.63184 v 0 l -0.84757,-0.52848 -0.88177,-0.88949 1.45478,-2.34566 v 0 0 l 0.27126,-0.55635 2.47516,-0.49438 0.90665,1.24996 0.0389,1.91779 -0.15299,0.47083 -0.73291,0.72992 -0.83539,0.49996"
               style="fill:#d90707;fill-opacity:1;fill-rule:nonzero;stroke:none"
               id="path34"
               inkscape:connector-curvature="0"
               sodipodi:nodetypes="cccccccccccccccccccccccccccccccccccccccccccccccccccccccccccccccccccccccccccccccccccccccccccccccccccccccccccccccccccccccccc" /></g></g><g
           id="g36"
           transform="translate(-35.237282,-56.631346)"><g
             id="g38"><path
               d="m 226.71245,518.49103 v 0 l -5.49092,-0.74372 -1.00708,-0.34545 -5.07666,-2.56153 -1.13669,-0.80304 -2.65277,-1.40246 -0.51531,-0.49866 -1.70529,-1.08719 -1.78117,-1.76535 -0.84387,-0.53632 -0.57451,-0.58093 -0.53589,-0.84329 -1.01883,-0.71143 -0.9809,-0.98089 -0.85998,-1.16892 -1.01169,-0.70276 -0.89786,-0.89144 -0.53631,-0.84388 -1.44841,-1.4642 -0.4533,-0.75446 -1.76535,-1.78115 -2.03688,-3.288 -0.81691,-0.83444 -1.40295,-2.33716 -1.13219,-1.46579 -1.71915,-2.96945 -0.49998,-0.51749 -1.57149,-2.52154 -3.00038,-5.51929 -1.76813,-2.73727 -2.68184,-5.83362 -2.08323,-3.97663 -3.69739,-9.41235 -0.31181,-0.009 -1.04905,1.04895 -0.53634,0.84385 -1.04842,1.05786 -0.45331,0.75445 -1.13143,1.14725 -0.45331,0.75446 -1.13149,1.14724 -0.45328,0.75446 -1.44841,1.4642 -0.53631,0.84387 -2.95015,3.27652 -0.45331,0.75446 -1.19978,1.21243 -0.18169,0.35437 -1.25151,1.0755 -0.52696,0.711 -1.11118,-0.47189 -0.41667,-0.73349 -7.92523,-15.8479 -3.5614,-7.81784 -2.38935,2.38015 -0.53634,0.84388 -2.2332,2.23623 -0.53633,0.84387 -1.52538,1.53177 -0.84386,0.53632 -1.11673,1.26575 -0.34417,-0.38309 0.0945,-0.15 0.70244,-1.01959 1.44839,-1.4642 0.45331,-0.75446 2.39928,-2.41507 0.5363,-0.84384 2.70154,-2.70779 0.18181,-0.35428 0.76011,-0.53534 0.16002,0.10278 0.7325,0.7334 0.38592,0.7034 2.53188,5.04889 0.95459,1.60709 7.92006,15.82522 0.56747,0.86832 1.40425,-1.86823 0.81453,-0.83032 0.45328,-0.75442 2.39929,-2.73206 1.40415,-2.02225 1.13148,-1.14727 0.5363,-0.84384 2.31624,-2.64261 0.45328,-0.75446 2.71623,-3.04895 1.16283,-1.93658 0.4986,0.0226 0.24076,0.21078 1.24118,2.44892 1.10247,3.08661 2.21902,5.37961 2.08075,3.96768 2.37917,5.2153 1.25465,2.20495 0.49971,0.51725 1.71942,3.28668 2.85198,4.75366 0.49983,0.51734 2.03624,3.60351 1.1322,1.46576 1.7211,2.65619 0.49756,0.51334 1.40294,2.33715 0.95207,1.26987 1.44841,1.4642 0.54024,0.84461 0.36265,0.18988 1.56581,1.92068 0.76035,0.58435 7.07976,7.07047 1.70532,1.08719 0.51529,0.49865 2.65277,1.40244 1.13669,0.80304 3.88559,1.98431 1.62018,0.64081 3.60174,0.77875 14.57779,0.004 3.1704,-0.62415 0.63293,0.24384 0.30829,-0.20355 h 0.33426 l 0.32164,0.21667 12.66687,-0.89593 45.96414,0.0427 0.41699,0.41962 -3e-5,0.33435 -0.41696,0.41961 -0.32642,0.0423 -42.15347,0.005 -0.64218,-0.0466 -0.62671,-0.26526 -2.5488,7.3e-4 -0.92895,0.89807 -0.32566,0.0421 -0.64108,-0.0417 -0.62674,-0.26526 -3.16629,-4.3e-4 -2.15277,0.32453 -10.19733,0.88788 -0.32998,-0.2024 -0.317,0.18982 -0.31696,-0.18976 -0.31697,0.1897 -0.30832,-0.20355 -0.6425,0.20355 -0.31697,-0.1897 -0.63504,0.24854 -0.95804,-0.0419 -0.30864,-0.20654 -0.3083,0.20349 -0.64254,-0.20349 -0.63392,0.24353 -0.63387,-0.2436 -0.31695,0.18976 -0.31697,-0.18976 -0.63504,0.24854 m -95.54419,-60.04187 v 0 l -0.38285,-0.20068 -0.35284,-0.53809 -1.91666,-4.42633 -5.81974,-14.42328 -6.3398,-15.21448 -0.6781,-1.33621 0.19713,-0.32599 -0.20636,-0.30795 -0.0799,-0.53497 -0.50931,-0.49143 0.17075,-0.26163 -0.50056,-1.00128 -5.31652,9.72034 -1.5786,2.23816 -1.68516,3.3078 0.15633,0.42035 -0.68506,0.65521 -0.31927,-0.27405 -21.872092,-39.63015 -1.063644,-2.03147 -0.07676,-0.54364 -0.44262,-0.58322 0.06609,-0.0932 -0.450188,-0.44721 0.169273,-0.26153 -0.796394,-1.46838 -0.63945,-0.49225 0.168037,-0.25806 -3.907295,-7.13303 -1.050873,-2.04217 0.101273,-0.10098 0.521675,0.27822 0.420952,0.61658 5.32946,9.44141 22.955636,41.95526 0.95008,1.43249 0.56896,-0.86865 2.5319,-5.0488 4.75428,-8.87469 0.74421,-1.11173 -0.20304,-0.64395 0.24525,0.002 0.41602,0.41675 2.22824,4.73208 5.82007,14.10672 8.92583,20.99463"
               style="fill:#0062cc;fill-opacity:1;fill-rule:nonzero;stroke:none"
               id="path40"
               inkscape:connector-curvature="0" /><circle
               style="fill:#0062cc;fill-opacity:1;stroke:#0062cc;stroke-width:1.41732264;stroke-miterlimit:4;stroke-dasharray:none;stroke-dashoffset:0;stroke-opacity:1"
               id="path906"
               transform="scale(1,-1)"
               cx="336.02057"
               cy="-486.62378"
               r="2.9999995" /><circle
               style="fill:#000000;fill-opacity:1;stroke:#000021;stroke-width:1.41732275;stroke-miterlimit:4;stroke-dasharray:none;stroke-dashoffset:0;stroke-opacity:1"
               id="path906-8"
               cx="336.15823"
               cy="-465.81006"
               r="2.9999995"
               transform="scale(1,-1)" /><circle
               style="fill:#d90707;fill-opacity:1;stroke:none;stroke-width:1.41732275;stroke-miterlimit:4;stroke-dasharray:none;stroke-dashoffset:0;stroke-opacity:1"
               id="path906-2"
               cx="336.48428"
               cy="-508.50842"
               r="2.9999995"
               transform="scale(1,-1)" /></g></g><g
           id="g42"><g
             id="g44"><path
               d="m 139.15259,420.58137 v 0 l 0.15899,-0.22726 6.27195,-0.57272 h 46.90896 l 0.64223,0.0468 0.41688,0.41962 -0.0995,0.43423 -0.6426,0.0496 h -52.93104 m -56.509272,-0.46713 v 0 l 0.15844,-0.22696 6.90635,-0.57306 42.154732,3e-5 0.64216,0.0468 0.41692,0.41959 -0.0995,0.43423 -0.64264,0.0496 H 84.094988 m -47.317667,-0.46717 v 0 l 0.157814,-0.22659 7.857826,-0.57343 32.329217,3e-5 0.64218,0.0468 0.41693,0.41961 -0.0995,0.43424 -0.64262,0.0496 H 37.503166 m 164.405914,-0.15021 v 0 l 0.15797,-0.22671 7.54079,-0.57331 51.9802,3e-5 0.64212,0.0468 0.41696,0.41961 -0.0995,0.43421 -0.6427,0.0496 H 202.6349 m -0.72583,-57.83536 v 0 l 0.15764,-0.2265 8.17503,-0.57355 45.64112,3e-5 0.64212,0.0468 0.41699,0.41958 -0.0996,0.43427 -0.64258,0.0496 h -53.56494 m -166.49147,-1.1011 v 0 l 0.159286,-0.22745 5.954659,-0.57254 33.280063,3e-5 0.64218,0.0467 0.41694,0.41962 -0.0995,0.4342 -0.64262,0.0496 H 36.869225 m 49.035513,-0.15036 v 0 l 0.16828,-0.23333 2.77622,-0.56653 39.619092,3e-5 0.64217,0.0467 0.41693,0.41962 -0.0995,0.4342 -0.64268,0.0496 -42.154612,-3e-5 m 53.789852,-0.46716 v 0 l 0.15777,-0.22656 7.85788,-0.57343 44.0564,-3e-5 0.64218,0.0468 0.41693,0.41958 -0.0995,0.43427 -0.64259,0.0496 h -51.66324"
               style="fill:#909090;fill-opacity:1;fill-rule:nonzero;stroke:none"
               id="path46"
               inkscape:connector-curvature="0"
               sodipodi:nodetypes="cccccccccccccccccccccccccccccccccccccccccccccccccccccccccccccccccccccccccccccccc" /><flowRoot
               xml:space="preserve"
               id="flowRoot1030"
               style="fill:black;fill-opacity:1;stroke:none;font-family:sans-serif;font-style:normal;font-weight:normal;font-size:26.66666667px;line-height:1.25;letter-spacing:0px;word-spacing:0px;-inkscape-font-specification:'sans-serif, Normal';font-stretch:normal;font-variant:normal;text-anchor:start;text-align:start;writing-mode:lr;font-variant-ligatures:normal;font-variant-caps:normal;font-variant-numeric:normal;font-feature-settings:normal"><flowRegion
                 id="flowRegion1032"><rect
                   id="rect1034"
                   width="26.399652"
                   height="26.696278"
                   x="16.611017"
                   y="90.481155" /></flowRegion><flowPara
                 id="flowPara1036"></flowPara></flowRoot><flowRoot
               xml:space="preserve"
               id="flowRoot1038"
               style="font-style:normal;font-variant:normal;font-weight:normal;font-stretch:normal;font-size:26.66666603px;line-height:1.25;font-family:sans-serif;-inkscape-font-specification:'sans-serif, Normal';font-variant-ligatures:normal;font-variant-caps:normal;font-variant-numeric:normal;font-feature-settings:normal;text-align:start;letter-spacing:0px;word-spacing:0px;writing-mode:lr-tb;text-anchor:start;fill:#000090;fill-opacity:1;stroke:none"
               transform="matrix(0.74999986,0,0,-0.74999986,29.946116,516.90147)"><flowRegion
                 id="flowRegion1040"
                 style="fill:#000090;fill-opacity:1"><rect
                   id="rect1042"
                   width="79.198959"
                   height="101.14923"
                   x="-32.035534"
                   y="56.665874"
                   style="fill:#000090;fill-opacity:1" /></flowRegion><flowPara
                 id="flowPara1044"
                 style="font-style:normal;font-variant:normal;font-weight:normal;font-stretch:normal;font-size:16px;font-family:sans-serif;-inkscape-font-specification:'sans-serif, Normal';font-variant-ligatures:normal;font-variant-caps:normal;font-variant-numeric:normal;font-feature-settings:normal;text-align:start;writing-mode:lr-tb;text-anchor:start;fill:#909090;fill-opacity:1">24 V</flowPara></flowRoot><flowRoot
               xml:space="preserve"
               id="flowRoot1038-8"
               style="font-style:normal;font-variant:normal;font-weight:normal;font-stretch:normal;font-size:26.66666603px;line-height:1.25;font-family:sans-serif;-inkscape-font-specification:'sans-serif, Normal';font-variant-ligatures:normal;font-variant-caps:normal;font-variant-numeric:normal;font-feature-settings:normal;text-align:start;letter-spacing:0px;word-spacing:0px;writing-mode:lr-tb;text-anchor:start;fill:#000090;fill-opacity:1;stroke:none"
               transform="matrix(0.74999986,0,0,-0.74999986,29.269372,476.41263)"><flowRegion
                 id="flowRegion1040-6"
                 style="fill:#000090;fill-opacity:1"><rect
                   id="rect1042-4"
                   width="79.198959"
                   height="101.14923"
                   x="-32.035534"
                   y="56.665874"
                   style="fill:#000090;fill-opacity:1" /></flowRegion><flowPara
                 id="flowPara1044-0"
                 style="font-style:normal;font-variant:normal;font-weight:normal;font-stretch:normal;font-size:16px;font-family:sans-serif;-inkscape-font-specification:'sans-serif, Normal';font-variant-ligatures:normal;font-variant-caps:normal;font-variant-numeric:normal;font-feature-settings:normal;text-align:start;writing-mode:lr-tb;text-anchor:start;fill:#909090;fill-opacity:1">11 V</flowPara></flowRoot><flowRoot
               xml:space="preserve"
               id="flowRoot1038-8-2"
               style="font-style:normal;font-variant:normal;font-weight:normal;font-stretch:normal;font-size:26.66666603px;line-height:1.25;font-family:sans-serif;-inkscape-font-specification:'sans-serif, Normal';font-variant-ligatures:normal;font-variant-caps:normal;font-variant-numeric:normal;font-feature-settings:normal;text-align:start;letter-spacing:0px;word-spacing:0px;writing-mode:lr-tb;text-anchor:start;fill:#000090;fill-opacity:1;stroke:none"
               transform="matrix(0.74999986,0,0,-0.74999986,35.600666,417.53453)"><flowRegion
                 id="flowRegion1040-6-6"
                 style="fill:#000090;fill-opacity:1"><rect
                   id="rect1042-4-8"
                   width="79.198959"
                   height="101.14923"
                   x="-32.035534"
                   y="56.665874"
                   style="fill:#000090;fill-opacity:1" /></flowRegion><flowPara
                 id="flowPara1044-0-3"
                 style="font-style:normal;font-variant:normal;font-weight:normal;font-stretch:normal;font-size:16px;font-family:sans-serif;-inkscape-font-specification:'sans-serif, Normal';font-variant-ligatures:normal;font-variant-caps:normal;font-variant-numeric:normal;font-feature-settings:normal;text-align:start;writing-mode:lr-tb;text-anchor:start;fill:#909090;fill-opacity:1">5 V</flowPara></flowRoot><flowRoot
               xml:space="preserve"
               id="flowRoot1094"
               style="font-style:normal;font-variant:normal;font-weight:normal;font-stretch:normal;font-size:26.66666603px;line-height:1.25;font-family:sans-serif;-inkscape-font-specification:'sans-serif, Normal';font-variant-ligatures:normal;font-variant-caps:normal;font-variant-numeric:normal;font-feature-settings:normal;text-align:start;letter-spacing:0px;word-spacing:0px;writing-mode:lr-tb;text-anchor:start;fill:#000000;fill-opacity:1;stroke:none"
               transform="matrix(0.74999986,0,0,-0.74999986,-37.461971,543.1528)"><flowRegion
                 id="flowRegion1096"><rect
                   id="rect1098"
                   width="99.6661"
                   height="62.291313"
                   x="438.4122"
                   y="271.12598" /></flowRegion><flowPara
                 id="flowPara1100"
                 style="font-style:normal;font-variant:normal;font-weight:normal;font-stretch:normal;font-size:16px;font-family:sans-serif;-inkscape-font-specification:'sans-serif, Normal';font-variant-ligatures:normal;font-variant-caps:normal;font-variant-numeric:normal;font-feature-settings:normal;text-align:start;writing-mode:lr-tb;text-anchor:start">t / s</flowPara></flowRoot></g></g><g
           id="g48"
           transform="translate(-35.237282,-56.631346)"><g
             id="g50"><path
               d="m 183.83187,470.56142 v 0 l -0.005,-14.90934 -0.26526,-0.6268 -0.0465,-0.64209 v -70.99725 l 0.0468,-0.64218 0.27601,-0.30945 0.79309,-0.11023 0.20946,0.16974 0.57576,102.95047 4.9e-4,39.41971 118.05209,0.66485 0.12058,0.49396 -0.41709,0.41968 -0.64212,0.0468 -114.1026,3.1e-4 -4.49708,-0.57013 0.48378,-0.55188 -0.58222,-3.15674"
               style="fill:#000000;fill-opacity:1;fill-rule:nonzero;stroke:none"
               id="path52"
               inkscape:connector-curvature="0"
               sodipodi:nodetypes="cccccccccccccccccccc" /><flowRoot
               xml:space="preserve"
               id="flowRoot994"
               style="font-style:normal;font-variant:normal;font-weight:normal;font-stretch:normal;font-size:26.66666603px;line-height:1.25;font-family:sans-serif;-inkscape-font-specification:'sans-serif, Normal';font-variant-ligatures:normal;font-variant-caps:normal;font-variant-numeric:normal;font-feature-settings:normal;text-align:start;letter-spacing:0px;word-spacing:0px;writing-mode:lr-tb;text-anchor:start;fill:#000000;fill-opacity:1;stroke:none"
               transform="matrix(0.74999986,0,0,-0.74999986,14.238012,601.34143)"><flowRegion
                 id="flowRegion996"><rect
                   id="rect998"
                   width="47.460049"
                   height="43.900543"
                   x="63.477814"
                   y="264.60022" /></flowRegion><flowPara
                 id="flowPara1000"
                 style="font-style:normal;font-variant:normal;font-weight:normal;font-stretch:normal;font-size:16px;font-family:sans-serif;-inkscape-font-specification:'sans-serif, Normal';font-variant-ligatures:normal;font-variant-caps:normal;font-variant-numeric:normal;font-feature-settings:normal;text-align:start;writing-mode:lr-tb;text-anchor:start">0</flowPara></flowRoot><flowRoot
               xml:space="preserve"
               id="flowRoot994-1"
               style="font-style:normal;font-variant:normal;font-weight:normal;font-stretch:normal;font-size:26.66666603px;line-height:1.25;font-family:sans-serif;-inkscape-font-specification:'sans-serif, Normal';font-variant-ligatures:normal;font-variant-caps:normal;font-variant-numeric:normal;font-feature-settings:normal;text-align:start;letter-spacing:0px;word-spacing:0px;writing-mode:lr-tb;text-anchor:start;fill:#000000;fill-opacity:1;stroke:none"
               transform="matrix(0.74999986,0,0,-0.74999986,13.976678,740.92316)"
               inkscape:transform-center-y="-19.57727"><flowRegion
                 id="flowRegion996-1"><rect
                   id="rect998-7"
                   width="47.460049"
                   height="43.900543"
                   x="63.477814"
                   y="264.60022" /></flowRegion><flowPara
                 style="font-style:normal;font-variant:normal;font-weight:normal;font-stretch:normal;font-size:16px;font-family:sans-serif;-inkscape-font-specification:'sans-serif, Normal';font-variant-ligatures:normal;font-variant-caps:normal;font-variant-numeric:normal;font-feature-settings:normal;text-align:start;writing-mode:lr-tb;text-anchor:start"
                 id="flowPara1026">1</flowPara></flowRoot></g></g><g
           id="g60"
           transform="translate(-35.237282,-56.631346)"><g
             id="g62"><path
               d="m 338.18845,468.95386 v 0 l -0.4758,0.16235 -1.91083,-0.0422 -0.39578,-0.34903 -1.08265,-0.46564 -1.48059,-2.76605 0.003,-0.97635 0.67707,-0.72379 0.56793,-1.05285 0.75046,-0.54636 0.43194,0.0542 2.68585,1.42444 1.13501,2.42035 0.0391,0.33587 -0.0425,1.59131"
               style="fill:#000000;fill-opacity:1;fill-rule:nonzero;stroke:none"
               id="path64"
               inkscape:connector-curvature="0" /></g></g></g></g><flowRoot
       xml:space="preserve"
       id="flowRoot874"
       style="font-style:normal;font-variant:normal;font-weight:normal;font-stretch:normal;font-size:26.66666603px;line-height:1.25;font-family:sans-serif;-inkscape-font-specification:'sans-serif, Normal';font-variant-ligatures:normal;font-variant-caps:normal;font-variant-numeric:normal;font-feature-settings:normal;text-align:start;letter-spacing:0px;word-spacing:0px;writing-mode:lr-tb;text-anchor:start;fill:#000000;fill-opacity:1;stroke:none"
       transform="matrix(0.75000002,0,0,-0.75000002,-40.576545,542.70791)"><flowRegion
         id="flowRegion876"><rect
           id="rect878"
           width="176.7887"
           height="56.358803"
           x="465.70172"
           y="102.6428" /></flowRegion><flowPara
         id="flowPara880"
         style="font-style:normal;font-variant:normal;font-weight:normal;font-stretch:normal;font-size:16px;font-family:sans-serif;-inkscape-font-specification:'sans-serif, Normal';font-variant-ligatures:normal;font-variant-caps:normal;font-variant-numeric:normal;font-feature-settings:normal;text-align:start;writing-mode:lr-tb;text-anchor:start">Signal mech. Schalter</flowPara></flowRoot><flowRoot
       xml:space="preserve"
       id="flowRoot874-7"
       style="font-style:normal;font-variant:normal;font-weight:normal;font-stretch:normal;font-size:26.66666603px;line-height:1.25;font-family:sans-serif;-inkscape-font-specification:'sans-serif, Normal';font-variant-ligatures:normal;font-variant-caps:normal;font-variant-numeric:normal;font-feature-settings:normal;text-align:start;letter-spacing:0px;word-spacing:0px;writing-mode:lr-tb;text-anchor:start;fill:#000000;fill-opacity:1;stroke:none"
       transform="matrix(0.75000002,0,0,-0.75000002,-39.437749,521.59504)"><flowRegion
         id="flowRegion876-3"><rect
           id="rect878-9"
           width="176.7887"
           height="56.358803"
           x="465.70172"
           y="102.6428" /></flowRegion><flowPara
         id="flowPara880-5"
         style="font-style:normal;font-variant:normal;font-weight:normal;font-stretch:normal;font-size:16px;font-family:sans-serif;-inkscape-font-specification:'sans-serif, Normal';font-variant-ligatures:normal;font-variant-caps:normal;font-variant-numeric:normal;font-feature-settings:normal;text-align:start;writing-mode:lr-tb;text-anchor:start">gefiltertes Signal </flowPara></flowRoot><flowRoot
       xml:space="preserve"
       id="flowRoot962"
       style="font-style:normal;font-variant:normal;font-weight:normal;font-stretch:normal;font-size:26.66666603px;line-height:1.25;font-family:sans-serif;-inkscape-font-specification:'sans-serif, Normal';font-variant-ligatures:normal;font-variant-caps:normal;font-variant-numeric:normal;font-feature-settings:normal;text-align:start;letter-spacing:0px;word-spacing:0px;writing-mode:lr-tb;text-anchor:start;fill:#000000;fill-opacity:1;stroke:none"
       transform="matrix(0.75000002,0,0,-0.75000002,0,594.00001)"><flowRegion
         id="flowRegion964"><rect
           id="rect966"
           width="134.37126"
           height="46.866798"
           x="462.73547"
           y="160.18811" /></flowRegion><flowPara
         id="flowPara968" /></flowRoot><flowRoot
       xml:space="preserve"
       id="flowRoot874-7-8"
       style="font-style:normal;font-variant:normal;font-weight:normal;font-stretch:normal;font-size:26.66666603px;line-height:1.25;font-family:sans-serif;-inkscape-font-specification:'sans-serif, Normal';font-variant-ligatures:normal;font-variant-caps:normal;font-variant-numeric:normal;font-feature-settings:normal;text-align:start;letter-spacing:0px;word-spacing:0px;writing-mode:lr-tb;text-anchor:start;fill:#000000;fill-opacity:1;stroke:none"
       transform="matrix(0.75000002,0,0,-0.75000002,-40.022109,501.98848)"><flowRegion
         id="flowRegion876-3-7"><rect
           id="rect878-9-8"
           width="176.7887"
           height="56.358803"
           x="465.70172"
           y="102.6428" /></flowRegion><flowPara
         id="flowPara880-5-6"
         style="font-style:normal;font-variant:normal;font-weight:normal;font-stretch:normal;font-size:16px;font-family:sans-serif;-inkscape-font-specification:'sans-serif, Normal';font-variant-ligatures:normal;font-variant-caps:normal;font-variant-numeric:normal;font-feature-settings:normal;text-align:start;writing-mode:lr-tb;text-anchor:start">binäres Signal</flowPara></flowRoot></g></svg>