<?xml version="1.0" encoding="UTF-8" standalone="no"?>
<!-- Created with Inkscape (http://www.inkscape.org/) -->

<svg
   xmlns:dc="http://purl.org/dc/elements/1.1/"
   xmlns:cc="http://creativecommons.org/ns#"
   xmlns:rdf="http://www.w3.org/1999/02/22-rdf-syntax-ns#"
   xmlns:svg="http://www.w3.org/2000/svg"
   xmlns="http://www.w3.org/2000/svg"
   xmlns:sodipodi="http://sodipodi.sourceforge.net/DTD/sodipodi-0.dtd"
   xmlns:inkscape="http://www.inkscape.org/namespaces/inkscape"
   version="1.1"
   id="svg2"
   xml:space="preserve"
   width="593.33331"
   height="792"
   viewBox="0 0 593.33331 792"
   sodipodi:docname="Schemata_Abfüllmodul.svg"
   inkscape:version="0.92.4 (5da689c313, 2019-01-14)"><metadata
     id="metadata8"><rdf:RDF><cc:Work
         rdf:about=""><dc:format>image/svg+xml</dc:format><dc:type
           rdf:resource="http://purl.org/dc/dcmitype/StillImage" /><dc:title></dc:title></cc:Work></rdf:RDF></metadata><defs
     id="defs6" /><sodipodi:namedview
     pagecolor="#ffffff"
     bordercolor="#666666"
     borderopacity="1"
     objecttolerance="10"
     gridtolerance="10"
     guidetolerance="10"
     inkscape:pageopacity="0"
     inkscape:pageshadow="2"
     inkscape:window-width="1920"
     inkscape:window-height="1137"
     id="namedview4"
     showgrid="false"
     inkscape:zoom="1.6856283"
     inkscape:cx="349.28855"
     inkscape:cy="329.95481"
     inkscape:window-x="-8"
     inkscape:window-y="-8"
     inkscape:window-maximized="1"
     inkscape:current-layer="g10" /><g
     id="g10"
     inkscape:groupmode="layer"
     inkscape:label="Schemata_Abfüllmodul"
     transform="matrix(1.3333333,0,0,-1.3333333,0,792)"><g
       id="g12"
       transform="matrix(0.31718062,0,0,-0.31718062,0,594)"><g
         id="g14"><g
           id="g16" /></g><g
         id="g18"><g
           id="g20" /></g><g
         id="g22"
         transform="matrix(3.1527784,0,0,-3.1527784,0,1872.7502)"><g
           id="g24"><g
             id="g26"><path
               d="m 163.23006,194.81328 v 0 l 0.0472,-10.79726 0.18461,-0.21844 2.46431,-0.56232 0.96863,0.0365 3.06558,0.51459 0.51584,0.85359 0.0391,0.33591 -0.0427,13.63434 -0.18748,0.22053 -1.80599,0.52289 -0.66148,-0.005 -0.62573,-0.26015 -0.95086,0.29736 -0.97055,-0.26405 -1.69526,0.6033 0.88058,2.34549 0.0417,0.65294 -0.0417,1.92105 -0.80244,2.42055 -1.28331,2.53181 -1.58535,2.53701 -0.9698,0.96969 -1.48933,0.82454 -0.64981,-0.004 0.10611,-0.35483 1.70498,-1.08812 0.66393,-0.66392 1.9713,-3.24041 1.3823,-3.29873 0.0381,-2.8692 -0.52842,-1.51067 -1.2785,-2.19653 -0.74759,-0.93286 -1.19435,-1.05826 0.10765,-0.47776 0.32645,-0.26707 0.76802,0.52522 0.74699,0.63355 1.64804,2.20767 0.10619,-0.42033 -0.26215,-0.62632 m 3.52527,52.27616 v 0 l -0.20032,0.49121 -1.1038,1.42354 -1.00048,0.82457 -1.48237,1.65181 -0.76752,0.46125 -0.76811,111.43232 -0.36012,2.20495 -0.21733,0.18326 -0.64098,0.047 -15.23294,-0.0417 -2.59534,-0.82306 0.51067,-0.86099 0.0386,-1.6008 -0.15178,-0.41333 -3.26936,3.19656 -0.84384,0.53635 -3.59348,3.58404 -0.84382,0.53632 -3.59348,3.58405 -0.84384,0.53631 -3.59347,3.58405 -0.84386,0.53631 -3.6595,3.65302 -0.79489,0.11044 -0.4171,-0.41946 -1e-5,-0.33438 3.4359,-3.47715 1.01163,-0.70269 2.95958,-2.95014 0.84386,-0.53631 2.73199,-2.71622 0.75447,-0.45331 2.73201,-2.71622 0.75444,-0.45331 3.36593,-3.35009 0.84387,-0.53635 2.54518,-2.54864 0.15288,-0.4708 -0.55551,-109.58777 -0.76755,-0.4613 -0.81945,-0.80341 -2.03332,-1.09842 -1.68234,-1.67456 -2.14009,-3.41687 -0.62787,-2.0394 -0.55625,-2.94558 0.037,-0.96842 0.85664,-4.15628 0.32547,-0.87645 -0.22562,-0.64454 0.003,-0.65023 0.31682,-0.1779 0.35312,-0.53699 0.70121,-1.63241 1.65744,-2.93308 2.08365,-3.05198 5.2061,-8.35816 1.26853,-1.90326 0.87395,-0.84054 0.4782,0.10771 0.48124,0.41251 0.30845,-0.20354 0.33429,2.6e-4 0.4195,0.41708 1e-5,0.65055 -1.31088,1.67466 -1.7211,2.6561 -0.56555,0.51006 -0.31731,-0.18973 -0.15047,0.095 -1.22547,1.5759 0.10665,0.42092 0.63671,-0.50689 0.0935,0.0936 -1.21182,1.58572 -0.57224,-0.008 0.19947,0.642 -0.4116,0.41166 -0.31897,-0.19009 -0.10279,0.0873 0.1995,0.64203 -0.79692,1.16937 -0.94868,0.80071 0.16043,0.24919 -1.15364,1.57517 0.002,0.33482 0.4318,0.0992 0.96579,-0.64415 1.62884,-0.63704 2.76497,-0.52932 2.55432,-0.0363 0.62637,0.26228 0.96061,-0.26223 0.95806,0.0419 0.30869,0.20656 0.32993,-0.20227 2.94531,0.57564 1.77853,0.91251 0.66304,-0.2184 1.49243,0.50749 0.48465,0.46944 1.49929,0.80859 0.10278,-0.087 -0.0459,-0.42258 -1.64514,-2.92488 -5.81807,-11.54041 -0.0386,-0.64984 0.15256,-0.47052 0.30945,-0.27597 0.96676,1.6e-4 0.62816,0.91479 1.58606,3.1691 6.77921,14.24231 2.34367,2.4893 1.65199,3.56772 0.78627,2.67094 0.004,6.02012 -0.0423,0.65238 m 7.66262,138.81356 v 0 l -0.28312,-0.31455 0.11065,-0.79638 2.46821,-2.48111 0.53631,-0.84384 2.31625,-2.32569 0.53631,-0.84384 2.31625,-2.32565 0.53635,-0.84388 2.31622,-2.32565 0.53633,-0.84384 2.31625,-2.32568 0.5363,-0.84384 2.31626,-2.32566 0.53631,-0.84387 2.31624,-2.32565 0.5363,-0.84384 2.31627,-2.32569 0.53633,-0.84384 2.31624,-2.32565 0.53632,-0.84387 0.69993,-0.7016 0.51021,-105.11811 -1.89511,-1.06881 -1.93369,-1.93284 -0.62181,-0.93885 -0.47743,-1.0954 -0.80578,-1.14079 -0.6082,-1.71317 -0.5248,-2.60069 -0.0368,-1.6024 0.88023,-4.68428 0.94356,-3.47695 10.75162,-17.08981 0.87274,-0.53694 1.8391,0.5157 0.18846,0.2229 0.005,0.34248 -4.93541,7.17424 -0.56553,0.51006 -0.31729,-0.18974 -0.42507,0.40312 0.10648,0.42083 0.32005,-0.18978 0.0933,0.0935 -1.4306,2.12153 -0.94867,0.80066 0.16039,0.24928 -1.77446,2.53635 0.73742,0.10965 0.71398,-0.66629 2.75534,-1.13184 0.32584,0.19701 0.30828,-0.20355 h 0.33431 l 0.3083,0.2035 0.63494,-0.24845 5.70201,-4.8e-4 2.94107,0.61406 1.8063,0.91011 0.3176,-0.21399 0.97636,-0.003 2.83701,1.79481 0.10301,-0.0874 -0.10336,-0.47675 -0.63706,-0.96858 -6.76887,-13.44216 -0.0386,-0.64984 0.15256,-0.47052 0.30942,-0.27594 0.96679,1.5e-4 0.62818,0.91477 1.58604,3.16905 6.41529,13.68935 0.93962,1.25694 1.76797,1.78535 0.32378,0.62079 1.27986,2.85144 0.83461,3.08332 -0.0369,5.08896 -0.56591,2.2604 -0.88611,1.7401 -0.94469,1.26196 -0.88063,0.57375 -1.36449,1.67157 -1.71186,0.77879 -0.50669,0.48901 -1.09897,0.47612 -0.62364,111.43593 -0.71739,0.79648 -0.64217,0.0468 -13.94383,-0.004 -3.26067,-0.64368 -0.23423,-0.29611 -0.0883,-0.4834 0.51858,0.009 0.0471,-1.59024 -0.88217,-6.08402 -1.4224,1.42585 -0.45329,0.75445 -2.08232,2.09812 -0.45329,0.75442 -2.08234,2.09811 -0.45328,0.75446 -2.39927,2.41507 -0.45328,0.75445 -2.08231,2.09812 -0.45331,0.75445 -2.39927,2.41507 -0.53635,0.84385 -1.99927,2.00869 -0.45329,0.75446 -2.39926,2.41507 -0.53632,0.84384 -1.99931,2.00873 -0.45328,0.75445 -2.63191,2.63456 -0.47966,0.108 M 159.9158,139.1745 v 0 l -26.96222,0.0515 0.008,0.25777 5.87064,5.88016 0.61938,0.93325 3.58403,3.59348 0.79736,1.1712 -0.0874,0.10303 -0.64185,-0.26347 -2.78435,-2.79187 -0.53636,-0.84391 -7.83165,-7.83294 -58.577367,-0.56561 -0.384545,0.0893 0.813187,0.6861 0.04211,0.64031 -0.152565,0.4708 -0.626343,0.59262 -1.295799,0.006 -3.764061,-0.8664 -0.653618,0.21021 -0.30867,-0.20653 -1.590927,-0.0423 -4.821179,0.8767 -4.823784,1.17111 -1.350273,0.70897 -1.269779,0.95193 -1.286667,1.28699 -1.352325,2.96408 -0.561921,2.58498 -0.816947,7.06199 1.129528,7.59918 0.566387,2.03342 0.696792,1.67938 0.643307,1.24569 1.132488,1.14918 0.491059,0.7916 2.529884,1.89567 2.525204,1.57363 2.790119,0.83873 0.915077,0.61862 0.967461,1.8e-4 0.299484,-0.22003 0.344978,-0.006 1.567948,0.58489 0.640167,-0.042 0.625648,-0.26032 0.951958,0.30237 2.86541,-6.9e-4 0.732323,-0.58612 0.201179,7.7e-4 0.750275,1.04882 -0.120026,0.49492 -0.6949,0.53324 0.386726,0.0939 271.718307,-0.70759 1.47891,-0.18778 0.33899,0.20978 4.10281,-1.47189 0.3259,0.19705 2.75211,-1.74672 1.14929,-1.13269 0.75445,-0.45326 1.78119,-1.76541 1.10254,-0.80221 1.08502,-2.01835 1.13352,-1.151 0.643,-1.24529 1.29184,-3.51846 0.82205,-4.32993 -0.0372,-4.45477 -1.15612,-4.39902 -0.91813,-2.46798 -0.64541,-1.25418 -0.81546,-0.83208 -1.20175,-2.00385 -1.62061,-1.13618 -0.28021,-0.44908 -1.50324,-1.31699 -3.67852,-2.16078 -2.2453,-0.59583 -1.27402,0.0425 -0.62485,0.26055 -1.57471,-0.57022 -0.64593,0.25799 -1.59793,0.0104 -0.9289,0.89805 -0.64148,0.0469 m -176.70047,54.97768 v 0 l 0.0102,3.31998 3.00293,0.65127 1.26449,-6.1e-4 0.42681,-0.14462 0.0416,-12.81952 -3.31734,-0.61413 -1.40913,0.58836 m -4.31217,-47.85976 v 0 l 178.45642,-3.2e-4 0.51856,-0.0321 0.81582,-0.98114 4.68976,-0.56178 0.6246,0.26062 0.64209,0.0465 0.95911,-0.0465 0.29953,-0.22004 0.34558,-0.007 4.33704,1.15123 1.11795,0.78519 1.0954,0.47743 2.20663,1.57265 1.4642,1.44845 1.37043,0.88392 0.66986,0.85522 0.54678,1.17099 1.05109,1.06155 0.38537,0.70289 1.78293,4.23947 0.6261,2.6046 0.59628,4.3992 3e-5,1.58055 -0.59808,4.05288 -1.19608,3.79572 -1.59655,3.46356 -0.77088,0.60126 -1.44778,2.56827 -4.78735,4.15344 -2.01886,1.08554 -1.13001,0.7971 -5.31064,1.508 -265.83311,-0.70726 0.56469,-0.19601 -0.651817,-0.0428 -2.534592,0.004 -0.953056,0.30743 H 66.402669 l -0.47081,-0.1529 -0.481026,-0.41268 -0.327965,0.19927 -1.246082,-0.52562 -0.319477,0.21609 -1.293312,0.003 -1.01392,-0.66293 -2.747875,-0.81125 -1.826496,-0.92683 -2.854016,-1.90233 -1.260009,-0.94357 -0.491059,-0.79166 -1.131519,-1.14736 -0.960239,-1.57589 -1.284035,-2.8694 -1.464394,-7.50257 3.47e-4,-3.48344 0.302388,-0.95203 -0.260193,-0.6257 -0.0057,-0.66176 1.167229,-6.07333 0.614616,-1.74352 1.573074,-2.84153 1.297848,-1.29787 0.843838,-0.53632 0.730049,-0.72026 2.09988,-0.91224 7.302124,-1.81931 0.978371,0.005 0.319477,0.21605 1.640495,-0.80361 -0.160782,-0.25339 0.0929,-0.0928 0.636314,0.24832 1.583763,0.004 2.736153,-0.25064 59.127984,-0.64102 -8.14825,-8.14996 -0.61935,-0.93326 -7.93837,-7.94139 -0.61931,-0.93321 -11.89372,-11.90027 -0.14775,-0.46971 0.13973,-0.42547 0.80369,0.11599 0.62406,0.93461 4.21798,4.22738 0.53631,0.84384 7.62138,7.62444 0.61936,0.93321 7.93834,7.9414 0.61937,0.93336 6.67049,6.67339 0.58452,0.75133 m 93.89876,60.7297 v 0 l 0.94554,1.55895 0.59581,2.24539 -0.0372,1.28526 -0.74678,2.64011 -1.65632,3.26285 -1.26837,1.90317 -1.29786,1.29779 -1.16131,0.81332 -0.64974,-0.004 0.19399,-0.63225 1.65637,-0.85037 1.89302,-2.84436 1.28641,-2.54007 0.83694,-3.06733 -0.0381,-1.91827 -0.74456,-1.70293 -1.77186,-2.59967 -1.49774,-1.38403 0.4026,-0.42514 0.3436,-0.005 0.83513,0.49809 1.79786,2.14329 m 2.89623,45.97887 v 0 l -0.0417,-1.61795 -0.82915,-2.7435 -2.84126,-5.0607 -1.2881,-1.28857 -1.71225,-0.77922 -2.31204,-1.62725 -0.97836,0.22273 -2.49965,-1.17993 -1.67025,0.0561 1.32738,0.84395 1.20841,1.21469 0.63449,0.95229 1.28032,2.52287 0.84262,2.45078 -0.0372,0.65103 -0.82855,2.42697 -0.65395,0.65518 -0.93226,0.61595 -2.36655,0.79815 -0.39803,0.35023 -2.55223,2e-4 -0.29968,-0.22295 -0.52661,-0.0789 -0.83765,-0.99829 -1.7122,-0.77914 -0.94693,-0.62888 -0.6722,-0.98945 -0.64904,-1.26367 -0.80295,-2.42098 5.8e-4,-1.30565 0.81579,-1.78107 0.63608,-0.95468 0.9809,-0.98088 1.86516,-1.25628 -1.01059,-0.50518 -0.93531,0.53846 -0.98556,-0.22573 -0.59134,0.3062 -1.851,0.52902 -0.49541,0.47975 -1.74037,0.80739 -0.70212,1.00913 -0.88061,0.5737 -1.87111,2.81913 -0.84254,4.02817 2.4e-4,1.94091 0.84009,3.39129 1.56242,2.511 2.2388,2.23952 1.17011,0.54596 0.74267,0.73306 0.95688,0.6377 2.18884,0.92497 3.25409,0.91534 3.00531,0.5537 0.93897,-0.54263 0.33476,-0.0342 0.71378,0.38079 1.48437,0.5169 0.35697,7.4e-4 2.67356,-0.60979 0.89809,-1.84511 0.53645,0.0101 0.22425,0.19229 0.48608,1.24795 0.33276,-0.3118 2.01136,-1.07818 0.60676,-1.09088 0.93441,-0.75988 0.53584,-0.84333 0.80656,-0.82457 0.8273,-3.37423 m 8.92908,140.39711 v 0 l -0.28314,-0.31454 0.1107,-0.79639 1.20036,-1.21331 1.7211,-2.33921 0.81449,-0.83029 0.45329,-0.75449 0.81455,-0.83029 0.45329,-0.75442 1.13147,-1.14728 1.72111,-2.3392 0.8145,-0.83032 0.45328,-0.75443 0.81454,-0.83032 0.45328,-0.75443 1.13146,-1.14728 1.72107,-2.3392 2.08235,-2.41507 0.45326,-0.75445 1.1315,-1.14725 0.5363,-0.84387 0.73151,-0.74091 0.53633,-0.84387 0.73147,-0.74088 4.40436,-5.66418 0.53357,-102.51729 -1.16659,-1.00162 -1.38425,-0.76783 -2.87344,-2.87273 -1.61351,-2.88034 -1.1149,-4.64011 1.17968,-6.00164 -0.22689,-0.64544 1.2e-4,-0.65657 0.3636,0.20827 1.07999,-2.62514 1.90469,-3.17396 8.24026,-12.99455 0.87458,-0.84238 2.05349,0.59251 -0.0276,0.80066 -4.93726,7.1745 -0.56558,0.51006 -0.31726,-0.18973 -0.42511,0.40311 0.10647,0.42088 0.32004,-0.18982 0.0934,0.0935 -1.43061,2.12155 -0.9487,0.80069 0.1604,0.24925 -1.46469,2.21103 0.42813,0.11511 0.96253,-0.64175 1.80591,-0.60628 2.59127,-0.56238 5.72281,-0.0368 2.9411,0.61409 1.79785,0.92076 0.64313,-0.22441 0.65924,-0.003 2.8266,1.80777 0.42105,-0.10663 -0.73108,-1.12213 -7.08401,-14.07576 0.11221,-0.48691 0.48191,-0.48213 0.79489,-0.11049 0.5585,0.52835 1.65503,3.23854 6.71844,14.30817 2.70764,3.04234 0.95047,1.90171 0.88688,2.76613 0.61441,4.75563 -0.62268,3.9916 -0.2406,0.66687 -1.57731,2.21398 -1.44845,1.46431 -0.44626,0.74661 -2.05728,1.12381 -0.31748,0.30885 -0.90915,113.03752 -0.24874,0.62912 -0.82636,0.49179 -0.33588,0.0391 -5.06723,2.1e-4 -11.98526,-0.56955 -0.48648,-0.52673 0.1077,-0.47818 0.42911,-0.47305 0.0427,-1.59092 -0.57007,-8.18075 -0.21847,-0.1557 -1.51605,1.77652 -0.45328,0.75442 -0.81455,0.83032 -0.4533,0.75446 -0.81446,0.83032 -0.45328,0.75443 -0.81456,0.83032 -0.45327,0.75446 -0.81455,0.83029 -0.45328,0.75445 -0.81449,0.83029 -0.45328,0.75446 -0.81456,0.83032 -0.45328,0.75446 -0.8145,0.83029 -0.45329,0.75445 -0.81453,0.83033 -0.45328,0.75442 -0.81454,0.83032 -0.45327,0.75446 -0.81451,0.83029 -0.45329,0.75446 -0.81455,0.83029 -0.45327,0.75445 -0.81449,0.83033 -0.45331,0.75445 -0.81453,0.83029 -0.45327,0.75446 -0.81453,0.83032 -0.45328,0.75443 -0.8145,0.83029 -0.45331,0.75448 -0.81454,0.8303 -0.45329,0.75445 -1.50779,1.47437 M 109.34862,202.70726 v 0 l 0.005,0.46398 5.24436,0.61993 -5.40634,0.036 -0.42678,-0.14463 -0.0448,-0.32705 0.0419,-1.2748 0.26031,-0.62567 -0.24354,-0.63409 0.40345,-0.42815 4.7615,-0.0421 0.44229,0.1644 -5.0318,0.81323 m 115.68216,-8.41725 v 0 l 0.0249,-10.01225 1.06594,-0.5766 0.65236,-0.0425 2.53461,0.005 0.63499,0.24843 0.30761,-0.20332 0.34506,-0.006 1.15091,0.50035 0.52987,0.86454 0.0391,0.33603 -0.0427,13.31768 -0.55404,0.42742 -5.90567,0.62407 -0.73583,-0.7338 m -80.19195,4.40668 v 0 l -0.67328,1.92593 0.0392,3.81862 1.13273,2.10135 1.53279,1.16312 -0.64781,0.0412 -0.47085,-0.1526 -1.36509,-1.36882 -0.81565,-1.46733 -0.0434,-3.82068 0.0417,-0.65297 0.52614,-1.54894 0.92526,-1.81817 1.50893,-1.47628 0.43416,0.0996 0.003,0.6508 -1.62779,1.67479 m 1.42055,31.21025 v 0 l -0.84573,0.53745 -0.57485,0.58133 -0.62181,0.9389 -0.51312,1.16299 -5.8e-4,1.62256 0.52644,1.54892 0.60819,1.18448 0.97071,0.97136 1.16208,0.51225 1.62053,-0.001 0.93367,-0.53899 0.84517,0.48545 0.47981,0.66021 1.51038,-0.4974 1.18507,-0.60829 0.8452,-0.87522 0.005,-2.24563 -1.14706,-2.74756 -0.62178,-0.93909 -1.61672,-1.61578 -2.10066,-1.13082 -1.89563,0.5281 m -0.10918,10.75878 v 0 l -1.6351,-0.70846 -1.06408,-0.73833 -1.24297,-2.13702 -0.564,-1.88709 0.0392,-2.55078 0.81571,-1.46733 1.935,-1.93506 1.38386,-0.76866 0.19542,-0.25137 -0.0872,-0.10481 -1.92883,-0.01 -4.0116,1.14606 -0.49334,0.47619 -1.17011,0.54599 -0.82635,1.00202 -1.65278,1.48411 -0.38543,0.70282 -0.91016,2.15393 -0.7903,3.36246 -0.0367,0.65135 0.87648,4.36301 1.6473,2.60339 2.16758,2.16043 1.38421,0.76786 0.8387,0.8198 2.03495,0.78421 1.65496,0.96688 0.33773,-0.20777 3.45527,1.17139 0.64467,-0.22366 0.97695,0.22162 0.91564,-0.54284 0.35233,2e-4 0.63974,0.33235 1.88036,0.56798 3.57591,-0.60562 1.72983,-0.58501 0.25366,-0.40358 1.89458,-1.10444 0.53587,-0.84334 0.76654,-0.597 0.99954,-1.18574 0.55837,-1.08233 0.61404,-2.94038 -0.0376,-3.82048 -1.06627,-2.66481 -1.20131,-1.85295 -1.40245,-2.6528 -0.9839,-0.98387 -3.77512,-2.1939 -2.59285,-0.71507 -1.43857,-0.75942 -1.67025,0.056 1.23619,0.75981 1.21658,1.20946 1.33873,1.97932 1.464,3.69841 v 1.62198 l -0.49032,1.17317 -0.68358,1.28341 -1.56627,0.93235 -2.42776,0.82936 -2.88005,-0.005 -0.50948,-0.29347 m 7.977,140.91272 v 0 l -0.60102,-0.93811 -0.0342,-0.33475 0.26051,-0.62497 0.0425,-1.27389 -0.6252,-6.66031 -0.01,-1.59693 -0.77789,-0.72171 -0.31757,0.21387 -1.27615,0.0464 -0.64209,-0.0465 -0.30044,-0.22321 -1.39746,-0.0446 -0.90825,11.67916 -0.56401,-0.002 -0.4193,-0.41946 -2.4e-4,-0.65036 0.21987,-0.29941 0.008,-0.34635 -0.29086,-1.84729 -0.5676,-7.31066 0.21728,-0.32184 -0.20359,-0.64261 0.18974,-0.31699 -0.19725,-0.32605 0.72868,-1.05298 7.62712,-0.0412 0.44686,0.38906 0.92483,7.35016 -0.22519,0.97956 0.26229,0.62637 -2e-5,4.11813 -0.15285,0.47043 -0.30944,0.27597 -0.64081,0.042 m -1.58339,-30.4577 v 0 l -1.88503,-0.55682 -0.6511,-0.0369 -3.67977,0.6211 -0.74133,0.28234 -0.65114,0.0374 -0.41304,-0.15085 0.9063,-0.63941 1.24951,-0.49664 3.32945,-0.60473 0.65129,0.0367 2.26042,0.56589 1.04206,0.51345 0.59674,0.61985 -0.42318,0.42788 -0.42192,-0.0489 m -0.85505,4.49942 v 0 l -1.24927,-0.55432 -0.65241,-0.0423 -3.18817,0.0423 -1.16209,0.51227 -5.06529,5.06162 -0.55873,3.10073 0.15651,0.41932 0.5108,-0.20243 16.43608,-0.73144 -0.23962,-2.12442 -0.74956,-108.13572 -5.18712,0.94523 -2.52681,-0.89188 -0.32793,0.19919 -0.94246,-0.84006 -0.65037,-1.8e-4 -0.62679,0.26504 -0.96835,-0.0377 -3.89551,-1.212 -0.67659,107.27368 0.15177,0.41336 0.15223,-0.0955 1.53234,-1.51639 0.84332,-0.53586 1.05839,-1.36587 0.94013,-0.62238 2.11259,-0.82946 3.52426,-6.1e-4 1.54162,0.53179 0.65071,0.37513 0.15561,0.47729 -0.13935,0.42322 M 146.04372,202.17329 v 0 l 0.61621,-0.93701 0.66577,-0.66489 2.69395,-1.21104 2.59427,-0.59027 2.7531,0.85158 0.66734,0.98459 0.81575,1.781 0.0381,3.18614 -0.84128,2.7471 -0.9657,1.59401 -0.66556,0.66474 -1.14006,0.58508 -2.24873,0.58685 -0.65087,-0.0373 -1.40185,-0.57122 -1.33144,-0.88002 -0.98283,-0.98204 -0.61598,-0.93208 -0.51953,-1.48618 -0.0375,-3.18666 m 80.96085,-6.87043 v 0 l 2.86729,0.0588 0.95299,0.307 0.7415,-0.14447 0.0382,-12.82663 -2.68453,-0.6483 -1.59099,0.0427 -0.42001,0.41994 -0.0468,12.05256 m 37.40684,0.62709 v 0 l -1.04913,1.05783 -1.24222,2.45205 -0.52615,1.54896 -0.0375,2.55272 0.58698,2.24895 0.90191,1.77334 1.03452,1.35865 1.21148,0.96084 -0.42025,0.41863 -0.84372,-0.48751 -1.61588,-1.61671 -1.20315,-2.37404 -0.60282,-2.59911 0.0372,-1.60217 0.51145,-1.88646 1.18832,-2.67865 0.47019,-0.79486 1.42492,-1.38789 0.9581,-0.0421 0.42673,0.14474 -0.10684,0.73786 -0.31006,-0.20394 -0.33429,2.8e-4 m -0.15604,5.4864 v 0 l -0.30584,0.96221 0.0377,2.87004 0.51315,1.16304 0.62176,0.93883 0.66397,0.66387 0.75409,0.45423 0.19336,0.25009 -0.0872,0.10478 -0.6586,0.008 -0.83545,-0.49988 -1.30728,-1.92052 -0.49163,-1.16218 -0.0382,-2.86913 0.86615,-3.08175 1.25778,-1.89328 0.72998,-0.73287 0.4697,-0.1478 0.42303,0.13936 -0.10541,0.47867 -1.5173,1.53041 -0.6218,0.93889 -0.51309,1.16296 m 11.3758,183.22626 v 0 l -0.36814,-0.19049 -0.54703,-0.75302 -0.0387,-0.64972 0.26498,-0.62686 0.0425,-1.2739 -0.60171,-6.52362 -0.36701,-2.1846 -1.40295,-0.005 -0.63495,0.24848 -0.63507,-0.24848 -1.70514,-0.002 -0.88132,11.31986 -0.26556,-0.16498 -0.31653,0.18939 -0.42526,-0.40314 0.22464,-0.97958 -0.31061,-2.22101 -0.55624,-6.93048 0.21161,-0.65396 -0.20337,-0.30765 -0.006,-0.34567 0.51779,-1.4848 0.22388,-0.19159 1.90902,0.26919 0.64206,-0.0465 0.6257,-0.26031 0.62558,0.26031 0.9592,0.0465 0.64206,-0.0465 0.30054,-0.2232 0.95794,-0.0421 1.17377,0.35273 0.23685,0.35257 0.92569,7.03515 -0.26523,0.97092 0.30234,0.95196 3e-5,3.80118 -0.15289,0.4708 -0.48218,0.48193 -0.48038,0.10864 m -8.23883,-131.80121 v 0 l 3.17331,0.58484 0.9389,-0.54258 0.6594,0.003 0.38919,0.34318 1.82324,0.55571 3.59091,-0.6221 3.37125,-1.58468 0.5744,-0.58078 0.45328,-0.75443 0.76657,-0.59703 1.31839,-1.50535 0.81537,-1.78061 0.0381,-5.7217 -0.55609,-1.82319 -0.32678,-0.39733 0.18982,-0.31734 -1.29517,-1.68418 -1.40246,-2.65278 -0.56674,-0.57562 -0.73411,-0.72526 -2.01837,-1.08503 -0.51733,-0.49984 -1.80133,-1.11269 -0.3089,0.20648 -0.66061,0.004 -2.49994,-1.18151 -1.67026,0.0561 1.85388,1.19151 1.3158,1.50107 0.62185,0.93908 0.93857,2.14895 0.56351,1.887 -0.0393,2.23388 -1.12677,1.77855 -1.60281,0.97052 -2.12247,0.8349 -2.88675,7e-5 -0.83542,-0.49995 -0.58963,-0.73992 -1.95599,-0.85545 -0.60599,-0.42001 -0.68249,-0.86869 -0.92569,-1.81865 -0.52619,-1.54892 6.4e-4,-2.25647 0.5131,-1.16299 0.62182,-0.93889 1.29785,-1.29779 1.70499,-1.08809 0.19327,-0.25018 -0.0872,-0.10477 -1.59137,-0.0466 -0.62631,0.26228 -0.65115,-0.21046 -2.45221,0.82549 -1.11182,0.78085 -1.09445,0.47659 -0.78195,1.08248 -0.7916,0.49098 -0.94791,1.05964 -0.9665,1.8055 -0.83648,3.06938 -0.0371,3.82091 0.86695,2.76593 0.79158,1.1257 0.47666,1.09451 2.22635,2.22637 1.17004,0.54599 0.74484,0.73424 1.56366,0.9315 m -115.77382,97.56178 v 0 l 0.42414,-0.4209 1.18187,-0.60702 2.52349,-0.88211 3.50383,0.0374 1.48502,0.51853 0.8228,0.85705 -0.0996,0.43412 -0.32578,0.04 -1.88306,-0.89828 -3.18617,-0.0381 -3.71592,1.18299 -0.3976,0.34713 -0.43177,-0.0991 m 1.04253,14.77594 v 0 l 0.83577,-0.34979 3.63603,-0.60483 1.90996,0.54236 1.46909,0.6041 0.23579,0.55352 -0.13893,0.42307 -0.34395,0.007 -1.26697,-0.65384 -1.54896,-0.5264 -2.5549,-0.0417 -0.65239,0.0423 -1.16208,0.51224 -0.39533,0.34591 -0.33481,-0.002 -0.0992,-0.43177 m -0.68379,-157.52981 v 0 l 0.0426,0.66337 0.81645,1.46866 1.50954,1.16237 0.65038,3.5e-4 0.30877,-0.20642 0.63503,0.24855 1.91775,-0.0389 1.13398,-0.61444 1.01084,-1.50014 0.80648,-2.10198 -0.001,-3.52221 -0.81566,-1.46729 -0.33061,-0.33224 -1.48497,-0.5185 -0.65091,-0.0373 -3.06801,0.83711 -1.27145,0.65171 -0.66987,0.67118 -0.81443,2.09502 0.005,0.66121 0.26517,0.62678 m 70.06369,178.44996 v 0 l -0.39211,-0.38987 -0.91717,-10.63968 -0.29707,-1.1639 -1.42559,0.0304 -0.30005,0.22022 -0.96055,-0.26227 -1.58248,1.5e-4 -0.4268,0.14465 -0.045,2.22641 0.26532,0.62674 0.0425,1.2739 -0.63601,6.82321 -0.53497,0.53561 -0.67627,-0.69195 0.26218,-1.27432 -0.57872,-4.42618 0.21974,-0.32196 0.0464,-0.95923 -0.0466,-0.64212 -0.26526,-0.62674 v -3.80121 l 0.15288,-0.47079 0.64823,-0.58985 7.84468,0.5228 0.5751,3.71249 0.59509,7.59839 -0.56212,2.46445 -0.54232,0.22204 M 206.1894,211.74969 v 0 l -0.47875,-0.14926 -0.68314,-0.501 -1.31688,-1.50304 -0.92525,-1.81815 -0.52614,-1.54893 -0.0416,-0.65309 0.0422,-3.50507 0.80536,-2.11362 0.64556,-1.25422 0.8155,-0.83216 0.45326,-0.75442 1.18224,-0.84512 0.48648,0.11216 0.28717,0.4896 -1.06222,0.61134 -0.85784,0.97701 -0.73666,1.25044 -1.06798,2.35899 -0.0423,3.82207 0.0423,0.65243 1.45081,3.05074 1.29893,1.2998 0.94747,0.70427 m 1.80001,35.648 v 0 l 0.50566,0.68312 0.99257,0.81006 0.51787,-2.89954 -0.2191,-0.32178 3.8e-4,-0.65042 0.41991,-0.4199 h 0.6504 l 1.1926,1.16232 0.76784,1.38423 1.13537,1.4334 0.65189,-1.40062 0.45911,-1.49849 0.65287,-1.094 0.84551,0.013 0.41997,0.41995 0.003,0.97632 -1.01926,2.30319 -0.8398,3.12166 -0.2561,0.38184 -0.7358,0.007 -0.68283,-0.85977 -1.40339,-2.33764 -0.47301,-0.47528 -0.78679,3.11927 -0.24922,0.22146 h -0.649 l -0.69455,-0.96374 -2.08234,-2.0981 -2.08127,-2.74602 0.003,-1.28502 0.74985,-0.10217 0.22957,0.19847 0.77951,1.71182 m 8.17757,107.67029 v 0 l -1.56794,-0.55475 -1.60182,-0.0376 -3.67964,0.62136 -0.74107,0.28064 -0.44867,-0.11465 0.59379,-0.62152 0.99823,-0.49433 3.27736,-0.62234 1.60213,0.0372 2.3222,0.73984 0.82048,0.48416 0.11354,0.48675 -0.0974,0.0993 -0.6509,0.003 -0.30018,-0.22299 m -0.32218,5.03033 v 0 l -0.66111,-0.38269 -1.54172,-0.53225 -1.91889,-0.0375 -2.7472,0.84128 -1.04946,0.6889 -0.43179,-0.0992 0.11348,-0.48688 1.04523,-0.72379 3.04791,-1.13198 3.33778,0.54141 1.31935,0.3905 0.53606,0.759 -0.4104,0.43412 m 49.5278,-111.98537 v 0 l -0.18802,-0.008 m 0.41983,0.22641 v 0 l -0.008,0.18795 m 6.9754,106.19564 v 0 l -0.63617,-0.26654 -1.89929,6e-5 -0.63498,0.2485 -0.63299,-0.24383 -3.15168,0.89706 -0.44879,-0.11481 0.59387,-0.62152 0.99823,-0.49435 3.27732,-0.62232 2.23575,0.0376 2.01135,0.74216 0.91644,0.64285 -0.40213,0.4245 m -8.09836,-106.92776 v 0 l 0.60846,0.46327 0.65766,-4.24808 0.16006,-0.1228 h 0.64838 l 0.24063,0.20943 0.95273,1.26974 0.76782,1.38422 0.98709,1.17987 0.46787,-0.83623 0.75027,-2.35477 0.41971,-0.73396 0.80206,-0.1183 0.73929,1.04417 -0.0536,0.43047 -0.60687,0.93425 -0.61402,1.7955 -0.5401,1.90926 -0.0741,0.85389 -0.75116,0.53553 -0.89139,-0.83422 -1.40295,-2.33716 -0.70032,-0.81234 -0.65067,3.23607 -0.48364,0.16481 -0.51764,-0.0271 -1.12811,-1.60484 -1.05612,-0.74919 -0.53589,-0.84334 -1.13144,-1.14725 -1.13379,-1.78638 0.11392,-0.80336 0.30878,-0.2754 0.53387,-0.0112 0.82227,1.61939 m 9.27982,114.20266 v 0 l -2.05011,-0.76318 -2.23581,-0.0375 -2.74723,0.84128 -1.0495,0.68888 -0.42089,-0.10666 0.82727,-0.88434 0.94131,-0.62311 2.76596,-0.86688 1.91916,0.0371 1.90695,0.55862 0.6008,0.34397 0.43659,0.47384 -0.004,0.64914 -0.11331,0.0952 m -0.52307,4.63784 v 0 l -0.0944,0.43998 -0.96906,0.003 -0.96646,-0.64697 -1.54141,-0.53028 -0.97022,0.26371 -0.64657,-0.25547 -2.26801,0.56571 -0.55481,0.2876 -0.44702,-0.11332 -9.5e-4,-0.20202 1.08191,-0.65415 1.54837,-0.52746 3.18698,-0.0374 2.13306,0.86719 M 112.059,236.79633 v 0 l -1.74807,0.0161 -0.60071,1.70704 -0.0352,0.46619 3.01979,0.4906 -3.17353,0.43944 -0.16973,-0.74211 0.004,-1.90064 0.15282,-0.4704 0.30945,-0.27601 0.64221,-0.0468 3.81098,0.0512 -3e-5,0.21396 -0.3256,0.0464 m 23.61883,-30.56915 v 0 l 0.0372,-2.88336 1.15354,-3.70456 0.93165,-1.56413 1.31787,-1.49276 0.39975,3e-5 0.54679,0.74135 -0.008,0.34246 -0.6214,-0.12417 -1.37503,1.54955 -0.55198,1.12643 -0.84208,2.80893 -0.0375,4.13755 0.84295,2.45065 0.96288,1.88847 1.92987,2.00351 -0.73741,0.10961 -2.14331,-2.11312 -0.97191,-1.91304 m 10.63824,32.43364 v 0 l 0.18799,0.008 m 56.15631,-35.80688 v 0 l -0.26338,-0.63596 -0.0422,-0.63986 0.87274,-4.07921 0.61612,-1.21112 1.63382,-1.81028 0.52687,0.0176 0.099,0.43367 -1.62586,1.676 -0.65725,1.28494 -0.83155,3.68848 0.0369,0.65115 0.81375,2.41002 0.63206,0.9511 1.32047,0.85319 -8.2e-4,0.2029 -0.44739,0.1136 -0.83516,-0.49811 -0.66399,-0.66392 -1.13382,-1.78633 m -92.10435,44.51451 v 0 l -3.50781,0.0515 0.12436,1.07735 -0.60313,1.69479 -0.25478,-0.14157 0.519,-3.08901 0.21508,-0.17964 6.03796,0.003 0.0973,0.43465 -0.0973,0.0994 m 31.58598,91.42279 v 0 l 0.8415,-0.51307 2.40918,-0.80358 2.86977,-0.0375 2.74718,0.84128 0.73263,0.41516 0.42044,0.48236 -0.40307,0.42535 -0.33443,3e-5 -0.38895,-0.34033 -2.43629,-0.83484 -2.55211,-0.0382 -3.44925,0.88138 -0.6559,0.33631 -0.34302,-0.007 -0.10655,-0.30572 m 56.69119,-56.54782 v 0 l 0.005,3.49908 0.26527,0.62674 0.0469,0.95911 -3.4e-4,57.36828 -0.0466,0.64212 -0.26525,0.62674 -8e-5,3.80057 0.0939,0.38675 0.6943,-0.86093 2.95029,-2.94244 0.74693,-0.44623 0.49019,-0.63886 0.34424,0.38309 -2.06477,2.75436 -1.44843,1.46421 -0.53633,0.84387 -1.22798,1.26828 0.003,9.20874 0.74257,0.14929 9.82557,3e-5 0.64214,-0.0466 0.62671,-0.26526 3.80237,-0.004 0.6421,0.0464 0.31047,0.20694 0.14681,-0.41159 -0.24161,-0.68441 -0.74017,-108.82264 -1.08773,0.0417 -1.54589,0.54837 -0.35447,-0.002 -0.9239,-0.53223 -0.33481,0.20444 -2.12953,-0.82117 -0.3889,-0.34309 -1.28452,-3.2e-4 -0.3204,0.21717 -4.11435,-1.14102 -3.15724,-1.28518 -0.11339,0.0951 m 3.48463,89.70543 v 0 l 0.21038,-0.25104 1.81833,-0.92456 2.83505,-0.87622 0.63313,0.24377 0.30875,-0.20642 0.66127,-0.005 2.80903,0.84225 1.19199,0.60987 0.20821,0.24109 -0.0992,0.43347 -0.96808,0.003 -0.38478,-0.33982 -3.09412,-0.87137 -0.6244,0.25754 -0.65436,-0.21405 -2.75696,0.78409 -1.65121,0.702 -0.44115,-0.1048 m 0.31174,4.74795 v 0 l 0.21362,-0.25149 1.25273,-0.64557 2.45108,-0.84338 4.13697,0.0381 1.1621,0.51227 0.81591,0.87143 -0.40314,0.42535 -0.33441,3e-5 -1.24185,-0.85714 -4.13553,-0.0392 -2.74716,0.84125 -1.05986,0.67584 m 0.95285,14.59934 v 0 l 0.39259,-0.3432 1.80615,-0.52237 2.87032,-0.0371 2.43704,1.17248 0.20839,0.24128 -0.002,0.33407 -0.75716,0.10556 -1.55054,-0.8634 -0.33584,-0.0391 -3.79985,-3e-5 -1.58721,0.61948 -0.41154,-0.14697 0.40404,-0.43305 m -1.9023,-142.03798 v 0 l 0.1141,-0.48263 -0.10383,-0.0882 -0.42675,0.40341 0.10645,0.42076 m 56.89461,80.71382 v 0 l 0.0462,49.47333 1.31189,-1.3812 1.72104,-2.3392 1.1315,-1.14728 0.45328,-0.75445 0.66406,-0.66397 0.74692,-0.44629 0.4902,-0.6388 0.35169,0.39197 -1.15564,1.88602 0.0951,0.11114 0.95938,-0.25802 4.77026,0.0389 1.09223,0.74923 0.26684,0.30771 v 0.33435 l -0.42535,0.40314 -1.2507,-0.8436 -4.45246,-0.0392 -2.44924,0.8667 -1.60495,1.92111 -0.45328,0.75446 -0.81458,0.83032 -0.45331,0.75442 -0.79428,0.80847 -0.55935,2.14435 0.0454,10.78314 1.05722,0.14527 15.68902,-0.66748 -0.23852,-1.74182 -0.75079,-108.83603 -2.03864,0.0417 -1.54642,0.54987 h -0.67212 l -3.38702,-1.15254 -0.38892,-0.34308 -0.96753,-3.4e-4 -0.30859,0.20656 -0.31699,-0.18973 -0.32782,0.19918 -3.82305,-1.17305 -1.21991,-0.62888 -0.44291,0.10408 m -5.39254,-46.87483 v 0 l -0.0411,-5.09444 0.88126,-2.83616 1.00885,-1.91138 1.42511,-1.38774 0.65091,0.003 0.1445,0.42679 -0.0417,0.64737 -0.4119,-0.24213 -1.21725,1.27841 -0.9354,1.85068 -0.83389,4.05145 -0.0367,1.28546 0.57318,2.6044 0.53046,1.35138 0.70227,1.33438 1.20096,1.21439 0.74945,0.90016 -0.003,0.20368 -0.43878,0.1089 -1.16077,-0.8104 -0.98199,-0.98286 -1.24222,-2.45222 m 7.98224,135.36254 v 0 l 1.45184,-0.86465 2.49884,-0.84348 0.96945,-0.0426 1.60389,0.042 2.42111,0.80298 1.26275,0.64939 0.19474,0.2496 -0.40305,0.42749 -0.65048,3e-5 -0.38992,-0.34348 -3.09028,-0.87234 -0.64007,0.042 -0.30869,0.20657 -0.30764,-0.20336 -0.34574,-0.006 -2.74936,0.79361 -1.65115,0.70202 -0.4296,-0.11114 m -0.20608,-112.058 v 0 l -1.39816,2.37401 -0.0345,0.33377 0.86063,3.39586 0.97583,1.29318 2.1181,0.85344 0.96613,-0.0392 0.91626,-0.54476 0.34353,0.005 0.69205,0.67793 -0.39182,0.52634 0.32453,0.26674 0.39721,-0.32663 1.96131,-0.71326 1.37124,-0.73291 0.50699,-1.47247 -6.1e-4,-0.67159 -0.80478,-2.1132 -0.96334,-1.88898 -0.63453,-0.95232 -0.98269,-0.98185 -2.41703,-1.1339 -0.67099,-3e-5 -1.78073,0.81535 m -1.21051,-29.21556 v 0 l 0.54233,-1.17914 1.61905,-1.61737 2.08774,-0.90655 1.91067,-0.54375 0.9683,-0.0371 2.4331,0.85196 0.97574,1.29129 0.86755,2.45006 -0.0371,1.28531 -1.15396,4.02139 -1.04873,1.55148 -1.68946,0.94761 -2.24676,0.58229 -1.82233,-0.55234 -1.97183,-1.33251 -1.1788,-1.77487 -0.56928,-1.87977 3.4e-4,-2.21553 m -119.51064,18.70517 v 0 l 0.28218,-0.31293 -0.10695,-0.42238 -0.42686,0.4035 0.10786,0.42177 m 63.15926,10.44829 v 0 l -0.60324,0.4138 -1.00003,1.18621 -0.81568,1.46737 -0.001,2.25437 0.82861,2.11172 0.42211,0.6091 2.33307,1.17995 0.988,-5e-5 1.23043,-0.54707 0.3448,0.008 0.17255,0.30647 0.75222,0.54785 0.33588,0.0389 0.64917,-0.0388 2.09438,-1.12593 0.5389,-0.87339 0.001,-1.62052 -1.38234,-3.29881 -1.13413,-1.64179 -1.17529,-0.99194 -1.79526,-0.81966 -0.98501,4e-5 m -62.57393,20.4065 v 0 l -1.68196,-1.68983 -0.53629,-0.84381 -0.73271,-0.743 -0.81558,-1.46742 0.003,-0.65919 0.41951,-0.41713 0.5765,0.21106 0.77935,1.71165 2.68174,2.68341 0.56218,-2.59817 -0.042,-0.64005 -0.20656,-0.30882 0.71977,-0.74449 0.52653,-0.0148 0.99901,1.17459 1.96973,2.84816 0.23793,-0.1834 1.10825,-3.30745 0.5465,-0.51465 0.34346,-0.005 0.7426,0.54616 -0.0112,1.16846 -0.95505,2.17416 -0.82886,3.11496 -0.54937,0.49381 -0.5179,-0.27675 -0.68262,-0.86876 -1.40343,-2.33763 -0.47216,-0.47512 -0.82036,3.34621 -0.86551,-0.005 m 50.62771,-21.67087 v 0 l 0.18801,0.008 m 68.9926,152.22726 v 0 l 0.008,-0.18799 M 139.39418,230.30684 v 0 l -0.18801,-0.008 m 60.15828,-25.02393 v 0 l 0.042,-3.20243 0.84199,-2.80904 1.24329,-2.45982 1.5177,-1.46285 0.42767,0.40293 0.0148,0.5265 -1.64299,1.48412 -0.60928,1.19224 -0.84232,2.80893 -0.0375,4.45465 0.56368,1.88701 1.24222,2.45204 1.92988,2.00354 -0.42965,0.11124 -0.83519,-0.49806 -1.61592,-1.61672 -0.96283,-1.88847 -0.8049,-2.11309 m 9.71624,34.2206 v 0 l -0.41523,-0.11368 -0.0893,0.10532 0.42236,0.10521 M 139.0773,229.99029 v 0 l -0.18799,-0.008 m 6.96588,-10.14354 v 0 l 0.25182,0.004 0.2764,-0.30973 -0.10663,-0.42094 -0.42758,0.40512 m 118.75308,0.0213 v 0 l -0.10159,-0.42713 -0.42786,0.40426 0.004,0.33348 0.25476,-0.008 m -148.7866,35.02284 v 0 l -5.08386,-0.005 -0.41394,-0.15337 0.41393,-0.15336 h 5.38591 l 0.41392,0.15336 -0.0882,0.10686 m 91.11597,-50.48842 v 0 l 0.0436,-2.24954 0.81566,-1.46736 0.98416,-0.98413 1.57315,-0.93894 2.42777,-0.8293 2.25644,6.3e-4 1.7747,0.80917 0.67635,0.99356 0.81578,1.78104 -5e-5,3.20667 -1.05859,2.96286 -1.06606,1.71252 -2.40993,1.12709 -2.87953,-0.005 -1.7931,-1.12923 -0.98291,-0.98207 -0.62183,-0.93886 -0.51312,-1.16296 m -6.44829,23.12729 v 0 l -0.41518,-0.11366 -0.0893,0.10534 0.42237,0.10512 m 63.9225,-10.57164 v 0 l 0.18796,0.008 M 144.3806,198.43927 v 0 l -1.20644,1.21403 -1.243,2.13703 -0.52647,1.54896 -0.0375,3.50365 0.56369,1.88712 0.92524,1.81814 2.26694,2.11891 -0.10661,0.30542 -0.42314,-0.0471 -1.38036,-0.75256 -0.63705,-0.74911 -1.31827,-2.15058 -0.84128,-2.74716 0.0375,-2.86978 1.06305,-2.97109 1.02334,-1.6658 1.36391,-1.36682 0.47082,-0.15251 0.64106,0.0419 0.41687,0.41968 -0.10646,0.42076 -0.31012,-0.20383 -0.33413,3.2e-4 m 113.38515,30.5288 v 0 l 0.18796,0.008 m -50.18269,-10.36911 v 0 l 0.11364,-0.41522 -0.10533,-0.0893 -0.10518,0.42235 m -6.95971,10.12588 v 0 l 0.188,0.008 m 6.46799,19.00865 v 0 l 0.188,0.008 m -67.06476,-20.29334 v 0 l 0.18799,0.008 M 266.39324,216.7607 v 0 l 0.008,-0.18796 m -6.88235,10.24525 v 0 l -0.18796,-0.008 M 149.3526,241.70131 v 0 l 0.18798,0.008 m 58.765,-24.09675 v 0 l 0.18798,0.008 m -67.38173,9.18315 v 0 l 0.188,0.008 m 125.32483,-10.46784 v 0 l 0.18796,0.008 M 145.9651,240.98053 v 0 l -0.008,0.18796 m 114.01199,-15.31651 v 0 l 0.18796,0.008 m 0.53107,-0.86032 v 0 l 0.008,-0.18795 m 2.75052,10.54243 v 0 l 0.0996,0.42644 0.10538,-0.42125 m 0.21951,-15.29862 v 0 l -0.43207,0.40104 0.10651,0.42079 0.42685,-0.40346 m -60.6375,4.33673 v 0 l -0.11366,0.41522 0.10536,0.0893 0.10513,-0.42238 m 0.20471,-0.21524 v 0 l 0.008,-0.18796 m -64.11779,4.52631 v 0 l 0.18796,0.008 m 3.39929,-5.54846 v 0 l -0.11411,0.48262 0.10386,0.0883 0.42677,-0.4034 -0.1065,-0.42079 m 0.95753,15.534 v 0 l -0.11366,0.41517 0.10535,0.0893 0.10516,-0.42234 m 63.37705,-20.26839 v 0 l -0.18798,-0.008 m 55.88626,14.80618 v 0 l -0.008,0.18796 m 1.89633,-15.53449 v 0 l 0.008,-0.18796 m 1.89328,30.61532 v 0 l 0.008,-0.18801 m -8.56613,-20.41385 v 0 l 0.008,-0.188 m 3.17493,-4.75037 v 0 l -0.008,0.18796 M 144.06414,237.4939 v 0 l -0.15623,0.40636 0.14775,0.41514 0.14813,-0.41258 m 0.79576,9.60039 v 0 l 0.008,-0.18796 m 0.32235,0.32083 v 0 l -0.008,0.18796 m -0.62627,-25.67714 v 0 l -0.007,-0.24086 0.3194,-0.26262 -0.001,0.24463 m 5.38132,20.54395 v 0 l 0.008,-0.18796 m 0.62549,0.18796 v 0 l 0.008,-0.18796 m 114.74181,4.44118 v 0 l -0.008,0.18795 m -58.94452,-0.50489 v 0 l -0.008,0.18795 m 2.86093,-45.90226 v 0 l -0.87831,0.88639 -0.55037,1.49956 0.0371,2.23619 0.52333,1.80712 0.60533,0.91998 1.83168,1.15916 0.31735,-0.21106 0.33428,8e-5 0.62639,0.26231 1.60083,-0.0389 1.46038,-0.80894 1.00139,-1.62259 0.80644,-2.10197 v -2.88979 l -0.81532,-1.78061 -0.33861,-0.34009 -1.16203,-0.51217 -1.91837,-0.0381 -2.43954,0.84454 m 52.52286,21.08652 v 0 l -0.43207,0.40099 0.10657,0.42073 0.42685,-0.4034 m -50.91257,19.6353 v 0 l 0.18799,0.008 M 261.631,367.63803 v 0 l 0.7439,-0.10276 -0.73703,-0.10675 m -58.64159,-0.10958 v 0 l 0.42647,-0.0995 -0.42126,-0.10538 m 58.31979,-0.12048 v 0 l 0.009,-0.18799 m -58.32911,-0.12927 v 0 l 0.16659,-0.72583 -0.005,-1.90043 -0.15335,-0.41391 -0.15816,0.72971 0.005,1.90039 m 17.89426,0.41007 v 0 l 0.16653,-0.72583 -0.15803,-1.04654 -0.15816,0.7297 M 206.80619,239.2621 v 0 l 0.008,-0.18796 m 54.50716,-15.02571 v 0 l 0.009,-0.18796 m 4.11194,15.40163 v 0 l 0.008,-0.18796 m 0.31812,0.31008 v 0 l -0.0124,0.20807 0.42246,-0.10512 m -58.72338,-20.69382 v 0 l -0.11366,0.41522 0.10533,0.0893 0.10516,-0.42238 m 3.70502,35.4162 v 0 l -0.008,0.18796 m 58.34552,-55.80526 v 0 l -1.50583,0.62419 -1.30343,1.30166 -0.49994,0.83545 -10e-4,3.83917 0.51227,1.16202 1.28665,1.28677 0.84357,0.48749 0.64297,-0.25103 0.95194,0.30237 1.60083,-0.0389 1.13394,-0.61441 0.98849,-1.17332 1.14676,-3.6957 -4.3e-4,-1.30654 -0.81442,-2.09488 -0.65701,-0.65909 -1.16199,-0.51222 -0.65252,-0.042 -0.65342,0.0411 m -5.78988,19.11969 v 0 l 0.10159,0.42724 0.42789,-0.40432 -0.004,-0.33355 -0.2547,0.008 m -60.28465,4.75674 v 0 l -0.2518,-0.004 -0.27643,0.3098 0.10666,0.42094 0.42757,-0.40517 m 1.46884,24.80719 v 0 l 0.008,-0.188 m 56.73972,-9.82158 v 0 l -0.008,0.18796 M 141.51402,226.26723 v 0 l 0.008,-0.188 m 60.86014,0.32083 v 0 l -0.009,0.18799 m 0.64237,-1.13886 v 0 l -0.008,0.18801 m 10.05189,3.70057 v 0 l 0.18799,0.008 m -73.00171,-1.17728 v 0 l 0.008,-0.18795 m 6.97834,-10.13858 v 0 l -0.008,0.18795 m 59.26455,2.53237 v 0 l 0.43204,-0.40106 -0.10653,-0.42072 -0.42685,0.40338 m 2.33381,-2.93582 v 0 l -0.008,0.18796 m -66.86828,8.36973 v 0 l -0.008,0.18796 m 66.23148,14.58437 v 0 l 0.42648,-0.0995 -0.42128,-0.10543 m -63.0726,-0.12044 v 0 l 0.008,-0.18801 m 115.99582,-15.34266 v 0 l 0.008,-0.18796 m 6.34442,15.5345 v 0 l -0.008,0.18796 m -63.3973,-15.85169 v 0 l 0.1137,-0.41522 -0.10536,-0.0893 -0.10514,0.42238 m 1.69852,10.35792 v 0 l -0.11368,0.41522 0.10532,0.0893 0.10519,-0.42238 m 1.48641,-15.29605 v 0 l -0.008,0.18796 m 54.5087,4.11622 v 0 l 0.11371,-0.41517 -0.10538,-0.0893 m -188.524,-54.97655 v 0 l -0.715934,0.0404 -5.357651,-0.62218 -0.547195,-0.20207 -0.662865,-0.65944 -0.500008,-0.83548 -0.076,-0.85165 -1.00882,-0.84848 -0.536281,-0.84377 -0.733868,-0.74493 -0.328548,-0.63794 -1.438878,-5.57946 0.002,-0.98745 0.534149,-0.92462 -0.206711,-0.33684 0.492546,-1.16977 0.986519,-1.29474 3.128304,-1.54884 3.758079,-0.52929 3.271843,0.59112 2.942536,1.17408 2.223297,1.27106 1.300506,0.98355 0.767823,1.38423 0.487487,0.50452 1.146225,2.7467 0.0013,1.30603 -0.527794,2.44625 -0.619735,1.25039 -0.652779,0.65287 -0.746582,0.44601 -0.528923,0.82898 -0.836106,0.52913 -1.059661,1.04936 -1.271637,0.65175 m 1.530159,66.62292 v 0 l 0.04709,-2.24075 0.419625,-0.41701 h 0.334373 l 0.419617,0.41706 0.04227,0.32635 0.0045,50.39421 -0.04656,0.64215 -0.265266,0.62674 1.5e-5,16.47928 0.152886,0.4708 0.722702,0.71902 1.656898,0.58679 3.008667,0.55658 4.467484,-1.19125 0.691848,-0.42725 3.004776,-1.08581 3.223847,-1.41416 3.334404,-0.9158 0.01146,-13.46124 -0.165367,-0.42709 -17.260338,0.62298 0.0033,10.57825 0.307334,0.95306 0.01049,2.86554 1.89563,1.57062 0.267288,0.30832 -8e-6,0.33438 -0.434272,0.41058 -0.843689,-0.48755 -0.50232,-0.48626 -1.093574,-0.47577 -0.51545,-0.54614 -0.04229,-14.27008 0.302384,-0.95197 -0.254845,-0.64609 0.511986,-1.63351 0.228981,0.15518 0.31781,-0.18945 0.105141,0.0877 0.0045,0.64966 -0.21994,0.30011 0.09876,0.43146 3.646462,-0.60715 0.006,-0.10806 -0.03943,-1.31183 -0.511085,-1.8862 -0.95388,-2.44528 -0.621781,-0.93903 -0.652855,-0.65268 -1.17836,-0.55294 -0.762321,-0.59369 -0.02758,-2.1012 0.265275,-0.62674 0.04655,-0.64212 -0.0045,-11.72617 -0.25602,-0.64407 0.532265,-0.92432 -0.208168,-0.65313 0.08759,-0.10526 0.640259,-0.0461 0.424362,0.14401 -0.105461,0.47864 -0.376503,0.38254 17.47113,0.53283 0.654137,-0.21185 0.428138,0.40344 0.04679,15.22202 -0.04643,0.64218 -0.206543,0.30863 0.203545,0.30834 -6.34e-4,0.33313 -0.181114,0.21781 -2.987343,0.91266 -0.354904,0.54205 -0.591614,1.68753 -0.547729,2.63471 -0.03901,1.31213 3.258133,0.7037 0.384575,0.31754 0.633972,-0.50678 0.428306,0.40351 0.06671,14.11261 1.387302,0.59036 0.4449,-0.10605 0.0451,-8.5654 -0.26526,-0.62677 -0.0466,-0.64209 0.005,-55.78239 0.15283,-0.4704 0.30907,-0.27307 0.47776,0.10759 0.27623,0.30945 0.0423,0.32643 0.004,57.05018 -0.0466,0.64213 -0.22321,0.30041 -0.0468,0.95911 0.005,7.60574 0.26512,0.62683 -2.1e-4,0.65036 -0.62257,0.85251 -0.31529,0.21436 -3.590868,0.62719 -1.941193,-4.9e-4 -2.186447,-0.54077 -0.486496,0.27396 -8.401116,25.98181 -0.690757,1.96225 -0.56868,0.83948 -0.477028,-0.10736 -0.2761,-0.30951 -0.0046,-0.66071 9.139122,-27.24014 -0.159485,-0.42322 -2.842713,0.57309 -0.645195,-0.25528 -4.088592,1.17398 -0.651161,0.0369 -3.328484,-0.59689 -1.656944,-0.58686 -1.784172,-1.49731 -0.04262,-9.83191 0.586861,-1.56812 0.04226,-0.65237 -0.0045,-6.02106 -0.265266,-0.62677 -0.04655,-0.64212 M 73.255223,152.66324 v 0 l -2.394547,-0.77198 -0.653381,-0.041 -4.314903,0.83326 -1.290169,0.65959 -0.842388,0.87496 0.212745,0.65339 -0.570556,1.57386 0.86227,4.10168 0.315445,0.87927 0.805168,0.82261 0.446213,0.74664 3.733894,2.43594 0.958107,0.0422 0.626831,-0.2651 0.649628,3.5e-4 0.744042,0.86058 2.478828,-0.56441 1.107124,-0.56941 2.885384,-2.88541 0.815674,-1.46737 0.03913,-0.33579 -0.03917,-1.91711 -0.828011,-1.79721 -1.053383,-1.23902 -1.186195,-1.00007 -1.563668,-0.93151 m 2.461175,64.58345 v 0 l -5.04e-4,-18.07568 0.568985,-5.64329 0.220238,-0.15813 0.427108,0.40265 0.0423,0.32646 3.28e-4,23.13441 -0.592377,1.40346 -0.629013,-1.06732 m 2.1828,29.16895 v 0 l -0.0013,-14.28837 0.26226,-0.62638 -0.217201,-0.63392 0.21479,-0.96861 -0.740028,-0.14903 -10.776459,-3e-5 -0.642105,0.0466 -0.300507,0.22309 -0.650367,-2.3e-4 -1.260293,-1.22633 -0.148117,-0.46897 0.534043,-1.17027 0.659973,-0.73129 -0.181839,-0.2374 -1.711708,-0.77988 -0.838692,-0.89421 0.487511,-0.84366 0.998489,-0.84913 -0.22731,-0.5087 2.06e-4,-0.65038 0.439674,-0.47699 1.492722,-0.55067 0.38913,-0.34329 0.642234,-0.0468 35.496689,0.004 1.57581,0.57528 0.32798,-0.19925 0.47471,0.41182 0.25388,0.31679 -0.20656,0.30891 -0.0419,0.95794 0.26525,0.62681 0.0466,0.64211 -0.005,5.07022 -0.21316,0.53477 -25.284322,0.56697 -0.106758,0.16989 0.412567,0.15062 1.266716,0.005 0.642098,-0.0466 0.626762,-0.26529 13.626709,3e-5 0.470787,0.15291 0.480995,0.41255 0.308464,-0.20355 0.33432,2.7e-4 0.419602,0.41704 0.04231,14.90404 -0.302384,0.95186 0.243088,0.63344 -0.698776,0.5077 -1.960739,0.57025 -0.842385,0.59557 -1.146301,3.37898 -0.03717,2.55373 0.248504,0.63518 -0.259582,0.31759 -0.786049,0.15741 -9.1987,-0.047 -0.213791,-0.17761 -0.562126,-3.97078 -0.797035,-2.12201 -1.023781,-1.66644 -0.40657,-0.41437 -0.246514,-0.23842 -1.093399,-0.46846 m 1.022301,24.78069 v 0 l 0.04736,0.97214 0.19825,0.22925 1.093529,0.47647 0.970871,0.97161 1.281166,2.52839 0.574524,1.93457 0.498024,3.13174 8.328079,-0.599 -0.04364,-0.76498 -0.220055,-0.29944 -0.0076,-0.34619 0.78727,-3.67096 0.65644,-1.58911 0.688736,-0.37528 2.563439,-0.85159 -0.03555,-15.68738 -1.057823,0.16574 H 82.567857 l -1.276878,-0.26419 -0.09937,0.4317 0.220093,0.30005 0.04655,0.64206 m 56.801058,-29.1664 v 0 l 0.18799,0.008 M 72.200561,139.01954 v 0 l -0.187981,-0.008 m 6.104264,91.12504 v 0 l 26.838216,-0.0325 0.54801,-0.74286 0.0435,-0.65093 -0.004,-3.16742 -0.53895,-3.57678 -39.074041,0.92003 0.265335,1.07849 -1.470634,1.57547 0.194885,0.24967 2.018028,1.08589 0.511963,0.56677 -1.157097,1.25949 -7e-6,0.96753 0.736587,0.73399 0.960663,-0.26208 m 12.842102,8.38425 v 0 l 0.305466,0.96214 0.03907,7.49286 1.291901,0.81373 0.582832,0.57575 1.106735,1.75574 0.910042,2.45692 0.847763,3.5324 8.07061,-0.04 -0.161293,-0.74205 0.03719,-2.55373 1.146316,-3.37906 0.657387,-0.65657 0.618439,-0.32341 1.169983,-0.48035 0.336715,0.2065 0.750969,-0.53555 0.02814,-6.53737 -0.569809,-8.93565 -0.536202,0.21249 -14.261841,0.004 -0.642097,-0.0465 -0.626755,-0.26526 -0.958588,0.045 -0.144661,0.42683 m -2.685333,-40.41256 v 0 l -11.105926,-0.005 -0.626381,-0.26224 -0.976929,0.2215 -0.835174,-0.4981 -0.84042,-0.87347 0.04897,-0.42185 0.808899,-1.17494 1.45e-4,-0.19713 -0.86084,-0.74336 -0.0036,-0.65855 0.534031,-0.9247 -0.214081,-0.31764 -0.01431,-0.84279 1.385162,-1.17569 0.968171,0.21706 0.300079,-0.22019 0.642105,-0.0466 h 33.596966 l 0.64214,0.0466 0.50867,0.22742 0.75151,-0.84412 0.74165,0.71958 -0.26656,1.27647 0.004,5.38709 0.24851,0.63517 -0.40345,0.42819 -0.3264,0.0423 -2.971719,0.006 -0.68531,17.09843 -2.483658,0.79474 -0.762054,0.4285 -1.136437,3.36862 -0.03717,2.87067 0.248504,0.63514 -0.403442,0.42823 -8.88118,0.0425 -1.188873,-0.554 -0.701202,-4.13797 -0.962899,-2.2658 -0.469688,-0.79423 -0.886627,-0.88021 -1.170113,-0.546 -0.438904,-0.47592 -0.04678,-14.27123 0.266579,-1.27643 -0.417023,-0.41963 m -1.289879,-0.99794 v 0 l 1.490509,-0.0335 0.491524,-0.50869 0.250366,0.16079 0.250343,-0.16082 0.686844,0.53666 20.624359,-0.0443 0.14464,-0.42687 0.004,-5.18849 -36.308201,-0.62822 -0.834641,0.49799 -0.510025,0.56553 0.243546,0.63402 -0.26017,0.62578 2.21e-4,0.65039 0.539573,0.61726 0.04646,0.64219 -0.04646,0.64233 -0.536758,0.61681 8e-6,0.33436 0.417045,0.41966 m 191.988892,38.8667 v 0 l 0.18795,0.008 M 80.870303,207.47129 v 0 l 0.214005,0.25161 1.382713,0.76782 0.984017,0.98401 0.385452,0.70288 0.576378,1.184 0.617599,1.82193 0.879456,3.62575 7.564377,0.006 0.885643,-5.17108 0.946174,-2.16307 0.680039,-0.37062 2.348007,-0.77307 0.191773,-0.22389 -0.498703,-15.62531 -17.201668,0.60152 m 74.539855,17.56525 v 0 l 0.0984,-0.48078 1.22406,-2.1794 0.79708,-3.03834 -0.001,-3.52469 -0.51226,-1.16203 -0.3488,-0.39572 -0.0373,-0.32532 0.13933,-0.42311 0.33484,-0.002 0.54578,0.51241 0.51224,1.16203 9.9e-4,4.47543 -0.79975,2.72879 -0.58352,1.20296 -0.46974,0.79433 -0.64876,0.64233 m 197.46853,8.86118 v 0 l -0.0473,2.87388 -1.05301,0.72866 -0.52679,-0.28431 -0.54779,-0.75183 -0.0595,-4.28642 -2.25482,-0.86531 -0.20099,-0.254 0.27634,-0.51721 0.75189,-0.54779 2.87698,0.003 0.22937,0.19836 0.513,1.16211 m 5.75879,93.84055 v 0 l -20.25131,-33.39823 -3.69171,0.90155 -0.64011,-0.0423 -0.41708,-0.41962 0.10769,-0.47818 0.72412,-0.72022 2.42069,-0.82226 0.42493,-0.26486 -4.13529,-7.01444 -1.43731,-2.74606 0.10141,-0.10098 0.88439,0.8283 5.51606,8.98532 0.81408,0.51304 0.54734,1.80743 0.86374,1.48917 1.76684,2.73516 13.12988,21.98706 3.84723,6.11356 -0.003,0.65097 -0.43627,0.0998 m -9.50504,-157.1654 v 0 l 1.02524,1.65037 0.48755,0.50438 0.51223,1.16207 -10e-4,4.47311 -1.44959,2.41814 -1.60492,1.60562 -1.17013,0.54603 -0.42774,0.41724 -1.57074,0.93755 -1.16293,0.51315 -2.57282,3e-5 -2.74554,-1.12636 -1.89194,-1.27647 -0.98086,-0.98084 -2.03809,-2.97308 -0.49835,-0.51505 -0.58438,-1.1412 -0.86722,-3.17706 -3e-5,-0.67225 0.52637,-1.54901 0.7236,-1.48466 2.6033,-1.87351 2.90222,-0.89347 2.86841,-0.039 0.63507,0.24859 0.32581,-0.19701 0.74093,0.37042 3.17643,0.98854 2.31246,1.34572 m 1.85242,30.54985 v 0 l 3.20294,1.89412 0.68247,0.86864 0.96631,1.89789 0.80249,2.42054 -0.005,0.97837 -0.22018,0.30004 v 0.3342 l 0.22012,0.30016 0.005,0.6617 -0.87479,4.15557 -0.59039,1.44361 -0.62174,0.93902 -0.98086,0.98087 -3.0542,2.08472 -2.56967,-2.3e-4 -0.68299,-0.50011 0.16818,-0.25807 -0.5339,-0.924 -0.0391,-0.33598 0.0425,-17.43889 1.22644,-1.26022 0.46972,-0.14791 0.46909,0.14737 m 3.01044,16.96515 v 0 l 0.89047,-0.89924 0.61383,-1.20517 0.83835,-3.42943 -10e-4,-2.89092 -1.24948,-3.03416 -0.86783,-0.68305 -2.01935,-1.08599 -1.36908,-0.97852 -0.15655,0.72908 0.0495,15.22249 0.75079,0.10246 0.72598,-0.67818 1.38419,-0.76783 m -2.63754,-37.31147 v 0 l 0.43081,-0.7321 0.52219,-1.80591 -4.6e-4,-1.30638 -0.57089,-1.40162 -0.9245,-1.10578 -0.0791,-0.52665 -2.41721,-1.60921 -2.58276,-0.71237 -0.81476,-0.44518 -2.55084,-0.0392 -1.89185,0.57649 -0.33957,-0.20985 -1.1698,0.50073 -1.29556,0.97988 -0.80926,1.77468 -0.0378,0.65035 0.87241,3.09035 0.48096,0.4964 0.88391,1.37045 1.5054,1.31842 1.7807,0.81528 0.66065,-0.004 0.2998,-0.22281 0.53101,-0.0787 0.54116,-0.56875 0.42484,0.004 0.41925,0.3571 0.3645,-0.30642 0.055,0.39665 -0.607,0.82565 -1.15207,0.99922 0.68308,0.49935 2.24402,-0.003 1.79299,-1.12923 0.51554,-0.49872 1.05713,-0.56785 m 5.61285,69.59421 v 0 l -0.42114,0.42915 -0.79154,0.0311 -0.60116,-1.70775 0.005,-2.5634 0.73706,-0.73682 0.65042,5e-5 0.42005,0.41983 m 0.3143,13.63762 v 0 l -0.49427,0.53968 -3.88061,0.58388 -0.90003,4.82991 -0.21457,0.17636 -0.33309,5.4e-4 -0.43201,-0.25965 -0.62177,-5.23106 0.52698,-0.88852 1.78632,-1.1339 0.65902,0.003 0.62586,0.26015 0.53784,-0.21527 0.55945,-3.72394 0.33456,-0.33053 0.46988,-0.148 0.55081,0.23401 M 92.701875,300.749 v 0 l 0.0084,-0.18799 m 3.142532,0.20935 v 0 l 1.936051,-0.005 0.173988,-0.60147 0.90081,-0.59924 -0.02483,-0.50229 -0.426117,-0.14392 -0.968872,0.0369 -3.024773,1.09433 m 5.246887,0.71131 v 0 l 1.063179,-0.0463 0.68991,-0.67679 -0.0266,-0.53274 -0.74295,-0.54791 -0.659139,0.003 -0.417114,0.4195 0.203239,0.64261 -0.203384,0.30816 M 274.86322,208.43029 v 0 l 0.65931,-0.74085 0.651,-1.27043 1.11663,-4.63147 -0.83346,-3.74104 -0.34137,-0.3907 0.0996,-0.43419 0.65002,-0.003 0.23068,0.20062 0.82932,2.42688 6.1e-4,2.25748 -0.83536,3.43559 -0.62991,1.52962 -0.9834,1.47785 m 73.16498,44.5539 v 0 l -0.0419,4.45825 -0.42001,0.41998 h -0.9675 l -0.42005,-0.42001 -0.0423,-0.32639 0.0423,-4.44451 0.73654,-0.73401 h 0.33445 l 0.73779,0.73578 m -2.32224,-35.32865 v 0 l -0.79702,3.64215 0.0424,1.27396 0.20657,0.30887 -0.4035,0.42814 -0.81528,0.0222 -0.57663,-1.06599 -0.0382,-0.33735 0.0426,-5.39456 0.5018,-0.53509 2.12555,-0.52449 0.66181,0.006 0.42004,0.41983 v 1.28447 l -0.41995,0.42003 m 1.41269,44.88324 v 0 l -0.0418,3.82422 -0.73666,0.73401 -0.33439,-3e-5 -0.73654,-0.73398 v -4.137 l 0.73654,-0.73403 h 0.33445 l 0.73779,0.73577 m -4.34024,-61.49774 v 0 l -0.0938,1.30214 -0.82941,2.11257 -2.52414,4.10962 -1.29788,1.29786 -1.16123,0.81331 -0.64974,-0.004 0.19393,-0.63224 1.65635,-0.85034 1.89309,-2.84433 1.28638,-2.54017 0.83694,-3.06737 -0.0382,-1.91823 -0.74454,-1.70285 -1.02432,-1.66681 -0.74753,-0.93295 -1.4028,-1.23332 -9e-5,-0.30086 0.30865,-0.27796 0.79495,0.11051 1.04691,1.04982 1.90686,2.86046 0.81372,2.41002 0.0368,1.28627 m 4.11994,71.61949 v 0 l 4.3e-4,4.76574 -0.16288,0.48093 -1.51715,0.66385 -2.25744,0.55811 -0.67264,-6.1e-4 -1.55554,-0.58625 -0.15876,-0.48105 0.21982,-0.54092 3.97388,-0.81442 0.53851,-4.65372 0.33512,-0.33069 0.47821,-0.10769 0.73782,0.73574 m -2.80704,-40.89398 v 0 l -0.15735,1.11742 -0.40493,0.40172 -1.16974,0.50073 -0.32776,-0.19922 -0.30875,0.20657 -1.28442,-3.5e-4 -0.73682,-0.73701 0.11054,-0.79489 1.25085,-0.91274 0.53528,-0.0756 0.8616,-1.06921 0.0423,-0.95808 -0.26514,-0.62687 -0.003,-0.65905 0.54791,-0.74294 0.84268,0.0146 0.42008,0.41999 0.0423,2.22589 -0.26227,0.96062 0.22012,0.29988 m -87.04825,-1.2663 v 0 l 0.18793,0.008 m -101.9377,-17.10445 v 0 l 0.0986,-0.4808 1.51833,-1.53151 0.62231,-0.94011 1.18461,-3.40103 -0.0381,-3.18619 -0.51227,-1.16199 -0.73636,-0.92192 -1.19435,-1.05826 0.10764,-0.47763 0.32664,-0.26727 0.93314,0.57048 1.48247,1.77829 0.54454,1.53772 0.0375,2.86989 -0.56364,1.88701 -1.24272,2.45254 -0.63449,0.95233 -0.98093,0.98084 -0.84683,0.48811 m 184.29519,-11.2072 v 0 l -0.83816,2.76764 -1.28281,2.53131 -2.15152,2.09679 -0.41141,-0.41119 1.29407,-1.04969 1.25617,-1.89087 1.18466,-3.7181 -0.0381,-2.55214 -0.51224,-1.1621 -0.93237,-1.24901 -1.00104,-0.73236 0.003,-0.65011 0.75076,-0.10254 1.81461,1.78441 0.82864,2.11171 m 0.83755,44.54435 v 0 l -1.89202,0.58751 -0.3209,-0.21789 -1.47693,-0.0144 -0.54788,0.7057 -0.35501,0.18329 -4.60355,0.65897 h -2.5314 l -4.94732,-0.95891 -4.55817,-0.64163 -0.79257,-0.43462 10e-4,-0.35219 0.45288,-0.48022 1.8985,-0.57294 2.07962,-0.0612 0.62424,-1.39534 0.47686,-0.43956 0.32529,-0.0374 0.55637,0.24026 0.8851,2.90619 6.80749,-0.0336 0.46808,-0.28028 0.93121,-3.01622 0.279,-0.42126 0.86337,-0.0333 0.73419,0.76982 -0.003,0.97527 -0.17438,0.2301 0.99506,0.51056 0.66488,-0.22035 1.87711,0.52937 0.33826,-0.20847 1.37307,0.84949 m -4.39303,-42.28166 v 0 l -0.0417,1.30104 -0.84012,3.11902 -0.92902,1.83311 -0.88552,1.14536 -0.1106,-0.4292 0.98459,-1.65582 0.35187,-0.96088 0.83218,-3.39001 -0.0382,-2.55214 -0.86398,-2.18128 0.008,-0.34547 0.63089,-0.11228 0.85876,1.68807 m -1.26376,4.77203 v 0 l -0.84747,2.51819 -1.28122,2.17657 -2.40991,1.1272 -2.87955,-0.005 -1.79306,-1.12926 -0.98297,-0.98209 -0.6218,-0.93886 -0.55124,-1.50044 0.0392,-3.81863 0.81564,-1.46736 0.98212,-0.98298 0.9544,-0.63588 3.04859,-1.13359 2.25638,6.3e-4 1.77472,0.8092 1.00042,1.61235 0.49173,1.16222 m 1.63376,33.29167 v 0 l -0.62973,0.48673 -0.56161,1.64853 -0.86634,0.50955 -0.52664,-0.28435 -0.54776,-0.75183 0.003,-2.24396 0.29361,-0.50935 0.75986,-0.5354 0.32602,0.19705 0.30856,-0.20662 0.97614,-0.003 0.74289,0.54805 -0.0146,0.84256 m -3.12244,-31.68951 v 0 l -0.0426,-0.98328 -0.81531,-1.78064 -0.33859,-0.33993 -1.16202,-0.51227 h -2.25583 l -2.10202,0.80645 -0.72336,0.41184 -1.19702,1.20341 -0.51224,1.16207 -9.1e-4,2.57365 0.52328,1.80712 0.65039,0.96504 1.78666,1.11413 0.31732,-0.21101 0.33423,8e-5 0.62637,0.26228 1.60083,-0.0389 1.46039,-0.80892 1.0047,-1.63189 0.80374,-2.40902 m -19.97992,42.43646 v 0 l 0.004,3.51115 -0.42685,0.14432 -0.64148,-0.0445 -0.14465,-0.42684 0.0448,-3.17718 0.42688,-0.14431 m 3.07449,35.71363 v 0 l -2.65915,-1.39728 -1.15869,-0.87534 0.203,-0.64187 -0.24853,-0.63498 -3.7e-4,-1.58151 0.65537,-3.63892 1.19211,0.14148 0.045,2.86032 -0.26532,0.62671 -0.0424,0.95721 0.55039,1.49952 1.05947,0.72918 2.7959,1.08268 -0.12265,0.91955 m 3.62952,-76.16679 v 0 l -0.26334,-0.63604 -0.0422,-0.63978 0.87274,-4.07929 0.61603,-1.21115 1.63385,-1.81025 0.52685,0.0176 0.099,0.43364 -1.62591,1.67614 -0.6572,1.28483 -0.83151,3.68855 0.0369,0.6512 0.81373,2.40995 0.63208,0.95105 1.32043,0.85324 -8.2e-4,0.20292 -0.44736,0.11356 -0.83521,-0.49806 -0.66391,-0.66393 -1.13385,-1.78633 m 4.78385,75.17003 v 0 l -1.5015,-0.54065 -1.27402,0.0424 -0.6268,0.26529 -1.27508,-0.0423 -0.41995,-0.42001 -0.007,-0.8627 2.97006,-0.8436 3.44003,0.83877 0.79181,0.53476 -0.11023,0.79377 -0.30948,0.276 -0.32635,0.0423 m -4.76755,-70.99537 v 0 l 0.0231,0.26889 -0.96799,0.004 -0.82635,-0.61023 -1.31686,-1.50304 -0.92527,-1.81815 -0.56366,-1.88699 0.0381,-3.82014 0.8053,-2.11354 0.64566,-1.25431 0.81546,-0.83206 0.45325,-0.75442 1.18222,-0.84513 0.4866,0.11222 0.28708,0.4895 -1.06226,0.61139 -0.85779,0.97693 -0.73669,1.25047 -1.06799,2.35895 -0.0381,4.13701 0.52798,1.51031 0.96094,1.87801 1.29895,1.29979 m -8.49737,45.69543 v 0 l -0.0471,2.87466 -0.41965,0.41703 -0.33435,-3e-5 -0.41959,-0.41706 -0.0423,-0.32635 0.0423,-4.76149 0.41959,-0.41705 0.47781,0.1076 0.27622,0.3094 m 1.31494,-22.79841 v 0 l 0.0471,-1.28991 0.41995,-0.41998 0.8428,-0.0146 0.54792,0.74293 -0.003,0.65906 -0.20643,0.30875 0.24347,0.63399 -0.21157,0.55435 1.21392,0.57942 0.54654,0.75059 -0.29474,0.85193 -0.75183,0.54781 -0.64889,0.0391 -1.57767,-0.6247 -0.16278,-1.11262 0.24841,-0.63506 -0.20648,-0.30864 m 2.79907,-11.74567 v 0 l -0.26336,0.63596 -0.0465,0.642 0.0465,0.95914 0.22317,0.30046 0.0144,0.84268 -0.74295,0.548 -0.82392,0.019 -0.57663,-1.06596 -0.0587,-3.65458 -1.71671,-0.63653 -0.11871,-0.4896 1.04187,-0.74076 2.24322,0.004 0.22937,0.19836 0.513,1.16211 m 0.20795,-8.69118 v 0 l -0.57367,-0.58206 -0.38541,-0.70277 -1.38235,-3.29882 -0.0381,-4.137 0.87952,-3.14704 0.85742,-1.7565 0.47013,-0.79486 1.4335,-1.37134 0.42761,0.40276 0.0148,0.52658 -1.55893,1.39285 -0.47616,0.81296 -1.09702,3.61763 0.0375,4.4545 0.74405,2.02188 1.02429,1.97917 0.35815,0.40834 -0.0992,0.43183 m -4.92175,55.02975 v 0 l -0.005,3.1821 -0.15234,0.46982 -0.25403,0.2326 -0.5328,-0.39114 -0.27243,0.0144 -0.0465,-4.7608 0.1528,-0.47037 0.30905,-0.27304 0.47778,0.10761 0.27625,0.30935 m -1.05204,-18.52694 v 0 l -0.65765,0.26034 -4.67221,-0.519 -0.50189,-3.09603 0.63473,-4.24245 0.2042,-0.29001 1.00604,-0.0294 0.60709,2.02707 -0.005,0.66164 -0.26517,0.6269 0.045,2.86026 0.42572,0.13968 0.95193,-0.30218 2.55139,0.039 0.74289,0.54801 -0.0146,0.84276 -0.41989,0.41995 m -3.63752,-25.89974 v 0 l -0.0585,3.93737 -0.58844,1.23976 -0.47821,-0.0855 -0.31885,0.19013 -0.15149,-0.72797 0.30198,-0.95205 -0.30234,-0.95194 0.045,-4.44505 0.42673,-0.14462 3.49371,0.0421 0.41974,0.42006 -1.8e-4,0.6492 -0.18085,0.2162 m -2.99264,9.90346 v 0 l 0.004,2.87666 -0.41992,0.41998 -0.96756,5e-5 -0.42005,-0.42003 -0.0423,-0.32635 0.0423,-2.54285 0.42005,-0.42003 0.32644,-0.0419 0.64109,0.042 m -93.60964,-16.67377 v 0 l 0.0431,-0.42835 0.92926,-1.57516 0.35184,-0.9608 0.79496,-3.05159 -9.6e-4,-2.89067 -0.86401,-2.18121 0.10486,-0.44382 0.53424,-0.0139 0.85882,1.6881 9.6e-4,3.84149 -1.06257,3.60768 -1.342,2.2964 -0.25116,0.19411 m 59.17104,-0.39816 v 0 l 0.1004,-0.48275 1.51831,-1.53155 0.62177,-0.93906 0.95392,-2.44523 0.5111,-1.88619 -0.001,-1.62283 -0.44486,-1.0958 -1.00525,-1.63919 -0.99569,-1.04155 0.003,-0.651 0.43412,-0.0995 2.12484,2.0906 0.5561,1.82309 -0.0382,3.50307 -1.46399,3.3815 -0.62177,0.93906 -1.68109,1.68368 m 0.37928,2.54915 v 0 l 0.10849,-0.49083 1.47818,-0.85823 0.98297,-0.98212 0.63446,-0.95231 1.92032,-3.80796 0.79974,-2.72882 -9.2e-4,-1.30592 -1.06213,-2.65424 -1.65817,-2.29998 -0.44904,-0.2802 -0.84491,-1.08605 0.40317,-0.42535 h 0.33438 l 1.50781,1.47449 1.88376,2.83375 0.51956,1.48618 4e-4,2.89119 -0.80066,2.7171 -2.87085,4.77203 -0.96982,0.96973 -1.48877,0.82156 m -117.68995,19.53577 v 0 l 0.188,0.008 m 41.33267,-4.1288 v 0 l 0.18799,0.008 M 101.7414,201.11842 v 0 l -0.005,15.85942 -0.54966,1.33292 -0.34961,-0.37174 -0.0423,-0.32647 v -24.40302 l 0.1528,-0.47024 0.31779,-0.25962 0.42832,0.40338 0.0423,0.32648 2e-5,2.85031 -0.30238,0.95194 0.30236,0.95202 m 3.50255,58.9563 v 0 l -0.71061,-1.28888 -0.5265,-1.54896 -0.0375,-1.60198 0.52795,-1.51028 0.96156,-1.87779 0.24131,-0.20839 0.33276,0.003 -0.008,0.25468 -1.38288,2.36839 -0.0391,0.33593 0.038,2.8693 0.81534,1.78074 0.3467,0.42099 -0.42311,0.1069 m -0.77508,-20.38268 v 0 l 0.094,-0.42633 0.75954,-1.38569 0.24147,-0.2085 0.42728,0.11482 -0.65022,1.02356 -0.55708,1.82425 0.0372,2.5531 0.85239,2.50904 -0.10349,0.11846 -0.55871,-0.51542 -0.50619,-1.16216 m 1.58813,9.49088 v 0 l 0.59577,-0.63457 0.25513,-0.008 -0.0471,0.42452 -0.84527,2.12127 0.0381,1.28444 0.85202,1.87656 -0.0949,0.11093 -0.4851,-0.11179 -0.58791,-0.92623 -0.0388,-2.86863 m 112.67824,-41.6864 v 0 l 2e-5,-0.31076 1.19284,-0.89065 1.25615,-1.8908 1.14717,-3.38 -6.1e-4,-2.89032 -0.51227,-1.16203 -0.93237,-1.24897 -1.00101,-0.73236 0.10232,-0.75001 0.65096,-0.003 1.81459,1.78431 0.82863,2.11173 6.7e-4,2.57341 -0.80254,2.42059 -1.28282,2.53128 -2.00097,2.00176 -0.30124,-0.001 M 103.69364,199.84845 v 0 l -0.0983,1.60883 -0.26526,0.62674 0.0378,0.9683 0.82947,2.11266 1.18792,1.52148 0.008,0.25537 -0.47734,-0.10389 -0.73117,-0.73468 -1.13398,-2.417 -0.0422,-2.55433 0.0423,-0.65236 0.81577,-1.78108 0.67396,-0.99195 0.83729,-0.4796 0.10909,0.10911 m 0.73722,43.12263 v 0 l -0.004,-3.52968 0.51303,-1.16206 0.22905,-0.19516 0.332,0.004 0.0465,0.20128 -0.84169,2.12363 0.0369,1.28553 0.54048,2.1877 -0.2782,0.13286 m 35.57827,-16.60992 v 0 l 0.188,0.008 m -35.10395,29.79816 v 0 l -0.28513,-0.31335 -0.0421,-0.32805 0.0423,-2.22574 0.41966,-0.41689 0.33285,0.004 0.0576,0.1878 -0.53549,1.50324 0.0421,0.64013 0.22303,0.30051 -0.005,0.64949 m 0.3616,-15.54814 v 0 l -0.14851,0.42338 -0.32076,-0.26107 -0.15705,-0.78612 0.0421,-0.65241 0.57801,-1.05384 0.26607,0.12072 -0.24807,0.63584 m -0.79596,-33.80631 v 0 l -0.74992,-1.04231 -0.0388,-0.64923 0.0939,-0.41457 0.69585,-0.94989 0.10618,0.42034 -0.26212,0.62643 0.0423,1.27513 0.52347,0.62697 m 96.48297,19.95952 v 0 l 0.188,0.008 m 60.65593,-5.07541 v 0 l 0.20813,0.0123 -0.10519,-0.42234 M 205.85,237.67273 v 0 l 0.15625,-0.40637 -0.14771,-0.41515 -0.14818,0.41263 m 0.47357,0.54225 v 0 l -0.11366,0.41522 0.10535,0.0893 0.10515,-0.42238 m -59.06519,12.14587 v 0 l 0.008,-0.18799 m -0.32539,-0.12892 v 0 l 0.008,-0.18799 m -0.22637,-30.64146 v 0 l -0.188,-0.008 m 0.31004,-0.31811 v 0 l 0.20815,0.0123 -0.10516,-0.42234 m 61.79849,30.61515 v 0 l 0.008,-0.18799 m 74.00674,-55.35684 v 0 l 0.005,-6.66868 0.30734,-0.95291 0.0183,-3.62927 2.36578,-0.64415 1.27396,0.0425 0.62665,0.26531 2.10122,0.0373 0.54801,0.74289 0.0393,0.33565 -0.0427,13.9512 -0.17862,0.21441 -3.40576,0.52021 -0.3302,-0.2027 -0.31699,0.18973 -0.63388,-0.24352 -0.6257,0.26035 -0.96668,-3.4e-4 -0.74118,-1.045 m -136.81511,52.05494 v 0 l 0.008,-0.18801 m -0.32536,-0.12892 v 0 l 0.008,-0.18799 m 138.35597,-52.38545 v 0 l 3.29999,0.6188 0.96951,0.0359 0.42679,-0.14466 0.0416,-12.81943 -3.31726,-0.61418 -1.40918,0.58841 m 42.76889,50.53996 v 0 l -0.046,0.6542 -0.42114,0.42174 -0.96759,-4e-5 -0.4199,-0.41999 -0.0796,-1.47662 -0.75094,-0.53555 -0.31674,0.21071 -0.34345,0.004 -0.74255,-0.54612 0.0146,-0.84275 0.73697,-0.73697 0.3263,-0.0422 1.28601,0.0371 1.46957,0.5039 0.56186,1.51515 -0.26047,0.62462 M 105.58058,203.98546 v 0 l 0.86172,1.25797 -0.004,0.3336 -0.25528,-0.008 -0.73198,-0.73195 -0.49999,-0.83548 -0.0391,-0.33583 0.038,-2.23552 0.75552,-1.70679 0.62752,-0.60624 0.10901,0.43863 -0.64393,0.96601 -0.53176,1.54175 0.005,1.2952 m 161.74995,12.44491 v 0 l 0.008,-0.18795 m 95.61316,-27.15075 v 0 l 0.83624,-0.8934 2.96589,-2.03132 0.49105,-0.79157 1.13156,-1.1474 0.85996,-1.16891 1.64352,-1.01848 0.58292,-0.57572 0.53632,-0.84388 1.76538,-1.78112 1.90237,-2.85403 3.18405,-5.70024 1.00309,-3.54814 1.10574,-4.91693 -0.037,-7.62436 -1.14261,-5.37139 -1.62094,-5.72958 -0.60339,-1.47105 -1.25513,-2.20543 -2.21808,-3.48581 -2.08468,-2.10224 -0.76783,-1.38418 -1.51941,-1.46335 -0.10668,0.42094 0.35818,0.40839 3.66837,6.85562 -0.003,1.29326 -0.41959,0.41705 -0.57495,-0.20874 -2.91837,-6.06909 -3.59063,-6.49982 0.41913,-0.42065 0.63406,0.24356 0.63409,-0.24356 0.40409,0.33251 1.71225,0.77918 1.86667,1.20656 2.58593,1.00134 1.88837,0.96277 1.35858,1.03447 1.12448,1.43483 0.67029,0.18947 0.54602,0.74332 -0.11188,0.48626 -0.30957,0.27633 -0.97622,0.003 -0.83554,-0.5 -1.52399,-1.83287 -1.20935,-0.88378 -2.41727,-1.13273 -0.43109,0.11255 1.11316,1.80308 1.08465,0.91603 0.99878,1.18416 2.21933,3.48795 1.59812,2.85897 1.91525,6.63387 0.87451,3.79204 0.58808,4.04988 -6e-5,4.75009 -1.10587,5.23435 -1.32272,4.50743 -2.86423,5.37431 -1.58542,2.53702 -0.9509,1.26788 -2.1506,2.16325 -0.1817,0.35436 -1.18415,0.99887 -1.37042,0.88388 -2.43301,2.60251 -1.70526,1.08725 -0.81269,0.79764 -1.48468,0.51693"
               style="fill:#000000;fill-opacity:1;fill-rule:nonzero;stroke:none"
               id="path28"
               inkscape:connector-curvature="0" /></g></g></g></g><flowRoot
       xml:space="preserve"
       id="flowRoot835"
       style="font-style:normal;font-variant:normal;font-weight:normal;font-stretch:normal;font-size:26.66666603px;line-height:1.25;font-family:'Freestyle Script';-inkscape-font-specification:'Freestyle Script, Normal';font-variant-ligatures:normal;font-variant-caps:normal;font-variant-numeric:normal;font-feature-settings:normal;text-align:start;letter-spacing:0px;word-spacing:0px;writing-mode:lr-tb;text-anchor:start;fill:#000000;fill-opacity:1;stroke:none"
       transform="matrix(0.75000002,0,0,-0.75000002,-48.943176,577.98224)"><flowRegion
         id="flowRegion837"
         style="font-style:normal;font-variant:normal;font-weight:normal;font-stretch:normal;font-size:26.66666603px;font-family:'Freestyle Script';-inkscape-font-specification:'Freestyle Script, Normal';font-variant-ligatures:normal;font-variant-caps:normal;font-variant-numeric:normal;font-feature-settings:normal;text-align:start;writing-mode:lr-tb;text-anchor:start"><rect
           id="rect839"
           width="177.97519"
           height="41.527542"
           x="105.59861"
           y="231.37817"
           style="font-style:normal;font-variant:normal;font-weight:normal;font-stretch:normal;font-size:26.66666603px;font-family:'Freestyle Script';-inkscape-font-specification:'Freestyle Script, Normal';font-variant-ligatures:normal;font-variant-caps:normal;font-variant-numeric:normal;font-feature-settings:normal;text-align:start;writing-mode:lr-tb;text-anchor:start" /></flowRegion><flowPara
         id="flowPara841">Extrudereinheit 1</flowPara></flowRoot><flowRoot
       xml:space="preserve"
       id="flowRoot835-5"
       style="font-style:normal;font-variant:normal;font-weight:normal;font-stretch:normal;font-size:26.66666603px;line-height:1.25;font-family:'Freestyle Script';-inkscape-font-specification:'Freestyle Script, Normal';font-variant-ligatures:normal;font-variant-caps:normal;font-variant-numeric:normal;font-feature-settings:normal;text-align:start;letter-spacing:0px;word-spacing:0px;writing-mode:lr-tb;text-anchor:start;fill:#000000;fill-opacity:1;stroke:none"
       transform="matrix(0.75000002,0,0,-0.75000002,56.984282,580.42922)"><flowRegion
         id="flowRegion837-5"
         style="font-style:normal;font-variant:normal;font-weight:normal;font-stretch:normal;font-size:26.66666603px;font-family:'Freestyle Script';-inkscape-font-specification:'Freestyle Script, Normal';font-variant-ligatures:normal;font-variant-caps:normal;font-variant-numeric:normal;font-feature-settings:normal;text-align:start;writing-mode:lr-tb;text-anchor:start"><rect
           id="rect839-2"
           width="177.97519"
           height="41.527542"
           x="105.59861"
           y="231.37817"
           style="font-style:normal;font-variant:normal;font-weight:normal;font-stretch:normal;font-size:26.66666603px;font-family:'Freestyle Script';-inkscape-font-specification:'Freestyle Script, Normal';font-variant-ligatures:normal;font-variant-caps:normal;font-variant-numeric:normal;font-feature-settings:normal;text-align:start;writing-mode:lr-tb;text-anchor:start" /></flowRegion><flowPara
         id="flowPara841-2">Extrudereinheit 2</flowPara></flowRoot><flowRoot
       xml:space="preserve"
       id="flowRoot835-5-6"
       style="font-style:normal;font-variant:normal;font-weight:normal;font-stretch:normal;font-size:26.66666603px;line-height:1.25;font-family:'Freestyle Script';-inkscape-font-specification:'Freestyle Script, Normal';font-variant-ligatures:normal;font-variant-caps:normal;font-variant-numeric:normal;font-feature-settings:normal;text-align:start;letter-spacing:0px;word-spacing:0px;writing-mode:lr-tb;text-anchor:start;fill:#000000;fill-opacity:1;stroke:none"
       transform="matrix(0.75000002,0,0,-0.75000002,154.17179,580.42921)"><flowRegion
         id="flowRegion837-5-5"
         style="font-style:normal;font-variant:normal;font-weight:normal;font-stretch:normal;font-size:26.66666603px;font-family:'Freestyle Script';-inkscape-font-specification:'Freestyle Script, Normal';font-variant-ligatures:normal;font-variant-caps:normal;font-variant-numeric:normal;font-feature-settings:normal;text-align:start;writing-mode:lr-tb;text-anchor:start"><rect
           id="rect839-2-9"
           width="177.97519"
           height="41.527542"
           x="105.59861"
           y="231.37817"
           style="font-style:normal;font-variant:normal;font-weight:normal;font-stretch:normal;font-size:26.66666603px;font-family:'Freestyle Script';-inkscape-font-specification:'Freestyle Script, Normal';font-variant-ligatures:normal;font-variant-caps:normal;font-variant-numeric:normal;font-feature-settings:normal;text-align:start;writing-mode:lr-tb;text-anchor:start" /></flowRegion><flowPara
         id="flowPara841-2-0">Extrudereinheit 3</flowPara></flowRoot><flowRoot
       xml:space="preserve"
       id="flowRoot835-3"
       style="font-style:normal;font-variant:normal;font-weight:normal;font-stretch:normal;font-size:26.66666603px;line-height:1.25;font-family:'Freestyle Script';-inkscape-font-specification:'Freestyle Script, Normal';font-variant-ligatures:normal;font-variant-caps:normal;font-variant-numeric:normal;font-feature-settings:normal;text-align:start;letter-spacing:0px;word-spacing:0px;writing-mode:lr-tb;text-anchor:start;fill:#000000;fill-opacity:1;stroke:none"
       transform="matrix(0.75000002,0,0,-0.75000002,-41.791947,524.81198)"><flowRegion
         id="flowRegion837-2"
         style="font-style:normal;font-variant:normal;font-weight:normal;font-stretch:normal;font-size:26.66666603px;font-family:'Freestyle Script';-inkscape-font-specification:'Freestyle Script, Normal';font-variant-ligatures:normal;font-variant-caps:normal;font-variant-numeric:normal;font-feature-settings:normal;text-align:start;writing-mode:lr-tb;text-anchor:start"><rect
           id="rect839-1"
           width="177.97519"
           height="41.527542"
           x="105.59861"
           y="231.37817"
           style="font-style:normal;font-variant:normal;font-weight:normal;font-stretch:normal;font-size:26.66666603px;font-family:'Freestyle Script';-inkscape-font-specification:'Freestyle Script, Normal';font-variant-ligatures:normal;font-variant-caps:normal;font-variant-numeric:normal;font-feature-settings:normal;text-align:start;writing-mode:lr-tb;text-anchor:start" /></flowRegion><flowPara
         id="flowPara841-8">Vereinzelung</flowPara></flowRoot><flowRoot
       xml:space="preserve"
       id="flowRoot835-3-1"
       style="font-style:normal;font-variant:normal;font-weight:normal;font-stretch:normal;font-size:26.66666603px;line-height:1.25;font-family:'Freestyle Script';-inkscape-font-specification:'Freestyle Script, Normal';font-variant-ligatures:normal;font-variant-caps:normal;font-variant-numeric:normal;font-feature-settings:normal;text-align:start;letter-spacing:0px;word-spacing:0px;writing-mode:lr-tb;text-anchor:start;fill:#000000;fill-opacity:1;stroke:none"
       transform="matrix(0.75000002,0,0,-0.75000002,-12.672992,283.3639)"><flowRegion
         id="flowRegion837-2-6"
         style="font-style:normal;font-variant:normal;font-weight:normal;font-stretch:normal;font-size:26.66666603px;font-family:'Freestyle Script';-inkscape-font-specification:'Freestyle Script, Normal';font-variant-ligatures:normal;font-variant-caps:normal;font-variant-numeric:normal;font-feature-settings:normal;text-align:start;writing-mode:lr-tb;text-anchor:start"><rect
           id="rect839-1-6"
           width="177.97519"
           height="41.527542"
           x="105.59861"
           y="231.37817"
           style="font-style:normal;font-variant:normal;font-weight:normal;font-stretch:normal;font-size:26.66666603px;font-family:'Freestyle Script';-inkscape-font-specification:'Freestyle Script, Normal';font-variant-ligatures:normal;font-variant-caps:normal;font-variant-numeric:normal;font-feature-settings:normal;text-align:start;writing-mode:lr-tb;text-anchor:start" /></flowRegion><flowPara
         id="flowPara841-8-0">Förderband</flowPara></flowRoot><flowRoot
       xml:space="preserve"
       id="flowRoot835-3-6"
       style="font-style:normal;font-variant:normal;font-weight:normal;font-stretch:normal;font-size:26.66666603px;line-height:1.25;font-family:'Freestyle Script';-inkscape-font-specification:'Freestyle Script, Normal';font-variant-ligatures:normal;font-variant-caps:normal;font-variant-numeric:normal;font-feature-settings:normal;text-align:start;letter-spacing:0px;word-spacing:0px;writing-mode:lr-tb;text-anchor:start;fill:#000000;fill-opacity:1;stroke:none"
       transform="matrix(0.75000002,0,0,-0.75000002,243.61128,503.16326)"><flowRegion
         id="flowRegion837-2-8"
         style="font-style:normal;font-variant:normal;font-weight:normal;font-stretch:normal;font-size:26.66666603px;font-family:'Freestyle Script';-inkscape-font-specification:'Freestyle Script, Normal';font-variant-ligatures:normal;font-variant-caps:normal;font-variant-numeric:normal;font-feature-settings:normal;text-align:start;writing-mode:lr-tb;text-anchor:start"><rect
           id="rect839-1-2"
           width="177.97519"
           height="41.527542"
           x="105.59861"
           y="231.37817"
           style="font-style:normal;font-variant:normal;font-weight:normal;font-stretch:normal;font-size:26.66666603px;font-family:'Freestyle Script';-inkscape-font-specification:'Freestyle Script, Normal';font-variant-ligatures:normal;font-variant-caps:normal;font-variant-numeric:normal;font-feature-settings:normal;text-align:start;writing-mode:lr-tb;text-anchor:start" /></flowRegion><flowPara
         id="flowPara963">Portalroboter</flowPara></flowRoot></g></svg>