<?xml version="1.0" encoding="UTF-8" standalone="no"?>
<!-- Created with Inkscape (http://www.inkscape.org/) -->

<svg
   xmlns:dc="http://purl.org/dc/elements/1.1/"
   xmlns:cc="http://creativecommons.org/ns#"
   xmlns:rdf="http://www.w3.org/1999/02/22-rdf-syntax-ns#"
   xmlns:svg="http://www.w3.org/2000/svg"
   xmlns="http://www.w3.org/2000/svg"
   xmlns:sodipodi="http://sodipodi.sourceforge.net/DTD/sodipodi-0.dtd"
   xmlns:inkscape="http://www.inkscape.org/namespaces/inkscape"
   version="1.1"
   id="svg2"
   xml:space="preserve"
   width="593.33331"
   height="792"
   viewBox="0 0 593.33331 792"
   sodipodi:docname="Schemata_Extrudermodul.svg"
   inkscape:version="0.92.4 (5da689c313, 2019-01-14)"><metadata
     id="metadata8"><rdf:RDF><cc:Work
         rdf:about=""><dc:format>image/svg+xml</dc:format><dc:type
           rdf:resource="http://purl.org/dc/dcmitype/StillImage" /><dc:title></dc:title></cc:Work></rdf:RDF></metadata><defs
     id="defs6" /><sodipodi:namedview
     pagecolor="#ffffff"
     bordercolor="#666666"
     borderopacity="1"
     objecttolerance="10"
     gridtolerance="10"
     guidetolerance="10"
     inkscape:pageopacity="0"
     inkscape:pageshadow="2"
     inkscape:window-width="1920"
     inkscape:window-height="1137"
     id="namedview4"
     showgrid="false"
     inkscape:zoom="1.6856283"
     inkscape:cx="216.94339"
     inkscape:cy="467.00621"
     inkscape:window-x="1912"
     inkscape:window-y="-8"
     inkscape:window-maximized="1"
     inkscape:current-layer="g10" /><g
     id="g10"
     inkscape:groupmode="layer"
     inkscape:label="Schemata_Extrudermodul"
     transform="matrix(1.3333333,0,0,-1.3333333,0,792)"><g
       id="g12"
       transform="matrix(0.31718062,0,0,-0.31718062,0,594)"><g
         id="g14"><g
           id="g16" /></g><g
         id="g18"><g
           id="g20" /></g><g
         id="g22"
         transform="matrix(3.1527784,0,0,-3.1527784,0,1872.7502)"><g
           id="g24"><g
             id="g26"><path
               d="m 179.13393,330.20627 v 0 l 1.53424,1.51715 0.47076,0.15286 13.94354,-1.5e-4 0.42652,-0.14407 0.0818,-0.52707 2.02009,-1.81247 1.59107,-0.0426 2.4331,0.85202 1.44045,1.30118 19.48431,0.76749 0.25044,0.39078 v 0.34121 l -0.25316,0.39182 -16.84111,0.74942 1.79691,2.86877 0.66402,0.66407 0.74658,0.44598 0.49103,0.79156 1.50831,1.47751 12.18695,0.038 0.65355,-3.32102 -4.3e-4,-2.53241 -0.30732,-0.95291 v -4.43518 l 0.15289,-0.47079 0.42912,-0.47287 0.0417,-0.64103 -0.15143,-0.41339 -0.62718,0.52356 -0.64218,0.0468 h -40.56989 l -0.64212,-0.0466 -0.62672,-0.26529 -19.33307,-0.005 -3.1704,0.62424 -0.62466,-0.26065 -0.95915,-0.0465 -1.58467,0.31631 h -22.18671 l -0.64218,-0.0467 -0.42,-0.42007 2e-5,-0.96753 0.41998,-0.42002 26.75394,-0.0496 0.66134,-10.60336 0.49339,-0.12073 0.30851,0.20355 0.62539,-0.52322 0.32639,-0.0422 55.14853,-0.004 0.6421,0.0466 0.62676,0.26532 1.90065,0.004 0.64216,-0.0467 0.62566,-0.52329 0.39035,0.32139 2.48738,0.56103 0.70153,-2.61929 0.33534,-0.37857 0.0374,-0.32532 -0.14794,-0.46964 -0.42909,-0.47277 2e-5,-0.96756 0.41996,-0.42002 0.32644,-0.0423 34.8636,-0.005 0.64206,0.0466 0.62683,0.26523 1.26565,0.004 0.51859,-0.032 0.74261,-0.87125 2.86026,-0.0469 0.64209,0.0465 0.29975,0.22296 0.52649,0.079 0.54794,0.74353 0.0435,52.31406 -0.3115,1.58355 0.15256,0.4708 0.42914,0.47284 -1.5e-4,0.96618 -0.17072,0.20978 -25.98933,0.51633 0.94145,0.94986 2.67198,3.92398 4.93482,6.53543 1.08721,1.70529 3.98406,5.26764 1.08716,1.70532 0.67697,0.72382 -0.10205,0.74835 -0.47867,-0.10547 -0.41318,-0.41586 -1.90169,-2.53558 -10.59573,-15.01731 -1.44844,-1.78116 -1.09691,-1.71948 -16.02252,-0.80603 -0.53403,1.34595 -0.48207,0.1633 -0.6411,-0.042 -0.42001,-0.41999 -0.0423,-0.32644 v -8.55548 l 0.26529,-0.62671 -0.003,-1.28485 -0.42679,-0.14472 -2.21644,-1.8e-4 -0.95299,0.3074 -3.91988,0.005 -0.76095,162.15518 -0.5022,1.0802 -0.61564,-0.16272 0.2032,-0.30908 0.004,-0.34333 -0.48125,-0.70996 -32.19427,0.48816 -0.5349,1.34137 -0.59378,-0.15021 0.24348,-0.63458 -0.24275,-0.68707 -0.64586,-62.96329 -34.29443,-12.10248 -21.21099,-7.29016 -1.11396,-0.47018 -0.11528,-0.48871 0.42441,-0.14404 0.65122,0.0373 10.61029,3.92013 44.50213,15.64563 0.66124,-0.007 0.14468,-0.4267 0.004,-97.42254 -19.51215,-0.75077 -2.42506,-0.79318 -0.24319,-0.55615 -2e-5,-3.48428 0.15291,-0.4708 0.42911,-0.47284 0.0419,-2.24509 -1.44093,-0.72604 -25.3242,-0.67236 -0.1655,-0.801 0.31798,-0.63589 0.78619,-0.15732 24.40421,0.004 0.63502,0.24859 0.32871,-0.20041 1.49243,0.50754 0.38913,0.34329 0.64224,0.0468 h 21.86975 l 0.64212,-0.0466 0.62674,-0.26529 h 1.58254 l 0.63501,0.24853 0.30867,-0.20657 1.29037,-0.0412 0.7323,0.76926 -0.0534,0.43029 -0.44448,0.75693 -0.66388,0.66391 -0.75432,0.45389 -0.28018,0.44903 -1.50113,1.31574 -1.10145,0.80029 -0.5363,0.8439 -0.91106,0.95127 -0.0421,0.95804 0.14462,0.42678 31.06893,0.0448 0.42665,-0.14474 -0.10773,-0.79535 -1.51739,-1.53024 -0.70267,-1.01132 -0.51717,-0.34015 -0.84829,-1.01783 -0.7544,-0.45327 -1.93171,-1.9318 -0.49804,-0.83477 v -0.35251 l 0.49866,-0.83463 0.56506,-0.24716 0.63395,0.2435 0.30865,-0.20651 0.957,-0.0424 3.15863,0.57837 0.64803,-0.26102 3.16844,-0.005 0.95915,0.0467 0.32201,0.21988 4.5738,-0.62958 0.31923,-0.41729 0.001,-0.32788 -0.64775,-2.68363 -8.55389,0.0135 -0.84308,1.61581 -0.56004,0.53049 -0.3245,0.0377 -1.17025,-0.53409 -1.53028,-1.5173 -0.47076,-0.15292 H 192.5487 l -0.56733,0.25399 -1.40258,2.6521 -0.55856,0.52832 -0.32451,0.0377 -0.41342,-0.0892 -0.84627,-0.5278 -0.57454,-0.58091 -1.08722,-1.70532 -0.55737,-0.52652 -14.60159,-0.0412 -0.50597,0.49512 -1.13263,2.72708 -0.55826,0.52829 -0.95922,0.0468 -0.65102,-0.0434 -3.04636,-1.76056 -0.49104,-0.79156 -0.88267,-0.89032 -0.30869,-0.27024 -0.32642,-0.0423 -13.31845,0.0466 0.007,0.57428 -0.51763,0.34851 -0.91637,1.08581 -0.79248,-0.10446 0.0739,0.353 -0.68291,0.50012 -0.97535,-0.003 -0.24304,-0.17829 -0.68564,0.53302 -0.48368,-0.14798 -1.63345,-1.13406 -0.84491,-1.08585 0.20345,-0.30835 -0.10678,-0.42086 -0.31011,0.20395 -0.33432,-3.1e-4 -0.61685,-0.53674 -0.3264,-0.0423 -3.48424,3e-5 -0.63498,0.24847 -0.31634,-0.18924 -0.25103,0.16123 -0.68527,-0.53326 -0.34973,0.035 -2.37073,1.38415 -4.415,2.21494 -27.0934,14.37936 -0.757176,-0.10553 0.206516,-0.57537 3.55577,-1.97129 23.74903,-12.35736 5.98908,-3.28503 -0.22293,-0.84583 0.26228,-0.6264 3.5e-4,-3.16644 -1.21988,-4.41983 0.19129,-0.56412 1.80572,-0.52167 0.64499,0.22412 0.65474,-0.21475 4.4121,0.84741 0.64801,-0.26105 2.5421,0.0424 0.74266,0.87128 0.18629,0.0268 5.08443,7.7e-4 0.47076,-0.15287 1.53197,-1.51828 1.18448,-0.60815 1.90432,-0.52417 2.7331,1.44894 0.83241,0.81568 0.8354,0.5 13.64432,0.0391 1.16361,-0.5318 0.84233,-1.14132 2.41611,-1.13117 0.98509,-3e-5 m 2.67004,21.0267 v 0 l 1.10753,1.06617 h 0.33432 l 0.55705,-0.52356 0.70273,-1.01166 1.16895,-0.86005 0.82736,-0.88431 -0.41223,-0.14679 -0.63385,0.24326 -0.63504,-0.24853 -4.44503,0.0452 -0.0995,0.43427 m 4.07021,42.44897 v 0 l 0.006,64.36865 0.56706,0.55002 3.45219,1.41663 -0.37089,0.34652 -0.34352,0.005 -2.81641,-1.17795 -0.44432,0.10538 -9e-5,12.06183 0.4268,0.14465 2.2164,1.9e-4 0.47072,-0.1529 0.47285,-0.4291 0.64229,-0.0464 0.65105,0.043 1.24228,0.86014 0.32641,0.0422 1.59191,-0.042 0.30005,-0.22019 0.95951,0.2573 0.95945,-0.2573 0.30006,0.22019 0.64006,0.0421 2.20105,-0.58609 1.28757,0.27329 0.64213,-0.0463 0.30042,-0.2232 1.27408,-0.0424 2.22273,0.62469 0.64008,-0.0421 0.29963,-0.21997 0.39406,0.0488 -0.68501,0.49109 -0.3358,0.039 -0.65117,-0.0371 -1.54639,-0.54996 -0.96788,-0.0376 -9.82641,0.94138 -2.2199,-1.21137 -1.14935,0.58512 -3.12062,0.65576 0.0409,46.73474 0.74254,0.14935 30.75317,-0.0495 0.14963,-1.05951 -0.0498,-158.80157 -0.74252,-0.14929 -10.77637,-3.4e-4 -19.33409,3.4e-4 -0.74252,0.14926 m 8.5079,171.17642 v 0 l 0.005,-4.76691 0.23417,-0.54913 1.8232,-0.55682 11.09018,3.6e-4 0.63582,0.3183 0.15251,0.47046 -0.0416,0.64099 -0.20652,0.30866 0.20655,0.30865 0.0464,0.64215 -0.0468,18.07465 -0.41999,0.41998 h -0.96753 l -0.42,-0.41998 -0.0423,-0.32642 -0.005,-17.43127 0.0465,-0.64215 0.20694,-0.31043 -0.41329,-0.15161 -9.1905,-0.005 -0.6427,0.0495 -0.14466,0.42676 0.0292,6.22442 1.15347,0.6886 4.10526,1.72217 -0.3709,0.34656 -0.34354,0.005 -4.33995,-1.77759 -0.88127,11.02966 -0.78525,0.23786 0.15081,-0.72712 -0.32749,-2.65252 -0.56837,-8.7074 -25.63793,-9.8219 -29.94427,-11.22794 -0.19635,-0.22949 0.002,-0.33386 0.75862,-0.10672 54.47856,20.83356 0.76111,-0.10706 M 177.34732,299.86813 v 0 l -5.08384,0.005 -0.635,0.2485 -0.63504,-0.2485 h -1.58255 l -0.63498,0.2485 -0.63389,-0.24353 -0.62569,0.26029 -0.64207,0.0466 -1.27486,-0.0469 -0.21095,-0.17285 -0.88672,-17.68994 0.0391,-0.64865 0.548,-0.74243 0.53648,0.01 1.1617,0.51193 0.39571,0.34894 0.32644,0.0423 h 2.85036 l 0.95307,-0.30734 15.84539,3e-5 0.47071,0.15286 0.58964,0.62601 -0.25529,0.75894 -20.83051,0.61753 0.16986,0.20999 0.0469,0.64087 -0.004,9.82434 -0.24853,0.63504 0.18968,0.31695 -0.20658,0.30878 -0.0464,0.64203 0.14935,1.0596 1.27555,0.045 0.95303,-0.30737 1.92035,0.0364 3.03798,0.62439 0.73079,0.5932 0.96689,-0.30307 h 13.30974 l 0.47078,0.15289 0.58944,0.62549 -0.0505,0.42258 -0.67734,0.69036 m -9.85356,40.57529 v 0 l 4.76686,-0.005 0.41335,-0.15177 -0.57561,-0.63568 -0.35435,-0.18167 -0.68247,-0.86871 -1.086,-2.01929 -1.67729,-2.46005 -2.37761,-0.64624 -19.01504,-0.004 -0.74002,0.14901 0.10542,0.47858 0.49959,0.68631 2.28731,2.11273 2.91062,3.49887 m 37.4012,167.32099 v 0 l 0.94706,0.38394 1.18081,0.87005 0.8902,0.88263 0.27011,0.30875 -0.10207,0.74832 -0.47859,-0.10538 -1.21356,-1.2004 -1.25673,-0.93961 -1.16206,-0.51227 -2.55211,-0.0382 -3.67583,0.83176 -1.93316,1.29218 -0.84914,0.99807 -0.30545,-0.10659 0.0462,-0.42151 0.43715,-0.74906 2.23932,-1.60583 4.99174,-1.18952 0.65126,0.0369 m -8.59093,-166.75815 v 0 l 16.81226,-3e-4 0.72908,-0.15656 -2.87964,-2.95233 -1.72004,-2.97125 -0.55848,-0.52841 -20.61021,-0.0468 -0.72913,0.15662 1.11309,1.80304 0.49997,0.51748 1.40292,2.33707 1.10145,0.80032 0.89638,0.88349 0.47075,0.15286 m 13.61636,162.27954 v 0 l 0.66269,0.0463 2.41823,1.13473 0.5253,0.55795 -0.0996,0.43415 -0.65093,0.003 -0.71284,-0.66562 -1.38234,-0.56527 -4.53337,-0.89847 -0.9679,-0.0377 -3.27742,0.62229 -1.69575,0.86669 -1.36002,1.62571 -0.42731,-0.11484 1.46846,-2.14282 1.87565,-0.92826 2.12681,-0.52569 2.23843,-0.0411 M 175.00422,263.91839 v 0 l -0.0902,-0.67365 -1.12214,-2.75009 -0.64603,-1.25387 -0.24155,-0.21143 h -6.03683 l -0.21868,0.18518 -1.1744,7.04343 -0.33896,0.94104 -0.36988,-0.0139 -0.81265,-1.60757 -0.69075,-0.53159 -0.066,-0.40896 -0.50863,-0.49182 0.16084,-0.25174 -0.26883,-0.17121 -0.65454,-0.94632 -0.51753,-1.0119 -0.44106,-0.27533 -0.21368,-0.3501 -0.68348,5.91385 -0.62132,0.15949 -0.64607,-3.00122 0.3027,-0.95084 -0.0421,-1.27505 -0.26526,-0.62671 2e-5,-1.58255 0.21249,-0.53626 -8.42482,-0.72101 0.75908,-0.1698 14.10501,-0.0205 0.69199,-2.2016 0.53408,-2.98813 -0.009,-0.66246 -0.4267,-0.1447 -8.87343,-0.005 -6.65484,0.005 -0.42677,0.1447 -0.045,9.51628 0.15289,0.47076 0.42615,0.47248 -3.5e-4,0.33316 -0.17676,0.21481 -2.86667,0.48627 0.55376,1.82891 -3.7e-4,25.03626 -0.15288,0.47067 -0.55107,0.56442 -0.82464,3.70737 0.21147,0.34061 -0.48033,1.17001 -1.63207,2.44837 -1.22806,1.19168 -0.24177,-0.1749 -0.34433,-0.006 -3.80828,1.60715 -4.33827,1.12124 -0.27841,0.10675 -0.42738,0.63037 -0.47704,1.37384 -0.63548,5.4173 0.004,2.85053 0.6248,3.49075 -0.30647,1.59689 0.89786,0.92899 v 0.966 l -0.21599,0.24478 -2.43289,0.85257 -2.53146,6e-5 -3.48959,-0.62011 -0.94984,0.29773 -0.97027,-0.26365 -3.13784,0.85511 -0.64616,-0.25492 -0.95093,0.29734 -0.48497,-0.16077 -0.61186,-14.83179 -0.57091,-5.35098 -1.33612,-1.983 -2.16551,-2.15918 -1.2719,-0.95334 -4.95785,-2.1167 -1.84628,-2.80469 -0.57682,-1.36221 -0.708,-3.90936 -0.4789,-4.01508 -0.67959,-35.93603 0.0468,-0.64223 0.85654,-0.93422 2e-4,-0.65038 -0.21991,-0.30017 0.004,-0.33351 0.43337,0.11348 2.84271,-0.89338 38.66619,-0.004 0.64144,0.0466 0.24301,0.17828 0.68571,-0.533 0.33937,0.0388 0.21987,0.1868 0.52302,1.80595 0.0368,0.96924 -0.25983,0.96111 0.4232,0.13936 0.95818,-0.2566 0.21202,0.17217 0.60483,5.16044 6.90489,0.002 0.6607,-9.33522 0.64505,-0.14865 0.98459,9.48355 6.92527,-0.0117 1.25811,-7.15683 0.49794,-0.68799 0.54795,0.49159 1.72276,5.21268 0.69412,1.34561 -0.20813,0.65309 0.0876,0.10529 7.93972,0.005 0.52767,-0.30283 0.25553,-0.38814 1.15593,-4.4391 0.70027,-2.24582 0.26842,-0.40831 0.68666,0.82582 0.18626,0.0268 13.02794,-0.037 12.51177,-6.14113 2.19712,-0.94455 10.79792,-5.39453 2.19708,-0.94451 10.16405,-5.07757 2.98312,-1.37931 0.65971,0.006 0.0993,0.43349 -0.11536,0.1526 -1.41841,0.78963 -34.24213,16.80219 -3.08293,1.3905 13.3868,0.92605 0.31614,-0.20987 0.33297,6.6e-4 0.20961,0.16797 0.53399,19.88806 -0.11619,0.48911 -0.30948,0.27621 -27.90009,0.0468 -1.58471,-0.31597 -0.64226,0.0464 -0.6169,0.53681 -0.33301,-3.4e-4 -0.21107,-0.17062 -0.6084,-7.06516 -1.70767,10e-4 -0.55593,0.24298 -0.64718,2.11304 -0.73703,3.7211 -0.70259,1.80304 -0.41838,10e-4 -0.35337,-0.52701 m 2.6675,58.42209 v 0 l -0.20319,-0.4834 -0.88441,-0.89663 -0.45334,-0.75449 -3.89865,-3.90176 -0.99802,-0.80796 -0.73268,-0.88781 -5.14685,0.0514 2.70195,2.52725 0.79163,0.49109 3.61613,4.86682 0.44905,0.28021 0.74243,0.88025 1.90715,0.0429 2.91489,-0.56366 m 11.5522,-5.61212 v 0 l 2.08469,3.07089 0.49878,0.51544 0.76783,1.38419 0.87557,0.84561 3.49367,0.042 0.42048,-0.16021 -3.02316,-4.64927 -1.76534,-1.78109 -0.94075,-1.25742 -0.5391,-0.9967 -3.65841,-0.0198 -0.41334,0.1518 0.97793,1.05066 1.13355,1.47836 m 11.01987,172.35022 v 0 l -1.19023,-0.43677 -2.99161,-0.55075 -3.58936,0.58432 -3.2829,1.20193 -0.38848,0.34003 -0.43892,-0.10922 0.82632,-0.86365 3.30873,-1.21292 3.27017,-0.61224 2.55266,0.0376 1.54874,0.52588 2.52682,0.9729 0.46299,0.30762 -0.0124,0.53812 -0.44228,0.10342 M 178.8067,319.37508 v 0 l -0.38681,-0.84873 -0.75984,-0.58392 -0.75942,-0.92605 -3.68591,-0.0274 -0.41333,0.1518 0.0954,0.15225 1.26776,1.28055 0.18169,0.35437 0.76041,0.58432 1.91044,1.91381 0.18183,0.35462 0.70788,0.53863 1.71393,2.33167 1.04695,1.04983 0.47078,0.15287 2.54149,-0.0468 0.0486,-0.20016 -0.44077,-0.75925 -2.08226,-2.41513 -1.40414,-2.02225 m 9.74103,-1.36291 v 0 l -1.54848,-2.03085 -4.95372,-0.0274 -0.41333,0.1518 0.0955,0.15225 0.88246,0.89841 0.45329,0.75442 1.44843,1.46423 0.45326,0.7544 1.7654,1.78119 1.40413,2.02227 0.87434,0.84351 4.13574,-0.005 0.0477,-0.2019 -0.75563,-1.38944 -0.81568,-0.83233 -2.35501,-3.60706 m 11.66954,166.9513 v 0 l -3.02406,-0.76703 -3.1872,-0.0369 -2.14085,0.68894 -2.3633,0.54965 -1.18582,0.6149 -0.7458,-0.11249 0.19529,-0.25128 1.77056,-0.9011 4.78686,-1.53949 2.55339,0.0367 2.635,0.54739 2.64664,0.89432 1.15203,0.69125 -0.11427,0.35556 -0.32573,0.26648 M 180.29356,354.24101 v 0 l 0.0986,-0.97512 0.84738,-1.25174 -2.25264,-2.32447 -0.5363,-0.84384 -0.64693,-0.64346 -0.47079,-0.15289 -4.12683,0.0466 0.008,0.25772 0.95943,0.96597 0.84382,0.53629 0.66396,0.66394 0.53633,0.84384 2.86561,3.1791 0.79488,0.11045 m -0.757,-35.92639 v 0 l 1.59578,1.75985 0.80468,1.30915 1.13266,1.14923 1.40416,2.02221 0.87432,0.84354 3.49368,0.042 0.4205,-0.16021 -1.4384,-2.11362 -1.76535,-1.78116 -0.53633,-0.84381 -1.68234,-1.69177 -0.53633,-0.84385 -1.23296,-1.40267 -3.69464,0.019 0.008,0.25769 0.95136,0.96408 m -3.29145,-55.63007 v 0 l 0.94124,2.02411 1.19846,-4.85754 -0.10794,-0.762 -2.86022,-0.0449 -0.42413,0.14389 0.0375,0.41349 m 26.77688,215.98803 v 0 l -3.23458,-1.29684 -0.97889,0.22363 -0.29892,-0.21701 -0.34635,-0.008 -3.1295,0.54941 -0.98965,-0.23053 -1.78048,0.81372 -0.41108,0.36267 -0.73743,-0.10965 0.51233,-0.56842 1.7021,-0.86807 6.1012,-0.90003 2.68919,0.74851 2.93382,1.33502 0.84478,0.87655 -0.10764,0.47764 -0.3177,0.25985 -0.73641,-0.66321 M 191.45176,347.57645 v 0 l -0.28014,-0.31412 0.002,-0.33637 0.42426,-0.14428 12.67691,-0.005 0.74716,0.15909 -0.65053,0.69094 -0.4154,0.096 -11.72544,0.004 m 9.32106,132.00342 v 0 l 3.57549,2.29492 0.19289,0.2486 -0.40215,0.4245 -0.42358,-0.0498 -2.53785,-1.57565 -1.77385,-0.9024 -2.24894,-0.58704 -5.08863,0.0372 -1.80584,0.52219 -1.1442,1.29477 -0.30545,-0.1066 0.0462,-0.42142 0.44449,-0.7569 0.672,-0.66946 2.40981,-0.81345 4.79338,-2.4e-4 2.26561,0.53622 m 2.64846,20.50565 v 0 l -0.89235,-0.55331 -1.70831,-0.57633 -3.91997,-0.61517 -2.86895,0.0382 -2.5075,0.85528 -0.11753,-0.43005 0.18856,-0.22333 2.0638,-0.62622 2.92458,-0.56445 3.69365,0.58203 2.30848,0.61566 2.67208,1.60504 -0.1142,0.3562 -0.32582,0.26663 m -0.52001,14.47263 v 0 l -0.74748,0.11597 -2.29733,-1.93341 -1.49959,-0.55036 -3.50166,0.0392 -1.77878,1.12671 -0.53954,0.68817 -0.30561,-0.10651 -0.007,-0.3432 0.53703,-0.87317 1.54974,-0.91943 2.12683,-0.5257 0.96845,-0.0369 2.59906,0.6141 0.46466,0.23535 2.16765,1.84015 0.26826,0.31036 M 178.69436,331.72851 v 0 l -1.02588,-0.75622 -0.65109,-0.0431 -0.65248,0.042 -1.16196,0.51334 -0.18199,0.23886 0.72858,0.15579 2.53438,-0.005 m 11.51355,-41.02875 v 0 l 52.4927,-13.43985 0.96887,-0.037 0.42435,0.14432 -0.18745,0.55737 -1.35991,0.39942 -51.66013,12.99988 -8.71261,2.00448 0.11317,-0.35644 0.5611,-0.28443 m 3.36311,-42.56344 v 0 l 0.50845,-0.57231 6.32375,-3.36548 -9.58151,-0.61394 -0.1187,0.10229 -0.0514,18.38974 0.1494,0.74247 24.49024,-0.50992 -0.46122,-0.76801 -0.81465,-0.8305 -1.08716,-1.70532 -0.49755,-0.51331 -1.08721,-1.70535 -0.49759,-0.51334 -4.89059,-7.0935 -0.49756,-0.51339 -2.91327,-4.13325 -0.65849,-0.004 -5.44887,2.59264 -2.76704,1.11296 m -5.69736,3.82997 v 0 l -1.05385,3.29819 1.03001,0.80255 1.28501,-0.003 0.14468,-0.42682 -0.045,-5.07876 -0.43422,-0.0995 -0.47529,0.43565 m -1.37009,0.70834 v 0 l 0.35625,-0.97802 -0.70387,-0.48928 -10.97759,-0.0136 -1.20026,5.17999 0.008,0.66211 0.42668,0.14477 5.38589,1.9e-4 0.95308,-0.30744 4.33095,-0.0423 0.78308,-1.97464 m -4.80705,70.11181 v 0 l -3.09247,-3.69824 -0.45331,-0.75445 -3.51652,-3.51651 -1.47818,-1.13041 -2.22591,-0.042 -0.41328,0.15158 0.19012,0.3187 -0.18976,0.31717 1.11388,1.48639 1.13149,1.14727 0.5363,0.84381 1.59692,1.59369 0.35443,0.18177 1.45209,1.93856 1.31183,1.17533 m -0.36179,-76.56153 v 0 l -1.18376,-2.94743 -0.58597,3.61144 0.009,1.29643 0.42682,0.14474 2.22506,-0.0465 -0.007,-0.25694 -0.23794,-0.25432 m 4.36474,99.45843 v 0 l -1.17642,-0.8674 -1.67465,-1.62799 -2.2258,-0.0421 -0.4243,0.14435 0.10542,0.47869 0.56648,0.57956 0.4533,0.75443 1.44961,1.46625 0.76784,1.38427 0.98209,0.98294 1.16124,0.81345 3.17675,0.042 0.41332,-0.15179 -2.56269,-2.63541 M 164.85074,263.2635 v 0 l 0.8631,-4.1148 -0.10002,-0.11737 -5.08553,-2.5e-4 0.007,0.25702 1.33626,1.97046 0.49755,0.51337 2.12744,3.38037 0.26645,0.0155 m 5.90123,89.53085 v 0 l 2.54828,-0.005 0.41333,-0.15179 -0.57557,-0.63565 -0.3544,-0.18167 -1.13516,-1.62168 -1.44842,-1.4642 -0.45328,-0.75446 -1.68082,-1.68371 -0.47079,-0.15289 -3.80989,0.0466 0.007,0.25714 0.70234,1.01953 1.10144,0.80026 1.84631,1.83362 0.35443,0.18176 1.24887,1.60376 1.07741,0.86127 m -1.89243,-10.68543 v 0 l 0.31438,0.21097 0.57016,-0.51556 0.80379,-1.79068 -0.0975,-0.11545 -4.1261,-0.0466 -0.41334,0.15179 1.14636,1.20243 m 0.78781,-19.46378 v 0 l -0.78912,-0.50458 -1.61728,-1.61633 -1.08368,-1.38678 -1.13324,-1.14807 -1.07884,-1.5546 -0.0516,3.5629 1.16601,1.71784 1.09706,1.22659 0.76108,1.37735 1.19922,0.85242 3.50244,-0.004 -0.008,-0.25732 -0.51755,-0.34848 m -6.65721,-28.68265 v 0 l 0.2084,0.49945 0.74289,0.59033 -0.10659,0.30545 -0.42151,-0.0462 -0.74912,-0.43741 -0.42416,-0.74124 -1.15662,-2.65561 -0.58091,-2.24915 -4e-5,-3.48233 0.63717,-3.28296 1.53564,-2.22265 0.30559,0.10693 0.003,0.33414 -0.35826,0.40839 -0.86663,1.69574 -0.58564,2.93853 -0.0366,3.50418 0.58107,2.24909 0.60419,1.47009 m -0.0735,-19.09607 v 0 l -1.20649,1.21436 -1.02371,1.66638 -0.63162,1.58484 -0.63332,2.21875 -1.10308,5.21026 -0.004,5.70304 0.8694,4.11368 0.9538,2.45587 1.2557,1.88989 0.89408,0.90033 1.38339,0.62588 -0.45464,0.5781 -1.16995,-0.50073 -0.88681,-0.88025 -1.67744,-2.61347 -0.60625,-1.26092 -0.40413,-1.3833 -0.79106,-3.92508 0.0411,-6.04172 0.84456,-4.16797 0.58604,-2.09869 0.68207,-2.25382 0.92407,-1.81915 2.58146,-2.75189 0.35658,0.11599 0.25926,0.31705 m 5.30016,77.18457 v 0 l -1.17644,-0.86734 -3.38361,-3.21835 0.21111,-0.51871 -0.0876,-0.10528 -1.90811,-0.0465 -0.42681,0.14465 -0.045,3.81125 0.2653,0.62674 0.0603,0.78595 2.11424,0.71179 2.76523,0.52957 2.55431,0.036 0.41333,-0.15179 m -8.85622,-83.17856 v 0 l -1.63147,1.82068 -0.95025,1.58417 -1.25567,2.20639 -0.98939,2.84814 -0.95444,4.71909 -0.82966,8.19281 0.004,1.58374 0.24852,0.63504 -0.20643,0.3088 -0.005,0.66153 1.43427,6.2165 1.29841,2.86926 0.62181,0.93902 1.61478,1.61481 1.60195,1.13605 -0.10743,0.30807 -0.32492,0.0404 -0.46907,-0.14716 -1.96834,-1.33734 -0.98193,-0.98285 -1.87498,-3.72085 -0.9432,-3.33179 -0.88478,-6.15918 1.17174,-9.86954 1.19159,-5.15472 1.27306,-2.88403 1.6512,-2.91022 1.13272,-1.14939 0.49104,-0.79165 1.77829,-1.12473 0.48648,0.11209 0.27608,0.30951 v 0.65045 l -0.42804,0.40363 -0.32622,-0.19727 m 1.2632,55.41034 v 0 l 2.30044,-0.0987 -0.64074,-0.48236 -1.39719,-2.0148 -0.99971,-1.1644 -0.19902,0.002 -0.15437,0.4314 0.0448,3.17722 m -2.83595,9.17587 v 0 l 0.18799,0.008 m 0.20727,5.22812 v 0 l 3.19205,-0.0499 0.0995,-0.43423 -1.94187,-1.99118 -0.5363,-0.84387 -1.36538,-1.37476 -1.48294,-1.92013 -18.85636,-0.62632 -0.32153,0.21759 -0.34358,0.004 -0.91625,-0.54477 -0.96686,-0.0386 -0.4243,0.14428 0.10489,0.47803 0.70337,1.01767 1.61556,1.61658 1.79445,1.44549 0.65931,0.003 1.0212,-0.66897 2.12257,-0.81748 0.008,0.25446 -0.73387,0.73315 -2.01804,1.08594 -0.19488,0.24969 0.48469,0.54254 3.61806,0.9076 0.54114,0.57712 m 13.50984,-5.42234 v 0 l 0.008,-0.18802 m -0.31152,-0.31308 v 0 l -0.008,0.18796 M 147.68501,227.11741 v 0 l 0.28327,0.31451 0.0421,0.32802 -0.045,2.5432 -0.42685,0.14431 -0.64151,-0.0445 -0.14465,-0.4268 0.0421,-2.54273 0.41952,-0.41701 m 1.69921,20.39621 v 0 l -0.25487,-0.004 -0.79327,0.74677 -1.59308,0.047 -0.96729,-0.044 -0.3842,-0.21875 -10.99774,-0.63839 -0.11868,0.10231 -0.002,14.27821 1.05841,0.14487 0.96936,-0.26663 1.55022,0.8616 0.33589,0.0392 11.4173,-0.0453 0.14463,-0.42684 -0.0421,-0.95798 -0.5232,-0.62561 0.52025,-0.62522 -0.2621,-0.96066 m -2.27393,-37.07684 v 0 l -0.42309,-0.15831 -1.26859,-7e-4 -0.62683,0.26513 -0.65034,-1.8e-4 -0.41712,-0.41953 2.6e-4,-0.33358 0.71743,-0.50104 1.92633,-0.5542 1.82545,0.51852 0.22995,0.54577 -0.0423,2.85977 -0.41962,0.41708 h -0.33438 l -0.41962,-0.41708 m -0.0471,12.68355 v 0 l -0.047,-0.97313 -0.22007,-0.29975 1.5e-4,-0.33439 0.73363,-0.73362 0.47775,0.10761 0.27623,0.30943 0.0423,3.49372 -0.15285,0.47042 -0.30945,0.27594 -9.8327,0.0423 -0.47042,-0.15279 -0.27305,-0.30905 0.16983,-0.54354 9.60289,-0.61084 m -0.80338,8.91091 v 0 l 0.97153,-0.0517 0.0985,-0.11627 -0.58095,-1.39719 -0.1378,-0.0153 -13.96535,5.3e-4 -0.62676,0.26531 -0.6421,0.0465 -23.77146,-3e-5 -0.64214,-0.0464 -0.31044,-0.20692 -0.10527,0.0876 -0.0511,30.11799 0.0466,0.64215 0.26526,0.62671 0.004,4.11933 -0.0466,0.64209 -0.26529,0.62677 -3.5e-4,1.89859 0.3076,1.23129 0.63153,5.05368 0.86374,2.48718 0.97622,0.9772 2.36682,0.7985 2.52801,1.25219 1.20515,0.87259 1.31727,0.70844 1.29976,1.29895 0.93964,1.25677 0.51218,1.16202 -0.004,0.65997 -0.17815,0.24308 0.50861,0.4913 -0.0134,0.85043 -0.17749,0.24112 0.91891,0.76435 0.56895,8.81466 -4.5e-4,2.21533 -0.26155,0.64835 0.61704,3.61142 4.56197,-0.61337 1.28738,0.0413 1.86255,0.54925 0.97165,-0.26913 1.27426,0.0421 0.24106,0.17743 0.49986,-0.6828 0.0394,-1.28274 -0.71714,-3.92786 -0.50409,-4.33527 0.60172,-4.0252 0.22319,-0.61386 0.6274,-0.94748 0.98295,-0.98215 1.38425,-0.76779 0.50636,-0.48853 2.02542,-0.62512 2.72948,-0.54886 2.65686,-1.50119 1.61031,-2.87768 0.57292,-1.40015 0.61238,-3.26987 -4.3e-4,-2.84945 -0.30269,-0.95087 0.93717,-7.79794 0.6356,-15.14542 -13.4478,-0.94537 -0.65417,0.21109 -0.42501,-0.40238 -0.008,-0.34628 0.2303,-1.19379 0.61903,-14.57338 0.20993,-0.16858 0.33292,-6.5e-4 0.30851,0.20367 0.62539,-0.52318 0.32643,-0.0423 m 68.60899,75.88795 v 0 l 0.36997,0.19778 0.68179,0.86997 0.76878,1.38522 0.87584,1.16187 3.80986,0.0421 0.41333,-0.15173 -0.66215,-0.73584 -0.76784,-1.38419 -0.95207,-1.26986 -0.81452,-0.8303 -1.0872,-1.70535 -0.81453,-0.83029 -0.45328,-0.75446 -1.19128,-1.16043 -3.4937,-0.042 -0.41335,0.1518 2.3821,3.3898 0.81456,0.83032 m -50.3409,10.83658 v 0 l 3.56826,-0.0986 -1.63562,-1.12549 -0.64907,-0.0389 -1.49981,0.52951 -0.71315,0.41608 -0.0153,0.26596 m 46.61324,-86.1594 v 0 l -1.60732,0.05 -0.0995,0.4343 1.30797,1.67421 1.7211,2.65609 0.49754,0.51339 1.72109,2.65612 0.4976,0.51338 1.7211,2.65615 0.49753,0.51343 2.35501,3.60696 0.4988,0.51544 1.40294,2.33713 0.55738,0.52655 3.18668,-0.003 0.13969,-0.42575 -0.26014,-0.62555 -0.0465,-0.64212 -0.0138,-16.30833 -2.36567,-0.64415 m -11.72626,84.97754 v 0 l -0.851,0.50555 -0.19357,0.25006 0.0872,0.10486 3.49292,0.0463 0.41292,-0.15116 -0.7527,-0.53759 -1.54903,-0.52097 m 1.87416,-4.8587 v 0 h 4.46071 l -0.007,-0.25705 -1.64599,-2.59656 -0.82898,-0.52893 -3.61557,-4.86701 -0.5574,-0.52655 -4.1375,0.003 -0.0995,0.43424 0.8104,1.16088 1.76537,1.78119 2.21941,3.17109 0.76829,1.38467 m -64.0775,-103.06763 v 0 l -0.65416,-0.0457 -0.41879,-0.4208 0.1076,-0.47775 0.30941,-0.27624 4.12764,-0.0422 0.47036,0.15275 0.27306,0.30921 -0.1076,0.47767 -0.30945,0.27629 m 3.47122,121.3731 v 0 l 0.008,-0.18796 M 131.36573,220.94414 v 0 l 0.11789,0.48332 -0.41781,0.42091 -0.3264,0.0423 -3.48423,-5e-5 -0.47039,-0.15281 -0.27305,-0.30915 0.1076,-0.47775 0.30943,-0.27624 0.32643,-0.0422 h 3.48421 m 5.39615,116.00628 v 0 l -0.80705,-0.79898 -0.2576,-0.008 -0.005,0.6496 0.22005,0.30017 -0.26227,0.96048 1.9e-4,1.26562 0.14473,0.42664 0.6612,0.007 1.78034,-0.8161 0.19723,-0.25122 m -11.17396,-99.36374 v 0 l -0.96364,-0.005 -0.42656,-0.14462 v -0.96851 l 0.4268,-0.14465 6.97062,-2e-4 0.47038,0.15283 0.27304,0.3091 -0.10761,0.47775 -0.3094,0.27617 -0.32641,0.0423 m -4.87188,50.10554 v 0 l 0.5429,0.76999 -0.49303,0.85254 -0.24052,0.20962 -0.96675,1.6e-4 -0.41987,-0.42008 -0.0375,-0.32529 0.33071,-0.83456 0.75998,-0.53531 m -2.37529,-35.72369 v 0 l -0.31642,0.64509 -0.47763,0.10767 -0.48056,-0.28146 -0.88071,-1.4206 0.53617,-0.74092 0.19704,8e-5 1.26323,0.9055 m -0.40953,5.61969 v 0 l 0.20862,0.23557 -3e-4,0.33673 -0.41694,0.41943 -0.3264,0.0422 -0.95807,-0.0422 -0.73399,-0.73651 0.1076,-0.47781 0.30942,-0.27619 0.3265,-0.042 0.64988,0.0386 m 4.2535,71.10224 v 0 l 0.36816,0.19049 0.54704,0.75299 -0.003,1.29309 -0.20661,0.30865 0.1901,0.31882 -0.0869,0.1026 -1.49128,-0.48608 -0.5283,-1.51679 0.58261,-0.94674 0.48867,-0.11679 m 0.78194,10.24316 v 0 l -0.48333,0.11786 -1.69319,-1.49393 0.21075,-0.51694 -0.18976,-0.31717 1.15792,-1.07635 0.5307,0.0149 0.73629,0.73627 0.0423,1.90903 m -8.06372,-116.16164 v 0 l -3.50852,-0.0471 -0.41703,-0.41968 v -0.33432 l 0.41702,-0.41967 0.32639,-0.0422 6.02934,0.0422 0.41702,0.41963 v 0.33436 l -0.41705,0.41968 m -0.89117,25.33051 v 0 l -0.68238,1.01574 -0.80109,-0.281 -0.63833,1.70454 -0.15765,0.12175 -0.96641,2.3e-4 -0.73383,-0.73616 0.0489,-0.42183 0.68563,-0.96641 0.96672,-4.6e-4 0.31046,0.20695 0.10284,-0.0873 -0.19947,-0.642 0.72043,-0.74506 h 0.9675 l 0.41685,0.41895 m 3.38352,25.79039 v 0 l -0.15353,-0.42206 0.24665,-0.56793 0.83501,-0.49872 0.48648,0.11206 0.27329,0.30914 -0.10769,0.47815 -0.62635,0.59281 m -4.22044,-0.4332 v 0 l 0.18773,0.32059 -0.40463,0.42938 -0.65044,3e-5 -0.41993,-0.41995 v -0.65039 l 0.41902,-0.41699 0.42424,0.0517 0.60151,0.4422 m 2.26097,55.7095 v 0 l -0.42311,0.1583 -0.96107,-0.0417 -0.94329,-0.90976 -0.11221,-0.48687 0.58587,-0.926 0.47909,-0.1607 0.64112,0.0419 0.62634,0.59256 0.15291,0.47082 m -2.84887,-24.71457 v 0 l 0.81053,-0.12326 0.74288,0.54785 v 1.03498 l -0.74293,0.54803 -0.85142,0.0113 -0.54795,-0.74295 0.003,-0.65912 m 4.85859,34.96497 v 0 l 0.008,-0.18796 m 77.87592,-19.8789 v 0 l 1.74556,2.44427 0.81453,0.83032 1.08719,1.7053 1.1203,1.13647 0.77879,1.71182 0.73262,0.73715 0.47078,0.15287 2.22513,-0.0466 -0.007,-0.25705 -2.60286,-4.18705 -0.49997,-0.51745 -0.76782,-1.38422 -0.49997,-0.51745 -0.76783,-1.38431 -0.41421,-0.41791 -0.78658,-0.15744 -2.21746,0.005 m -80.70617,14.73337 v 0 l -0.54071,0.88968 -0.8379,0.47998 0.059,-0.35041 -0.79427,-0.70291 0.18927,-0.31656 -0.20659,-0.30862 3.4e-4,-0.96744 0.42006,-0.41989 h 0.65045 l 1.05371,1.05362 m -2.93714,-50.23413 v 0 l -0.8608,-0.0269 -0.54054,-0.75976 0.5404,-0.7598 0.8427,0.0145 1.03722,1.06345 -0.345,-0.0679 m 59.6724,-30.66661 v 0 l -0.0751,-0.39366 -0.50064,1.95703 0.0996,0.11467 0.4325,-0.0954 m 7.80543,92.01378 v 0 l 0.62824,-0.57757 0.43475,-0.79022 -0.0953,-0.11356 -1.59067,-0.0465 -0.4205,0.16025 0.48762,0.84573 m -14.74008,-11.00192 v 0 l 0.188,0.008 m 36.88025,138.83569 v 0 l -0.31813,-0.63739 0.0488,-0.39398 0.48913,0.68479 -0.11344,0.43072 m -3.5532,-0.96454 v 0 l -3.75499,-0.51693 3.1875,-0.0366 0.63506,0.24853 0.31874,-0.19006 0.10417,0.42129 m 1.70394,-0.31763 v 0 l 0.4152,-0.11364 0.0893,0.10534 -0.42235,0.10517 m -1.34995,-0.41376 v 0 l 0.40635,-0.15625 0.41517,0.14774 -0.41264,0.14816 M 145.54433,344.07095 v 0 l 0.40754,0.16101 0.73094,-0.15256 -0.414,-0.15299 m -0.64247,-0.32931 v 0 l 0.42535,-0.0935 1.38568,-0.75952 0.21152,-0.24188 -0.003,-0.65027 -0.4267,-0.14468 -3.49287,0.0465 0.008,0.25769 1.38404,1.55999 m -2.65896,-0.66772 v 0 l 0.008,-0.18799 m 1.2594,-0.12894 v 0 l 0.008,-0.18798 m -15.51815,-94.15096 v 0 l -0.48337,-0.20294 -0.58985,-0.62694 0.10766,-0.47813 0.95161,-0.89328 0.56567,0.51013 0.49993,0.8354 0.0341,0.33475 -0.14802,0.46866 -0.30911,0.27304 m -0.31223,4.79845 v 0 l -0.53207,-0.025 -0.54498,-0.74425 0.112,-0.48667 0.95165,-0.89325 0.4283,0.40342 0.0468,0.64223 -0.0496,0.95952 m -2.01094,4.22729 v 0 l -1.0608,-0.74118 -0.0149,-0.52575 0.74178,-0.54601 0.43029,0.0534 0.96329,0.68515 -0.26705,0.64197 -0.46856,0.42706 m -4.98563,-10.56262 v 0 l -0.18798,-0.008 m 86.83175,70.68132 v 0 l 2.39572,3.70557 0.49876,0.51541 0.76786,1.38425 0.48753,0.50433 0.47574,1.09357 1.03566,1.03875 0.78659,0.15735 1.9006,-0.005 0.42411,-0.14389 -0.0476,-0.42401 -0.37589,-0.69461 -1.91181,-3.17227 -1.82291,-2.15591 -1.08722,-1.70533 -0.41296,-0.41589 -0.47081,-0.15292 -2.21639,1.8e-4 -0.42503,0.14539 m -82.30738,19.4342 v 0 l 0.008,-0.18802 m -5.27086,-41.29751 v 0 l -0.55021,-0.74405 0.003,-0.65921 0.29345,-0.50934 0.76207,-0.53504 -0.0879,0.41983 0.29558,0.18021 0.84486,1.08643 -0.72051,0.74539 m -8.23535,-56.05365 v 0 l -0.65415,-0.0457 -0.41879,-0.42071 0.10759,-0.47783 0.30943,-0.27625 0.32641,-0.0423 6.97071,5e-5 0.47038,0.15274 0.27304,0.3091 -0.10761,0.47779 -0.3094,0.27617 -0.32641,0.0423 m 90.55698,108.55326 v 0 l 1.61603,1.38108 2.03087,2.96551 0.66406,0.66406 0.77701,0.47529 0.55973,1.63687 0.79114,-0.0353 -0.007,-0.25717 -2.28714,-3.87207 -1.13147,-1.14725 -1.45232,-1.9296 -1.15016,-0.0273 m 0.54085,-5.56018 v 0 l 0.40637,0.15616 0.41513,-0.14777 -0.4126,-0.14813 m 1.46485,6.47137 v 0 l 1.95389,2.33417 1.40293,2.65326 1.04751,1.36816 1.1036,0.15772 2.21746,-0.005 0.41339,-0.15182 -2.3821,-3.70676 -1.13087,-1.46365 -0.50028,-0.83539 -0.0681,-0.50794 -1.07434,-0.56494 -0.32768,0.19907 -0.30834,-0.20361 h -0.33424 l -0.30829,0.20358 -0.30774,-0.2034 -0.34491,-0.006 -1.05555,0.57441 m 40.85618,-5.22596 v 0 l -0.0458,0.66336 -0.81568,2.09586 -0.24485,0.21588 -0.3244,0.0376 -0.46976,-0.14789 -0.41301,-0.41592 -1.58535,-2.53702 -4.73137,-8.29254 -0.72557,2.22668 -0.99033,4.17972 -1.02611,2.91803 -0.0377,1.28522 0.26523,0.62674 -2e-4,0.9675 -0.41962,0.41708 -0.33432,1.8e-4 -0.51274,-0.29281 -0.99582,-1.50022 -7.73001,-13.43573 0.16029,-0.73529 -0.42292,0.10251 -0.0929,-0.0929 0.95178,-0.69122 0.18742,0.0549 -0.18896,0.31772 1.29568,1.36795 6.3452,10.42572 2.644,-10.4393 0.5789,-1.14877 h 0.96553 l 0.22379,0.19174 0.55832,1.50089 1.04536,1.37139 5.04526,8.19925 1.08949,-4.43429 1.22786,-3.42212 0.75516,-2.68939 0.4993,-0.71747 0.96679,-1.5e-4 0.42002,0.41989 0.005,1.61239 -1.12292,3.38111 -0.84839,2.06057 m -3.51961,-26.5382 v 0 l -25.49907,0.007 -0.92085,28.61783 -0.64606,0.68536 -0.0468,0.64215 0.004,2.53464 0.30238,0.95187 -0.2603,0.62567 -0.0421,0.95801 0.30703,0.95316 -0.0418,0.64102 -0.26526,0.62671 v 3.80114 l 0.24847,0.63501 -0.20649,0.30872 -0.0416,0.64102 0.23683,0.55194 1.0323,0.51096 -0.16366,0.61764 -0.30959,-0.20327 -0.33475,0.002 -0.14407,0.42444 0.66395,9.02804 1.94628,-0.2843 12.1991,-0.58807 -2.99711,-4.25534 -0.49752,-0.51334 -1.08722,-1.70532 -0.49756,-0.51337 -1.40296,-2.33713 -0.49871,-0.51547 -0.48717,-0.84567 0.10139,-0.10111 0.51834,0.27603 0.6814,0.86664 2.98941,4.24146 0.49754,0.51336 1.08722,1.7053 2.58381,3.39383 24.92285,0.032 0.74249,-0.14929 -0.64746,-51.61832 -0.19595,-0.36285 0.21249,-0.31644 -4e-4,-0.65042 -0.41977,-0.42005 -0.64013,-0.0424 -5.39252,0.62481 m -11.71126,-56.72993 v 0 l -19.36282,0.0465 0.41318,0.3554 6.47471,2.99325 0.52542,0.55807 -10e-6,0.33429 -0.41713,0.41956 -0.3245,0.0376 -4.04287,-1.79101 -4.34587,-2.15938 -1.82051,-1.33737 0.3829,-0.34415 0.30893,0.20645 0.65034,-3.2e-4 0.72383,-0.677 2.85416,-1.90244 1.38519,-0.76873 3.26099,-2.26252 0.3253,-0.0374 0.46924,0.14779 0.27303,0.30905 -0.10765,0.47821 -0.32653,0.33019 -3.89436,2.61941 -1.38438,0.76914 -0.19541,0.25137 0.0872,0.10472 25.6883,5e-5 -0.008,-0.25765 -0.95946,-0.96601 -0.84383,-0.53629 -1.14729,-1.13145 -0.75447,-0.45331 -1.15744,-1.191 0.10765,-0.47805 0.31767,-0.32258 0.30826,-0.26727 h 0.33441 l 1.79274,1.12621 1.78322,1.76663 2.88045,2.08681 0.0648,0.39997 0.86813,0.74291 2.4e-4,0.33359 -0.99118,1.04045 -0.49102,0.79161 -5.06345,3.79623 -1.7946,1.1214 -0.43704,-0.41104 -5e-5,-0.65051 0.26962,-0.30811 6.27545,-4.75705 -0.41293,-0.15112 m -43.83586,61.95569 v 0 l 1.11673,1.8067 1.44963,1.7832 2.2054,3.47245 0.4765,1.09442 0.30229,0.30777 4.99341,0.55914 0.3317,0.26636 0.10542,-0.0876 0.004,-6.03811 -0.67819,-0.72565 -1.491,-2.74506 -0.4789,-0.16101 -0.94974,-0.005 -2.21756,0.005 -0.4205,0.1603 0.48761,0.84577 0.48627,0.50226 0.47574,1.09362 3.02318,3.99076 1.12611,1.7926 -0.0992,0.43189 -0.57419,-0.20447 -1.72172,-2.65601 -2.38805,-3.0379 -0.47571,-1.09354 -1.30479,-1.48095 -3.36873,-0.0274 m 9.83653,30.42767 v 0 l -3.20141,0.0363 -1.64356,0.50919 1.41353,2.36041 1.12097,1.45471 0.47574,1.09351 0.97745,1.29397 1.16345,0.79013 0.10684,-0.4208 -0.21704,-0.29963 v -0.33432 l 0.26222,-0.62634 -1.9e-4,-5.38589 -0.14615,-0.42792 m -1.0504,-30.63995 v 0 l 1.302,2.08029 0.49062,-0.7887 -0.007,-1.612 -0.42677,-0.14459 -0.95804,0.0421 m 35.19684,-61.15226 v 0 l -0.008,0.18791 m -32.8694,98.16601 v 0 l -0.18801,-0.008 M 93.973045,242.18968 v 0 l 2.440499,-1.81724 0.830307,-0.81452 0.754455,-0.45334 1.147255,-1.13142 0.754456,-0.45329 1.286673,-1.28684 0.4893,-1.10779 1.79671,-0.53779 2.3309,-2.00369 2.4179,-1.44765 0.4405,0.10377 -0.10534,0.47852 -2.00068,1.99805 -0.84385,0.53633 -1.05786,1.04843 -0.75444,0.45329 -1.14393,1.19956 0.24586,0.44084 5.17315,0.60759 0.17213,0.21202 3.3e-4,0.33313 -0.27304,0.30902 -0.4704,0.15279 -3.80024,4.2e-4 -2.14436,-0.55931 -0.38455,-0.33707 h -0.33443 l -1.040333,0.99114 -2.339211,1.7211 -1.147262,1.13145 -2.339211,1.72112 -0.830314,0.8145 -0.754433,0.45326 -1.147263,1.1315 -2.33921,1.7211 -0.830307,0.81447 -0.754456,0.45331 -1.147262,1.13145 -2.339203,1.72115 -2.415062,2.0823 -0.75444,0.45327 -2.732026,2.3993 -0.754455,0.45331 -1.147255,1.13144 -2.339211,1.72107 -1.213302,1.20044 -0.794853,0.1105 -0.309517,-0.27612 -0.107613,-0.47775 1.474442,-1.50791 2.339195,-1.72107 0.830314,-0.81451 0.754448,-0.45331 2.41507,-2.0823 0.754448,-0.4533 0.830315,-0.81456 0.754432,-0.45324 1.14727,-1.1315 2.339196,-1.72103 2.415069,-2.0824 0.754456,-0.45329 1.147255,-1.13142 2.33921,-1.7211 M 222.33458,354.95212 v 0 l 0.008,-0.18796 M 101.10716,222.70509 v 0 l 0.0471,-1.60688 0.41964,-0.41709 0.64261,0.20328 0.635,-0.24847 h 2.21644 l 0.47038,0.15275 0.27306,0.30921 -0.10761,0.47767 -0.30944,0.27629 -2.68775,0.0606 -0.64174,2.03576 -0.15776,0.11897 -0.4766,-0.10728 -0.2762,-0.30937 m 0.32029,4.11728 v 0 l 0.42317,-0.15795 0.74437,0.14379 0.045,3.17721 -0.15285,0.47051 -0.30905,0.27296 -0.47778,-0.10759 -0.27622,-0.30937 m 9.31685,17.52371 v 0 l -0.57956,-0.51497 -0.4999,-0.8354 0.003,-0.65935 0.41987,-0.42003 h 1.28447 l 0.40346,0.42807 -0.20659,0.3089 -0.0792,1.15964 m -1.06312,-26.349 v 0 l -0.97308,-0.0472 -0.30927,-0.27617 -0.10759,-0.47775 0.41703,-0.41963 4.12758,-0.0422 0.47038,0.15283 0.27306,0.30913 -0.10761,0.47767 -0.30943,0.27629 m 1.42481,24.62108 v 0 l 0.1413,-0.43639 0.81727,-0.0244 0.57634,1.06553 0.01,0.53632 -0.752,0.53532 -0.76754,-0.84802 m 4.88901,70.06674 v 0 l -0.16626,0.72583 0.15778,0.72953 0.15781,-0.72977 m 2.06776,13.85391 v 0 l -0.008,0.18796 m 20.59643,9.82159 v 0 l 0.008,-0.18795 m 0.32238,0.3208 v 0 l -0.008,0.18801 m -17.54655,-17.66354 v 0 l -0.30433,-0.18713 0.53653,-0.75449 0.83322,-0.0276 0.47082,0.15287 0.48199,0.48217 0.11199,0.48673 -0.54615,0.74264 -0.51743,0.0271 -0.47793,-0.16034 m 21.7067,17.84855 v 0 l 0.008,-0.18796 m 14.03642,-25.88721 v 0 l -0.18799,-0.008 m 62.70079,-2.22736 v 0 l 0.15021,0.42404 0.15469,-0.41504 v -1.26547 l -0.15336,-0.41391 -0.15339,0.41391 m -92.6976,-66.45648 v 0 l -0.64676,0.0485 -0.42855,-0.14409 -0.0445,-0.64145 0.1436,-0.42427 0.42299,0.0483 0.66289,0.4911 m -5.03179,64.53485 v 0 l -0.4733,0.43219 h -0.33421 l -0.73647,-0.73404 -0.003,-0.6593 0.74113,-1.0448 0.64969,-1.2e-4 0.42005,0.41983 -10e-6,1.28433 m -9.68981,-59.18138 v 0 l 0.50164,0.83672 -0.004,0.65953 -0.41994,0.42001 h -0.65045 l -0.73687,-0.73689 v -0.65047 l 0.73647,-0.73404 m -5.86684,0.73326 v 0 l -0.14435,0.47714 -0.3109,0.2771 -0.32525,0.0374 -0.47724,-0.15538 -0.49004,-0.53764 -0.3537,0.29808 -0.0957,-0.38745 0.60971,-1.40099 0.15392,-0.0174 0.65317,0.30934 0.74558,0.78482"
               style="fill:#000000;fill-opacity:1;fill-rule:nonzero;stroke:none"
               id="path28"
               inkscape:connector-curvature="0" /></g></g></g></g><flowRoot
       xml:space="preserve"
       id="flowRoot835"
       style="font-style:normal;font-variant:normal;font-weight:normal;font-stretch:normal;font-size:26.66666603px;line-height:1.25;font-family:sans-serif;-inkscape-font-specification:'sans-serif, Normal';font-variant-ligatures:normal;font-variant-caps:normal;font-variant-numeric:normal;font-feature-settings:normal;text-align:start;letter-spacing:0px;word-spacing:0px;writing-mode:lr-tb;text-anchor:start;fill:#000000;fill-opacity:1;stroke:none"
       transform="matrix(0.75000002,0,0,-0.75000002,-0.44493797,589.10569)"><flowRegion
         id="flowRegion837"><rect
           id="rect839"
           width="283.57379"
           height="71.190071"
           x="53.985806"
           y="86.031776" /></flowRegion><flowPara
         id="flowPara841"
         style="font-style:normal;font-variant:normal;font-weight:normal;font-stretch:normal;font-size:26.66666603px;font-family:'Freestyle Script';-inkscape-font-specification:'Freestyle Script, Normal';font-variant-ligatures:normal;font-variant-caps:normal;font-variant-numeric:normal;font-feature-settings:normal;text-align:start;writing-mode:lr-tb;text-anchor:start">Ultraschallsensor</flowPara></flowRoot><flowRoot
       xml:space="preserve"
       id="flowRoot835-0"
       style="font-style:normal;font-variant:normal;font-weight:normal;font-stretch:normal;font-size:26.66666603px;line-height:1.25;font-family:sans-serif;-inkscape-font-specification:'sans-serif, Normal';font-variant-ligatures:normal;font-variant-caps:normal;font-variant-numeric:normal;font-feature-settings:normal;text-align:start;letter-spacing:0px;word-spacing:0px;writing-mode:lr-tb;text-anchor:start;fill:#000000;fill-opacity:1;stroke:none"
       transform="matrix(0.75000002,0,0,-0.75000002,-8.7431662,512.80888)"><flowRegion
         id="flowRegion837-1"><rect
           id="rect839-7"
           width="283.57379"
           height="71.190071"
           x="53.985806"
           y="86.031776" /></flowRegion><flowPara
         id="flowPara841-8"
         style="font-style:normal;font-variant:normal;font-weight:normal;font-stretch:normal;font-size:26.66666603px;font-family:'Freestyle Script';-inkscape-font-specification:'Freestyle Script, Normal';font-variant-ligatures:normal;font-variant-caps:normal;font-variant-numeric:normal;font-feature-settings:normal;text-align:start;writing-mode:lr-tb;text-anchor:start">Granulatspeicher</flowPara></flowRoot><flowRoot
       xml:space="preserve"
       id="flowRoot835-0-9"
       style="font-style:normal;font-variant:normal;font-weight:normal;font-stretch:normal;font-size:26.66666603px;line-height:1.25;font-family:sans-serif;-inkscape-font-specification:'sans-serif, Normal';font-variant-ligatures:normal;font-variant-caps:normal;font-variant-numeric:normal;font-feature-settings:normal;text-align:start;letter-spacing:0px;word-spacing:0px;writing-mode:lr-tb;text-anchor:start;fill:#000000;fill-opacity:1;stroke:none"
       transform="matrix(0.75000002,0,0,-0.75000002,-6.4109883,446.98923)"><flowRegion
         id="flowRegion837-1-0"><rect
           id="rect839-7-5"
           width="283.57379"
           height="71.190071"
           x="53.985806"
           y="86.031776" /></flowRegion><flowPara
         id="flowPara841-8-8"
         style="font-style:normal;font-variant:normal;font-weight:normal;font-stretch:normal;font-size:26.66666603px;font-family:'Freestyle Script';-inkscape-font-specification:'Freestyle Script, Normal';font-variant-ligatures:normal;font-variant-caps:normal;font-variant-numeric:normal;font-feature-settings:normal;text-align:start;writing-mode:lr-tb;text-anchor:start">Extruderschnecke</flowPara></flowRoot><flowRoot
       xml:space="preserve"
       id="flowRoot835-0-9-7"
       style="font-style:normal;font-variant:normal;font-weight:normal;font-stretch:normal;font-size:26.66666603px;line-height:1.25;font-family:sans-serif;-inkscape-font-specification:'sans-serif, Normal';font-variant-ligatures:normal;font-variant-caps:normal;font-variant-numeric:normal;font-feature-settings:normal;text-align:start;letter-spacing:0px;word-spacing:0px;writing-mode:lr-tb;text-anchor:start;fill:#000000;fill-opacity:1;stroke:none"
       transform="matrix(0.75000002,0,0,-0.75000002,194.59168,477.51718)"><flowRegion
         id="flowRegion837-1-0-4"><rect
           id="rect839-7-5-0"
           width="283.57379"
           height="71.190071"
           x="53.985806"
           y="86.031776" /></flowRegion><flowPara
         id="flowPara841-8-8-7"
         style="font-style:normal;font-variant:normal;font-weight:normal;font-stretch:normal;font-size:26.66666603px;font-family:'Freestyle Script';-inkscape-font-specification:'Freestyle Script, Normal';font-variant-ligatures:normal;font-variant-caps:normal;font-variant-numeric:normal;font-feature-settings:normal;text-align:start;writing-mode:lr-tb;text-anchor:start">Extrudermotor</flowPara></flowRoot><flowRoot
       xml:space="preserve"
       id="flowRoot835-0-9-0"
       style="font-style:normal;font-variant:normal;font-weight:normal;font-stretch:normal;font-size:26.66666603px;line-height:0.80000001;font-family:sans-serif;-inkscape-font-specification:'sans-serif, Normal';font-variant-ligatures:normal;font-variant-caps:normal;font-variant-numeric:normal;font-feature-settings:normal;text-align:start;letter-spacing:0px;word-spacing:0px;writing-mode:lr-tb;text-anchor:start;fill:#000000;fill-opacity:1;stroke:none"
       transform="matrix(0.75000002,0,0,-0.75000002,143.42382,285.74892)"><flowRegion
         id="flowRegion837-1-0-5"><rect
           id="rect839-7-5-7"
           width="283.57379"
           height="71.190071"
           x="53.985806"
           y="86.031776" /></flowRegion><flowPara
         id="flowPara841-8-8-3"
         style="font-style:normal;font-variant:normal;font-weight:normal;font-stretch:normal;font-size:26.66666603px;font-family:'Freestyle Script';-inkscape-font-specification:'Freestyle Script, Normal';font-variant-ligatures:normal;font-variant-caps:normal;font-variant-numeric:normal;font-feature-settings:normal;text-align:start;writing-mode:lr-tb;text-anchor:start">elektromagnetischer Hubzylinder</flowPara><flowPara
         style="font-style:normal;font-variant:normal;font-weight:normal;font-stretch:normal;font-size:26.66666603px;font-family:'Freestyle Script';-inkscape-font-specification:'Freestyle Script, Normal';font-variant-ligatures:normal;font-variant-caps:normal;font-variant-numeric:normal;font-feature-settings:normal;text-align:start;writing-mode:lr-tb;text-anchor:start"
         id="flowPara939">mit Federrückstellung</flowPara></flowRoot><flowRoot
       xml:space="preserve"
       id="flowRoot835-0-9-5"
       style="font-style:normal;font-variant:normal;font-weight:normal;font-stretch:normal;font-size:26.66666603px;line-height:1.25;font-family:sans-serif;-inkscape-font-specification:'sans-serif, Normal';font-variant-ligatures:normal;font-variant-caps:normal;font-variant-numeric:normal;font-feature-settings:normal;text-align:start;letter-spacing:0px;word-spacing:0px;writing-mode:lr-tb;text-anchor:start;fill:#000000;fill-opacity:1;stroke:none"
       transform="matrix(0.75000002,0,0,-0.75000002,211.49932,356.04911)"><flowRegion
         id="flowRegion837-1-0-9"><rect
           id="rect839-7-5-2"
           width="283.57379"
           height="71.190071"
           x="53.985806"
           y="86.031776" /></flowRegion><flowPara
         id="flowPara841-8-8-73"
         style="font-style:normal;font-variant:normal;font-weight:normal;font-stretch:normal;font-size:26.66666603px;font-family:'Freestyle Script';-inkscape-font-specification:'Freestyle Script, Normal';font-variant-ligatures:normal;font-variant-caps:normal;font-variant-numeric:normal;font-feature-settings:normal;text-align:start;writing-mode:lr-tb;text-anchor:start">Sensor Flasche</flowPara></flowRoot><flowRoot
       xml:space="preserve"
       id="flowRoot835-0-9-5-8"
       style="font-style:normal;font-variant:normal;font-weight:normal;font-stretch:normal;font-size:26.66666603px;line-height:1.25;font-family:sans-serif;-inkscape-font-specification:'sans-serif, Normal';font-variant-ligatures:normal;font-variant-caps:normal;font-variant-numeric:normal;font-feature-settings:normal;text-align:start;letter-spacing:0px;word-spacing:0px;writing-mode:lr-tb;text-anchor:start;fill:#000000;fill-opacity:1;stroke:none"
       transform="matrix(0.75000002,0,0,-0.75000002,-9.724127,346.10018)"><flowRegion
         id="flowRegion837-1-0-9-5"><rect
           id="rect839-7-5-2-0"
           width="283.57379"
           height="71.190071"
           x="53.985806"
           y="86.031776" /></flowRegion><flowPara
         id="flowPara841-8-8-73-9"
         style="font-style:normal;font-variant:normal;font-weight:normal;font-stretch:normal;font-size:26.66666603px;font-family:'Freestyle Script';-inkscape-font-specification:'Freestyle Script, Normal';font-variant-ligatures:normal;font-variant-caps:normal;font-variant-numeric:normal;font-feature-settings:normal;text-align:start;writing-mode:lr-tb;text-anchor:start">Förderband</flowPara></flowRoot></g></svg>